<svg xmlns="http://www.w3.org/2000/svg" width="81.685" height="60.294" viewBox="0 0 81.685 60.294">
  <g id="Groupe_496" data-name="Groupe 496" transform="translate(-1542.999 -328.522)">
    <g id="Tracé_781" data-name="Tracé 781" transform="translate(1543 328.522)" fill="#47afc5">
      <path d="M 40.83879852294922 59.79360198974609 C 32.8932991027832 59.79360198974609 26.78678703308105 59.2216796875 21.6212215423584 57.99372482299805 C 15.49763202667236 56.53802490234375 10.86983203887939 54.17052459716797 7.473398685455322 50.75594711303711 C 5.198898792266846 48.46929168701172 3.462232112884521 45.6567268371582 2.31163215637207 42.39635848999023 C 1.084498763084412 38.91913604736328 0.4748543798923492 34.79867935180664 0.4996210336685181 30.14946937561035 C 0.5617765784263611 18.48583602905273 4.410609722137451 10.56491374969482 12.26606559753418 5.934080600738525 C 15.70057678222656 3.909414052963257 19.88082122802734 2.496480703353882 25.0456428527832 1.614536285400391 C 29.43759918212891 0.8645695447921753 34.60358810424805 0.500002920627594 40.83879852294922 0.500002920627594 C 47.82388687133789 0.500002920627594 54.23522186279297 1.437514066696167 59.89473342895508 3.286502838134766 C 65.75556182861328 5.201269626617432 70.53135681152344 8.010169982910156 74.08946228027344 11.63516998291016 C 76.43016815185547 14.0198917388916 78.21849060058594 16.75130271911621 79.40473175048828 19.75353622436523 C 80.65103149414063 22.90773582458496 81.24766540527344 26.40140342712402 81.17806243896484 30.13749122619629 C 81.0882568359375 34.95803451538086 79.9759521484375 39.33375930786133 77.87207794189453 43.14312362670898 C 75.87775421142578 46.75411224365234 72.99148559570313 49.86429214477539 69.29344177246094 52.38727951049805 C 65.73154449462891 54.81737899780273 61.44669723510742 56.68605804443359 56.55793380737305 57.94141387939453 C 51.77172088623047 59.17043685913086 46.4830436706543 59.79360198974609 40.83879852294922 59.79360198974609 Z" stroke="none"/>
      <path d="M 40.83879852294922 1.000003814697266 C 34.63211059570313 1.000003814697266 29.49365615844727 1.362236022949219 25.12979888916016 2.107402801513672 C 20.02593231201172 2.978935241699219 15.90122222900391 4.371547698974609 12.51997375488281 6.364814758300781 C 8.800178527832031 8.557659149169922 6.064041137695313 11.42417144775391 4.155258178710938 15.12814712524414 C 3.144874572753906 17.08874893188477 2.367919921875 19.31159210205078 1.845954895019531 21.73492431640625 C 1.300628662109375 24.26670455932617 1.015876770019531 27.09867095947266 0.9996109008789063 30.15213584899902 C 0.9751434326171875 34.74361419677734 1.5751953125 38.80718231201172 2.783119201660156 42.22995758056641 C 3.908828735351563 45.41979217529297 5.606132507324219 48.16971588134766 7.827888488769531 50.40332412719727 C 11.15678405761719 53.75001525878906 15.70644378662109 56.07373809814453 21.73685455322266 57.50728225708008 C 26.86352157592773 58.72597885131836 32.93328857421875 59.29360198974609 40.83879852294922 59.29360198974609 C 46.44112014770508 59.29360198974609 51.68796539306641 58.67572402954102 56.43357849121094 57.45712661743164 C 61.26596832275391 56.21624755859375 65.49784088134766 54.37153625488281 69.01165771484375 51.97423553466797 C 72.64443969726563 49.49578094482422 75.47825622558594 46.4432258605957 77.43438720703125 42.90139007568359 C 79.49851226806641 39.16401672363281 80.58986663818359 34.86649322509766 80.67814636230469 30.12818145751953 C 80.74651336669922 26.45844650268555 80.16162109375 23.02973556518555 78.93971252441406 19.93727111816406 C 77.77816772460938 16.99755859375 76.0262451171875 14.32217025756836 73.73263549804688 11.98542404174805 C 70.23127746582031 8.418224334716797 65.52328491210938 5.651390075683594 59.73945617675781 3.76177978515625 C 54.13015365600586 1.929203033447266 47.77106475830078 1.000003814697266 40.83879852294922 1.000003814697266 M 40.83879852294922 3.814697265625e-06 C 63.39364242553711 3.814697265625e-06 82.05455780029297 9.933193206787109 81.67796325683594 30.14680290222168 C 81.30138397216797 50.36040496826172 63.39364242553711 60.29360198974609 40.83879852294922 60.29360198974609 C 18.28395462036133 60.29360198974609 -0.1363601684570313 55.66693496704102 -0.0003814697265625 30.14680290222168 C 0.1356201171875 4.626670837402344 18.28395462036133 3.814697265625e-06 40.83879852294922 3.814697265625e-06 Z" stroke="none" fill="#50b4c9"/>
    </g>
    <g id="Tracé_782" data-name="Tracé 782" transform="translate(1546.347 332.857)" fill="#1f2d3b">
      <path d="M 37.82610321044922 51.44259643554688 C 32.37896347045898 51.44259643554688 27.46310234069824 51.02614593505859 23.21509170532227 50.20482635498047 C 18.57233238220215 49.30718612670898 14.590012550354 47.89979553222656 11.37874221801758 46.02175521850586 C 7.923342227935791 44.00093460083008 5.259171962738037 41.37448501586914 3.460242033004761 38.21536636352539 C 1.525742053985596 34.81815719604492 0.5296521186828613 30.69758605957031 0.4996421039104462 25.96812629699707 C 0.477382093667984 22.46013641357422 1.001232147216797 19.27294540405273 2.05662202835083 16.49508666992188 C 3.054782152175903 13.86790657043457 4.556662082672119 11.53369617462158 6.520552158355713 9.557306289672852 C 9.662032127380371 6.39582633972168 14.09964179992676 4.031656265258789 19.71012115478516 2.530456304550171 C 24.74548149108887 1.183146357536316 30.84057235717773 0.4999963045120239 37.82610321044922 0.4999963045120239 C 44.47183227539063 0.4999963045120239 50.5419807434082 1.352246284484863 55.8679313659668 3.03308629989624 C 61.3817138671875 4.773196220397949 65.82600402832031 7.322756290435791 69.07735443115234 10.6109561920166 C 73.17668151855469 14.75673675537109 75.22068023681641 19.92280578613281 75.15259552001953 25.96566581726074 C 75.10604858398438 30.09586715698242 74.10150909423828 33.84797668457031 72.16689300537109 37.1177864074707 C 70.33302307128906 40.21732711791992 67.66349029541016 42.8900260925293 64.23248291015625 45.0616455078125 C 60.92719268798828 47.1536865234375 56.94830322265625 48.76334762573242 52.40635299682617 49.84589767456055 C 47.96116256713867 50.90538787841797 43.05566024780273 51.44259643554688 37.82610321044922 51.44259643554688 Z" stroke="none"/>
      <path d="M 37.82610702514648 0.9999961853027344 C 30.88419723510742 0.9999961853027344 24.83258438110352 1.67742919921875 19.83936309814453 3.013462066650391 C 14.31537246704102 4.491519927978516 9.953605651855469 6.811763763427734 6.875228881835938 9.90972900390625 C 4.961074829101563 11.83606338500977 3.497116088867188 14.1114501953125 2.524032592773438 16.67267227172852 C 1.490653991699219 19.39257431030273 0.9777603149414063 22.51895141601563 0.9996261596679688 25.96495246887207 C 1.029083251953125 30.60769653320313 2.003143310546875 34.64608764648438 3.894737243652344 37.96794128417969 C 5.649642944335938 41.04976272583008 8.252555847167969 43.61424255371094 11.63116455078125 45.59014129638672 C 14.79352951049805 47.4395866394043 18.72286224365234 48.82703018188477 23.31000900268555 49.71391677856445 C 27.52681732177734 50.52920913696289 32.41073989868164 50.94259643554688 37.82610702514648 50.94259643554688 C 43.01667404174805 50.94259643554688 47.88317489624023 50.40997314453125 52.29042816162109 49.35951995849609 C 56.77858734130859 48.2897834777832 60.70650863647461 46.70162963867188 63.96507263183594 44.63916397094727 C 67.32862854003906 42.51023101806641 69.94334411621094 39.89402008056641 71.736572265625 36.86318588256836 C 73.6259765625 33.66979598999023 74.60707092285156 30.00144004821777 74.65261840820313 25.96002960205078 C 74.71915435791016 20.05568504333496 72.72373962402344 15.00978469848633 68.72180938720703 10.96250915527344 C 65.5281982421875 7.732707977294922 61.15289688110352 5.225296020507813 55.71745300292969 3.509906768798828 C 50.44023895263672 1.844451904296875 44.42071914672852 0.9999961853027344 37.82610702514648 0.9999961853027344 M 37.82610702514648 -3.814697265625e-06 C 58.71706390380859 -3.814697265625e-06 75.84868621826172 8.565475463867188 75.65254974365234 25.9712963104248 C 75.45640563964844 43.37711715698242 58.71706390380859 51.94259643554688 37.82610702514648 51.94259643554688 C 16.93513107299805 51.94259643554688 0.1264877319335938 45.96174240112305 -0.0003509521484375 25.9712963104248 C -0.1271820068359375 5.980850219726563 16.93513107299805 -3.814697265625e-06 37.82610702514648 -3.814697265625e-06 Z" stroke="none" fill="#50b4c9"/>
    </g>
    <text id="_01:15" data-name="01:15" transform="translate(1553.042 363.623)" fill="#8dd0de" font-size="21" font-family="SitkaSmall, Sitka Small"><tspan x="0" y="0">01:15</tspan></text>
  </g>
</svg>
