<svg xmlns="http://www.w3.org/2000/svg" width="81.684" height="60.293" viewBox="0 0 81.684 60.293">
  <g id="Groupe_495" data-name="Groupe 495" transform="translate(-1542.999 -328.522)">
    <g id="Tracé_781" data-name="Tracé 781" transform="translate(1543 328.522)" fill="#f4eaea">
      <path d="M 40.83836364746094 59.79297256469727 C 32.89295196533203 59.79297256469727 26.78650856018066 59.22105026245117 21.62099647521973 57.99310302734375 C 15.49746417999268 56.53742599487305 10.86971950531006 54.16994857788086 7.473319530487061 50.75540542602539 C 5.198841571807861 48.46877288818359 3.462197303771973 45.6562385559082 2.31160831451416 42.39590454101563 C 1.084486126899719 38.91871643066406 0.4748528301715851 34.79831695556641 0.4996194839477539 30.14914894104004 C 0.5617750287055969 18.48563766479492 4.410563945770264 10.56480503082275 12.26593017578125 5.934026718139648 C 15.70041942596436 3.909382581710815 19.88060760498047 2.496460199356079 25.04537582397461 1.614526867866516 C 29.43729782104492 0.8645713329315186 34.60321807861328 0.5000047087669373 40.83836364746094 0.5000047087669373 C 47.8233757019043 0.5000047087669373 54.23465347290039 1.437504649162292 59.89409637451172 3.286482572555542 C 65.75486755371094 5.201226711273193 70.53060913085938 8.010093688964844 74.08867645263672 11.63506031036377 C 76.42935180664063 14.01974868774414 78.21764373779297 16.75112724304199 79.40388488769531 19.75332641601563 C 80.65016174316406 22.90749359130859 81.24678802490234 26.40111541748047 81.17718505859375 30.13717079162598 C 81.08737182617188 34.95766067504883 79.97509765625 39.33333969116211 77.87123107910156 43.14266204833984 C 75.87694549560547 46.75361633300781 72.99070739746094 49.86376190185547 69.29270935058594 52.38671493530273 C 65.73084259033203 54.81679534912109 61.44604110717773 56.68545913696289 56.55733108520508 57.94080352783203 C 51.77117538452148 59.16981506347656 46.48255157470703 59.79297256469727 40.83836364746094 59.79297256469727 Z" stroke="none"/>
      <path d="M 40.83836364746094 0.9999923706054688 C 34.63174057006836 0.9999923706054688 29.49334335327148 1.362228393554688 25.12953186035156 2.107383728027344 C 20.02573013305664 2.978904724121094 15.90106201171875 4.371505737304688 12.51985168457031 6.364738464355469 C 8.800086975097656 8.557571411132813 6.063987731933594 11.42404937744141 4.155220031738281 15.12798309326172 C 3.144851684570313 17.08856964111328 2.367904663085938 19.31138229370117 1.845939636230469 21.73469543457031 C 1.300628662109375 24.26644897460938 1.015876770019531 27.09836959838867 0.9996109008789063 30.15181541442871 C 0.9751434326171875 34.74324035644531 1.5751953125 38.8067626953125 2.783096313476563 42.22950744628906 C 3.908798217773438 45.41930389404297 5.606086730957031 48.16919326782227 7.827812194824219 50.40278244018555 C 11.15666198730469 53.74942779541016 15.70628356933594 56.07312774658203 21.73662948608398 57.50666046142578 C 26.86323165893555 58.72534942626953 32.93294143676758 59.29296112060547 40.83836364746094 59.29296112060547 C 46.44063186645508 59.29296112060547 51.68741989135742 58.67508316040039 56.43297576904297 57.45650482177734 C 61.26530838012695 56.21563720703125 65.49713134765625 54.37094879150391 69.01091003417969 51.97368240356445 C 72.64365386962891 49.49524688720703 75.47743988037109 46.44272613525391 77.43354034423828 42.90093994140625 C 79.49765014648438 39.16360473632813 80.58899688720703 34.86611557006836 80.67727661132813 30.12786102294922 C 80.74564361572266 26.45817184448242 80.16075134277344 23.02949523925781 78.93886566162109 19.93707275390625 C 77.77732849121094 16.99738311767578 76.02542877197266 14.32201766967773 73.73184204101563 11.98529434204102 C 70.23052215576172 8.418136596679688 65.5225830078125 5.651336669921875 59.73881912231445 3.761749267578125 C 54.12958526611328 1.929183959960938 47.77055358886719 0.9999923706054688 40.83836364746094 0.9999923706054688 M 40.83836364746094 -7.62939453125e-06 C 63.39297485351563 -7.62939453125e-06 82.05368804931641 9.933094024658203 81.67709350585938 30.14648246765137 C 81.30050659179688 50.35987091064453 63.39297485351563 60.29296112060547 40.83836364746094 60.29296112060547 C 18.28376388549805 60.29296112060547 -0.1363601684570313 55.66634750366211 -0.0003814697265625 30.14648246765137 C 0.1356201171875 4.626617431640625 18.28376388549805 -7.62939453125e-06 40.83836364746094 -7.62939453125e-06 Z" stroke="none" fill="#fffbfc"/>
    </g>
    <g id="Tracé_782" data-name="Tracé 782" transform="translate(1546.347 332.856)" fill="#1f2d3b">
      <path d="M 37.8256950378418 51.44204330444336 C 32.37861633300781 51.44204330444336 27.46281623840332 51.02560043334961 23.21484565734863 50.20429229736328 C 18.57213592529297 49.3066520690918 14.58986568450928 47.8992805480957 11.37862491607666 46.02126312255859 C 7.92326545715332 44.00046157836914 5.259125232696533 41.37404251098633 3.460215330123901 38.21495056152344 C 1.525735378265381 34.81778335571289 0.529655396938324 30.69726181030273 0.4996453821659088 25.96785163879395 C 0.4773853719234467 22.45990180969238 1.001225352287292 19.27275085449219 2.056615352630615 16.49492073059082 C 3.054755449295044 13.86776161193848 4.556615352630615 11.53358173370361 6.520485401153564 9.557211875915527 C 9.661935806274414 6.395771503448486 14.09949493408203 4.03162145614624 19.70991516113281 2.530441761016846 C 24.74521446228027 1.183141708374023 30.84024620056152 0.5000016689300537 37.8256950378418 0.5000016689300537 C 44.47135543823242 0.5000016689300537 50.54144668579102 1.352251648902893 55.86734390258789 3.033061742782593 C 61.38106536865234 4.773151874542236 65.82530212402344 7.322691440582275 69.07662200927734 10.61086177825928 C 73.17589569091797 14.756591796875 75.21987915039063 19.9226016998291 75.15177917480469 25.96539115905762 C 75.10523223876953 30.09554100036621 74.10071563720703 33.84762191772461 72.16612243652344 37.11739349365234 C 70.33226776123047 40.21689224243164 67.66277313232422 42.88956069946289 64.23179626464844 45.06116104125977 C 60.92654418945313 47.15318298339844 56.94770431518555 48.76282119750977 52.40579605102539 49.84535980224609 C 47.96065521240234 50.90484237670898 43.05520629882813 51.44204330444336 37.8256950378418 51.44204330444336 Z" stroke="none"/>
      <path d="M 37.82569885253906 1 C 30.88386535644531 1 24.83232116699219 1.677421569824219 19.83915710449219 3.013442993164063 C 14.31522369384766 4.491489410400391 9.953514099121094 6.811698913574219 6.875167846679688 9.909633636474609 C 4.961036682128906 11.83595657348633 3.497100830078125 14.11130905151367 2.524024963378906 16.67250061035156 C 1.490646362304688 19.39237594604492 0.9777679443359375 22.51872253417969 0.9996337890625 25.96467781066895 C 1.029090881347656 30.60736656188965 2.003135681152344 34.64572143554688 3.89471435546875 37.96754455566406 C 5.649589538574219 41.04932403564453 8.252479553222656 43.61376571655273 11.63104248046875 45.58965301513672 C 14.79337692260742 47.43907928466797 18.7226676940918 48.82649993896484 23.30975723266602 49.71337890625 C 27.52652359008789 50.52866744995117 32.4103889465332 50.94204330444336 37.82569885253906 50.94204330444336 C 43.01621246337891 50.94204330444336 47.88265609741211 50.40942001342773 52.28986740112305 49.35898971557617 C 56.77798843383789 48.28926467895508 60.70585632324219 46.70112228393555 63.96438980102539 44.63867568969727 C 67.32791137695313 42.509765625 69.94259643554688 39.89358901977539 71.73580169677734 36.86278915405273 C 73.62517547607422 33.66943359375 74.60626983642578 30.00112152099609 74.65180969238281 25.95975494384766 C 74.71834564208984 20.05547714233398 72.72295379638672 15.0096435546875 68.72107696533203 10.96240997314453 C 65.52751159667969 7.732643127441406 61.15225601196289 5.225254058837891 55.71686553955078 3.509876251220703 C 50.43971252441406 1.844444274902344 44.42024230957031 1 37.82569885253906 1 M 37.82569885253906 0 C 58.71644592285156 0 75.84788513183594 8.565387725830078 75.65174102783203 25.97102165222168 C 75.45561218261719 43.37665557861328 58.71644592285156 51.94204330444336 37.82569885253906 51.94204330444336 C 16.93495559692383 51.94204330444336 0.1264877319335938 45.96125411987305 -0.00034332275390625 25.97102165222168 C -0.1271743774414063 5.980789184570313 16.93495559692383 0 37.82569885253906 0 Z" stroke="none" fill="#fffbfc"/>
    </g>
    <text id="_23:57" data-name="23:57" transform="translate(1553.042 364.623)" fill="#fffbfc" font-size="22" font-family="SitkaSmall, Sitka Small"><tspan x="0" y="0">23:57</tspan></text>
  </g>
</svg>
