<svg xmlns="http://www.w3.org/2000/svg" xmlns:xlink="http://www.w3.org/1999/xlink" width="135.903" height="106.016" viewBox="0 0 135.903 106.016">
  <defs>
    <filter id="Polygone_14" x="31.618" y="3.938" width="102.078" height="102.078" filterUnits="userSpaceOnUse">
      <feOffset input="SourceAlpha"/>
      <feGaussianBlur stdDeviation="10" result="blur"/>
      <feFlood flood-color="#fffbfc" flood-opacity="0.4"/>
      <feComposite operator="in" in2="blur"/>
      <feComposite in="SourceGraphic"/>
    </filter>
    <filter id="Polygone_15" x="56.605" y="0" width="79.299" height="79.299" filterUnits="userSpaceOnUse">
      <feOffset input="SourceAlpha"/>
      <feGaussianBlur stdDeviation="10" result="blur-2"/>
      <feFlood flood-color="#fffbfc" flood-opacity="0.4"/>
      <feComposite operator="in" in2="blur-2"/>
      <feComposite in="SourceGraphic"/>
    </filter>
  </defs>
  <g id="Groupe_493" data-name="Groupe 493" transform="translate(-1105 -288.747)">
    <g id="Groupe_45" data-name="Groupe 45" transform="translate(1105 308)">
      <text id="_06:47" data-name="06:47" transform="translate(0 27)" fill="#fffbfc" font-size="31" font-family="OCRAExtended, OCR-A"><tspan x="0" y="0">06:47</tspan></text>
      <line id="Ligne_2" data-name="Ligne 2" x2="52.282" transform="translate(3.361 42.199)" fill="none" stroke="#fffbfc" stroke-width="1" stroke-dasharray="1 2"/>
      <g id="Groupe_484" data-name="Groupe 484" transform="translate(61.618 10.747)">
        <g transform="matrix(1, 0, 0, 1, -61.62, -30)" filter="url(#Polygone_14)">
          <path id="Polygone_14-2" data-name="Polygone 14" d="M15.281,5.692a2,2,0,0,1,3.795,0l2.081,6.243A2,2,0,0,0,22.422,13.2l6.243,2.081a2,2,0,0,1,0,3.795l-6.243,2.081a2,2,0,0,0-1.265,1.265l-2.081,6.243a2,2,0,0,1-3.795,0L13.2,22.422a2,2,0,0,0-1.265-1.265L5.692,19.076a2,2,0,0,1,0-3.795L11.935,13.2A2,2,0,0,0,13.2,11.935Z" transform="translate(61.62 42.83) rotate(-15)" fill="#fffbfc"/>
        </g>
        <g transform="matrix(1, 0, 0, 1, -61.62, -30)" filter="url(#Polygone_15)">
          <path id="Polygone_15-2" data-name="Polygone 15" d="M6.52,2.846a1,1,0,0,1,1.9,0l.76,2.281a1,1,0,0,0,.632.632l2.281.76a1,1,0,0,1,0,1.9l-2.281.76a1,1,0,0,0-.632.632l-.76,2.281a1,1,0,0,1-1.9,0L5.76,9.81a1,1,0,0,0-.632-.632l-2.281-.76a1,1,0,0,1,0-1.9l2.281-.76a1,1,0,0,0,.632-.632Z" transform="translate(91.96 30) rotate(21)" fill="#fffbfc"/>
        </g>
      </g>
    </g>
  </g>
</svg>
