<svg xmlns="http://www.w3.org/2000/svg" width="62.951" height="85.875" viewBox="0 0 62.951 85.875">
  <g id="Groupe_68" data-name="Groupe 68" transform="translate(0 -12.089)">
    <path id="Tracé_487" data-name="Tracé 487" d="M251.474,353.442v15.065c0,.52-.657.942-1.468.942s-1.468-.422-1.468-.942V353.442c0-.52.657-.942,1.468-.942S251.474,352.922,251.474,353.442Z" transform="translate(-218.53 -276.886)" fill="#963737"/>
    <path id="Tracé_488" data-name="Tracé 488" d="M239.468,441.272a.765.765,0,0,1-.52.907,12.961,12.961,0,0,1-9.61,0,.765.765,0,0,1-.52-.907l2.886-9.659a2.431,2.431,0,0,1,2.18-1.6,2.5,2.5,0,0,1,2.68,1.542Z" transform="translate(-202.667 -345.14)" fill="#ff4b4b"/>
    <path id="Tracé_489" data-name="Tracé 489" d="M251,473.744v5.22a8.658,8.658,0,0,1-2.459,0v-5.22a1.23,1.23,0,1,1,2.459,0Z" transform="translate(-218.29 -381.089)" fill="#963737"/>
    <path id="Tracé_476" data-name="Tracé 476" d="M319.427,14.346a5.936,5.936,0,0,1,3.148,0c.3.294,0,16.394,0,16.394h-3.148S319.112,14.619,319.427,14.346Z" transform="translate(-289.526 -2.045)" fill="#963737"/>
    <path id="Tracé_456" data-name="Tracé 456" d="M86.953,135.607a18.525,18.525,0,0,1-2.26,8.865,27.65,27.65,0,0,1-22.138,14.319l-1.556.12-3.948.3H53.9l-1.218-.094-2.731-.209-1.556-.12a27.643,27.643,0,0,1-22.137-14.318,18.522,18.522,0,0,1,0-17.733A27.65,27.65,0,0,1,48.4,112.423l1.556-.12L53.9,112h3.148l3.948.3,1.556.12a27.665,27.665,0,0,1,12.885,4.35q1.1.711,2.125,1.523a27.571,27.571,0,0,1,7.127,8.445,18.526,18.526,0,0,1,2.26,8.866Z" transform="translate(-24.002 -83.698)" fill="#e04446"/>
    <path id="Tracé_457" data-name="Tracé 457" d="M189.772,183.45a18.525,18.525,0,0,1-2.26,8.865,27.65,27.65,0,0,1-22.138,14.319l-1.556.12-3.948.3h-3.148l-1.218-.094q-.664-.994-1.243-2.056a18.522,18.522,0,0,1,0-17.733,26.887,26.887,0,0,1,21.63-14.379l4.567-.7,4.835-.537c.806,1.343.437-.244,2.218,3.024a18.527,18.527,0,0,1,2.26,8.866Z" transform="translate(-126.821 -131.541)" fill="#d6323f"/>
    <path id="Tracé_464" data-name="Tracé 464" d="M152,80h12.59v6.658H152Z" transform="translate(-126.82 -57.993)" fill="#fab53f"/>
    <path id="Tracé_465" data-name="Tracé 465" d="M152,350.15h12.59v6.659H152Z" transform="translate(-126.82 -274.998)" fill="#fab53f"/>
    <path id="Tracé_469" data-name="Tracé 469" d="M178.166,350.15v6.659h-3.2a27.531,27.531,0,0,1-6.063-6.659Z" transform="translate(-140.395 -274.998)" fill="#fab53f"/>
  </g>
</svg>
