<svg xmlns="http://www.w3.org/2000/svg" xmlns:xlink="http://www.w3.org/1999/xlink" width="96.473" height="96.473" viewBox="0 0 96.473 96.473">
  <defs>
    <filter id="Tracé_693" x="0" y="0" width="96.473" height="96.473" filterUnits="userSpaceOnUse">
      <feOffset input="SourceAlpha"/>
      <feGaussianBlur stdDeviation="10" result="blur"/>
      <feFlood flood-opacity="0"/>
      <feComposite operator="in" in2="blur"/>
      <feComposite in="SourceGraphic"/>
    </filter>
  </defs>
  <g id="Groupe_503" data-name="Groupe 503" transform="translate(-365 -267)">
    <g transform="matrix(1, 0, 0, 1, 365, 267)" filter="url(#Tracé_693)">
      <g id="Tracé_693-2" data-name="Tracé 693" transform="translate(30 30)" fill="#47c575">
        <path d="M 18.236328125 35.97265625 C 13.49877834320068 35.97265625 9.044797897338867 34.12775802612305 5.69484806060791 30.77780723571777 C 2.344898223876953 27.42785835266113 0.4999981224536896 22.97386741638184 0.4999981224536896 18.236328125 C 0.4999981224536896 13.49877834320068 2.344898223876953 9.044797897338867 5.69484806060791 5.69484806060791 C 9.044797897338867 2.344898223876953 13.49877834320068 0.4999981224536896 18.236328125 0.4999981224536896 C 22.97386741638184 0.4999981224536896 27.42785835266113 2.344898223876953 30.77780723571777 5.69484806060791 C 34.12775802612305 9.044797897338867 35.97265625 13.49877834320068 35.97265625 18.236328125 C 35.97265625 22.97386741638184 34.12775802612305 27.42784881591797 30.77780723571777 30.77780723571777 C 27.42784881591797 34.12775802612305 22.97386741638184 35.97265625 18.236328125 35.97265625 Z" stroke="none"/>
        <path d="M 18.236328125 1 C 13.63233757019043 1 9.303918838500977 2.792888641357422 6.048398971557617 6.048398971557617 C 2.792888641357422 9.303918838500977 1 13.63233757019043 1 18.236328125 C 1 22.84031677246094 2.792888641357422 27.16873931884766 6.048398971557617 30.42424774169922 C 9.303918838500977 33.67976760864258 13.63233757019043 35.47265625 18.236328125 35.47265625 C 22.84031677246094 35.47265625 27.16873931884766 33.67976760864258 30.42424774169922 30.42424774169922 C 33.67976760864258 27.16873931884766 35.47265625 22.84031677246094 35.47265625 18.236328125 C 35.47265625 13.63233757019043 33.67976760864258 9.303918838500977 30.42424774169922 6.048398971557617 C 27.16873931884766 2.792888641357422 22.84031677246094 1 18.236328125 1 M 18.236328125 0 C 28.30796813964844 0 36.47265625 8.164678573608398 36.47265625 18.236328125 C 36.47265625 28.30796813964844 28.30796813964844 36.47265625 18.236328125 36.47265625 C 8.164678573608398 36.47265625 0 28.30796813964844 0 18.236328125 C 0 8.164678573608398 8.164678573608398 0 18.236328125 0 Z" stroke="none" fill="#fffbfc"/>
      </g>
    </g>
    <g id="Ellipse_31" data-name="Ellipse 31" transform="translate(397.21 298.658)" fill="#47c575" stroke="#fffbfc" stroke-width="1">
      <circle cx="15.473" cy="15.473" r="15.473" stroke="none"/>
      <circle cx="15.473" cy="15.473" r="14.973" fill="none"/>
    </g>
    <g id="back" transform="translate(419.105 323.825) rotate(180)">
      <g id="Groupe_100" data-name="Groupe 100" transform="translate(0 0)">
        <path id="Tracé_593" data-name="Tracé 593" d="M1.2,6.446,6.8.846a.5.5,0,0,0-.7-.7L.145,6.1a.5.5,0,0,0,0,.7l5.95,5.95a.5.5,0,0,0,.7-.7Z" fill="#fffbfc"/>
      </g>
    </g>
  </g>
</svg>
