<svg xmlns="http://www.w3.org/2000/svg" xmlns:xlink="http://www.w3.org/1999/xlink" width="145.316" height="156.261" viewBox="0 0 145.316 156.261">
  <defs>
    <linearGradient id="linear-gradient" x1="0.533" y1="-0.178" x2="0.537" y2="0.415" gradientUnits="objectBoundingBox">
      <stop offset="0" stop-color="coral"/>
      <stop offset="0.257" stop-color="#ffa250"/>
      <stop offset="0.556" stop-color="#ffad50"/>
      <stop offset="1" stop-color="#ffb950"/>
    </linearGradient>
    <filter id="Tracé_778" x="0" y="25.263" width="129.982" height="130.999" filterUnits="userSpaceOnUse">
      <feOffset input="SourceAlpha"/>
      <feGaussianBlur stdDeviation="10" result="blur"/>
      <feFlood flood-opacity="0"/>
      <feComposite operator="in" in2="blur"/>
      <feComposite in="SourceGraphic"/>
    </filter>
    <radialGradient id="radial-gradient" cx="0.312" cy="0.206" r="0.971" gradientTransform="matrix(0.33, 0.944, -1.099, 0.384, 0.436, -0.168)" gradientUnits="objectBoundingBox">
      <stop offset="0" stop-color="#f90"/>
      <stop offset="1" stop-color="#ffb950"/>
    </radialGradient>
    <filter id="Tracé_779" x="10.291" y="0" width="93.207" height="96.242" filterUnits="userSpaceOnUse">
      <feOffset input="SourceAlpha"/>
      <feGaussianBlur stdDeviation="10" result="blur-2"/>
      <feFlood flood-opacity="0"/>
      <feComposite operator="in" in2="blur-2"/>
      <feComposite in="SourceGraphic"/>
    </filter>
    <radialGradient id="radial-gradient-2" cx="0.566" cy="0.172" r="0.938" gradientTransform="matrix(0.624, 0.781, -0.834, 0.666, 0.356, -0.385)" gradientUnits="objectBoundingBox">
      <stop offset="0" stop-color="#f90"/>
      <stop offset="1" stop-color="#ffbf50"/>
    </radialGradient>
    <filter id="Tracé_780" x="42.716" y="5.46" width="102.6" height="104.05" filterUnits="userSpaceOnUse">
      <feOffset input="SourceAlpha"/>
      <feGaussianBlur stdDeviation="10" result="blur-3"/>
      <feFlood flood-opacity="0"/>
      <feComposite operator="in" in2="blur-3"/>
      <feComposite in="SourceGraphic"/>
    </filter>
  </defs>
  <g id="Groupe_491" data-name="Groupe 491" transform="translate(-366.921 -919.447) rotate(11)">
    <g transform="matrix(0.98, -0.19, 0.19, 0.98, 535.62, 832.54)" filter="url(#Tracé_778)">
      <g id="Tracé_778-2" data-name="Tracé 778" transform="matrix(-0.97, -0.24, 0.24, -0.97, 81.16, 147.88)" fill="url(#linear-gradient)">
        <path d="M 28.47570419311523 79.89199829101563 L 1.945841670036316 71.34115600585938 C 2.044166088104248 71.03661346435547 2.200815677642822 70.62454986572266 2.450103044509888 70.09302520751953 C 3.149703025817871 68.60111236572266 9.484562873840332 55.1616325378418 16.39720344543457 42.83281326293945 C 19.75358390808105 36.84663009643555 22.68776321411133 32.1209602355957 25.11824226379395 28.78707122802734 C 28.97237396240234 23.50033187866211 30.585693359375 23.08946228027344 30.98834228515625 23.08946228027344 C 30.99718284606934 23.08946228027344 31.00570297241211 23.08964157104492 31.01441383361816 23.09004211425781 C 31.41953277587891 23.10855102539063 33.02010345458984 23.59679222106934 36.6070442199707 29.1018009185791 C 38.86291122436523 32.5639533996582 41.54801177978516 37.44618988037109 44.58776473999023 43.61289978027344 C 50.55520248413086 55.71900177001953 55.9076042175293 68.71889495849609 56.91996383666992 71.20196533203125 C 56.98521041870117 71.36192321777344 57.03759765625 71.52028656005859 57.07947540283203 71.66789245605469 L 28.47570419311523 79.89199829101563 Z" stroke="none"/>
        <path d="M 30.97866821289063 24.09812164306641 C 30.70616722106934 24.17832946777344 29.17588043212891 24.82926940917969 25.58990478515625 29.842041015625 C 23.18742370605469 33.20042419433594 20.30302429199219 37.88761138916016 17.01681137084961 43.77340316772461 C 10.21749114990234 55.95139312744141 4.037773132324219 69.0626220703125 3.355472564697266 70.51763153076172 C 3.323448181152344 70.58592224121094 3.293140411376953 70.65191650390625 3.264522552490234 70.71551513671875 L 28.49234008789063 78.84668731689453 L 55.75967407226563 71.0068359375 C 54.35039520263672 67.57272338867188 49.4166259765625 55.72247695922852 43.91739273071289 44.51574325561523 C 40.94265365600586 38.45361328125 38.30561065673828 33.61312103271484 36.07952117919922 30.12873840332031 C 32.74757385253906 24.91342926025391 31.24693870544434 24.19062805175781 30.97866821289063 24.09812164306641 M 30.98834419250488 22.08945465087891 C 31.01264762878418 22.08945465087891 31.03611373901367 22.08998870849609 31.06006240844727 22.09107971191406 C 37.5050048828125 22.38561248779297 54.15221405029297 61.76460266113281 57.84595489501953 70.82443237304688 C 58.17355346679688 71.62757873535156 58.23299407958984 72.37673950195313 58.23299407958984 72.37673950195313 L 28.45906257629395 80.93728637695313 L 0.781524658203125 72.01654052734375 C 0.781524658203125 72.01654052734375 0.7588119506835938 71.34413146972656 1.544723510742188 69.66839599609375 C 5.965419769287109 60.24125289916992 24.59008026123047 22.08945465087891 30.98834419250488 22.08945465087891 Z" stroke="none" fill="#ffffe0"/>
      </g>
    </g>
    <g transform="matrix(0.98, -0.19, 0.19, 0.98, 535.62, 832.54)" filter="url(#Tracé_779)">
      <g id="Tracé_779-2" data-name="Tracé 779" transform="translate(39.93 29.31) rotate(-3)" fill="url(#radial-gradient)">
        <path d="M 30.26585960388184 35.97797775268555 L 1.357339859008789 35.53024291992188 C 1.675733327865601 32.93911361694336 2.709281444549561 26.02349662780762 5.321273803710938 19.01701927185059 C 6.61587381362915 15.54406929016113 8.51634407043457 11.66953945159912 10.53538417816162 8.386858940124512 C 11.41612339019775 6.954898834228516 12.27608394622803 5.706318855285645 13.02230358123779 4.776089191436768 C 13.67853260040283 3.958034515380859 14.07708358764648 3.595757007598877 14.28017807006836 3.440462589263916 C 14.73418617248535 3.802693128585815 15.78756999969482 4.978183746337891 17.49173355102539 7.657898902893066 C 19.24956321716309 10.42200946807861 21.13367462158203 13.89144897460938 22.79698371887207 17.42709922790527 C 26.14599800109863 24.54560279846191 29.14480590820313 32.79835510253906 30.26585960388184 35.97797775268555 Z" stroke="none"/>
        <path d="M 14.26377296447754 4.853515625 C 13.62566947937012 5.573238372802734 12.58057594299316 6.936538696289063 11.18669319152832 9.239339828491211 C 9.250593185424805 12.43788909912109 7.500324249267578 16.03437995910645 6.258274078369141 19.3663387298584 C 3.992742538452148 25.44344139099121 2.931350708007813 31.45694351196289 2.495800018310547 34.54775619506836 L 28.84004783630371 34.95577621459961 C 27.48235321044922 31.18218612670898 24.81998634338379 24.07612991333008 21.89211273193359 17.85277938842773 C 20.3168830871582 14.50435829162598 18.52565383911133 11.18707847595215 16.84839248657227 8.512039184570313 C 15.61666107177734 6.547554016113281 14.77829360961914 5.45013427734375 14.26377296447754 4.853515625 M 14.28660011291504 2.355613708496094 C 14.2918586730957 2.355613708496094 14.2969970703125 2.355724334716797 14.30214309692383 2.355949401855469 C 15.56700325012207 2.411109924316406 19.94089508056641 9.006839752197266 23.70185470581055 17.00140953063965 C 28.00380325317383 26.14542007446289 31.67997360229492 37 31.67997360229492 37 L 0.2426242828369141 36.51309967041016 C 0.2426242828369141 36.51309967041016 1.005992889404297 27.72963905334473 4.38426399230957 18.66770935058594 C 7.462032318115234 10.41119384765625 12.87928771972656 2.355613708496094 14.28660011291504 2.355613708496094 Z" stroke="none" fill="#ffffe0"/>
      </g>
    </g>
    <g transform="matrix(0.98, -0.19, 0.19, 0.98, 535.62, 832.54)" filter="url(#Tracé_780)">
      <g id="Tracé_780-2" data-name="Tracé 780" transform="matrix(0.84, 0.54, -0.54, 0.84, 92.65, 32.52)" fill="url(#radial-gradient-2)">
        <path d="M 1.384461045265198 36.08388137817383 C 1.418893933296204 35.84141540527344 1.470530390739441 35.54309463500977 1.547543287277222 35.18254089355469 C 2.093123435974121 32.62126159667969 3.825193405151367 26.11712074279785 6.476303100585938 19.82962989807129 C 8.309643745422363 15.48136043548584 10.09479331970215 11.73755073547363 11.63878345489502 9.002921104431152 C 13.68390274047852 5.38070011138916 14.73492527008057 4.548923015594482 15.08564949035645 4.35945987701416 C 15.59285354614258 4.779609680175781 16.83169937133789 6.291616439819336 18.56018257141113 9.174530982971191 C 20.4949836730957 12.40157032012939 22.33266258239746 16.13700103759766 23.73470306396484 19.69274139404297 C 26.31586265563965 26.23848342895508 27.59181976318359 33.27135467529297 28.01544570922852 35.94921875 L 1.384461045265198 36.08388137817383 Z" stroke="none"/>
        <path d="M 15.01626491546631 5.744659423828125 C 14.49033641815186 6.32708740234375 13.57483100891113 7.546916961669922 12.19878387451172 10.05288124084473 C 10.74726295471191 12.69631004333496 9.087093353271484 16.21139144897461 7.397743225097656 20.21816062927246 C 4.878044128417969 26.19394683837891 3.199262619018555 32.36067199707031 2.593896865844727 35.0777587890625 L 26.83649063110352 34.95517349243164 C 26.28422355651855 31.78046226501465 25.04010772705078 25.7292366027832 22.80440330505371 20.05956077575684 C 21.47102355957031 16.67794036865234 19.72258377075195 13.10138130187988 17.88117218017578 9.988731384277344 C 16.5723762512207 7.776397705078125 15.60419464111328 6.451156616210938 15.01626491546631 5.744659423828125 M 15.20417308807373 3.305171966552734 C 16.41080474853516 3.411140441894531 21.36630249023438 10.96005058288574 24.66499328613281 19.32592010498047 C 28.00772285461426 27.80300140380859 29.1729736328125 36.94338226318359 29.1729736328125 36.94338226318359 L 0.3295936584472656 37.08922958374023 C 0.3295936584472656 37.08922958374023 0.2357330322265625 36.53676986694336 0.5696029663085938 34.97365188598633 C 1.167364120483398 32.16741180419922 2.915002822875977 25.70189094543457 5.554862976074219 19.44111061096191 C 8.996623992919922 11.27803039550781 13.09619331359863 3.311740875244141 15.20417308807373 3.305171966552734 Z" stroke="none" fill="#ffffe0"/>
      </g>
    </g>
  </g>
</svg>
