<svg xmlns="http://www.w3.org/2000/svg" width="75.84" height="57.594" viewBox="0 0 75.84 57.594">
  <g id="Groupe_411" data-name="Groupe 411" transform="translate(-16267.38 -10790)">
    <path id="Tracé_665" data-name="Tracé 665" d="M5.221,1.211A4.241,4.241,0,0,1,8.082,2.382c1.382,1.03,2.571,2.057,2.571,3.973,0,2.046-1.394,3.629-3.137,4.794a5.4,5.4,0,0,1-2.9,1.316A5.4,5.4,0,0,1-.944,8.252C-1.22,6.2.485,5.585,1.906,4.14S3.145,1.211,5.221,1.211Z" transform="translate(16276.292 10816.459) rotate(41)" fill="#3894b2"/>
    <path id="Tracé_666" data-name="Tracé 666" d="M22,0c4.86,0,8.3,4.126,12.054,6.879C39.4,10.8,44,14.71,44,22c0,8.712-6.413,15.215-14.418,19.278C26.8,42.693,24.1,45.253,20.66,45.253c-6.464,0-13.327-2.546-17.176-7.553C.435,33.739,0,27.686,0,22,0,17.881,3.416,11.956,5.461,8.534,9.226,2.233,13.969,0,22,0Z" transform="translate(16291 10790)" fill="#3894b2"/>
    <path id="Tracé_668" data-name="Tracé 668" d="M4.836,0C5.9,0,6.661.907,7.486,1.512c1.175.861,2.187,1.722,2.187,3.324,0,1.915-1.41,3.345-3.17,4.238-.612.311-1.205.874-1.961.874A4.809,4.809,0,0,1,.766,8.288,5.782,5.782,0,0,1,0,4.836a7.26,7.26,0,0,1,1.2-2.96A3.667,3.667,0,0,1,4.836,0Z" transform="translate(16327.939 10835.253) rotate(17)" fill="#3894b2"/>
    <path id="Tracé_669" data-name="Tracé 669" d="M2.22,0c.491,0,.744.7,1.123.977.54.4,1.1.508,1.1,1.243A2.292,2.292,0,0,1,2.986,4.166c-.281.143-.553.4-.9.4A2.208,2.208,0,0,1,.352,3.8,2.654,2.654,0,0,1,0,2.22,3.333,3.333,0,0,1,.551.861,1.683,1.683,0,0,1,2.22,0Z" transform="matrix(0.891, -0.454, 0.454, 0.891, 16337.189, 10837.269)" fill="#3894b2"/>
    <path id="Tracé_670" data-name="Tracé 670" d="M2.176,0C2.656,0,3,.408,3.368.68a1.826,1.826,0,0,1,.984,1.5A2.246,2.246,0,0,1,2.925,4.082c-.275.14-.542.393-.882.393a2.163,2.163,0,0,1-1.7-.747A2.6,2.6,0,0,1,0,2.176,3.266,3.266,0,0,1,.54.844,1.65,1.65,0,0,1,2.176,0Z" transform="matrix(0.94, -0.342, 0.342, 0.94, 16277.705, 10814.75)" fill="#3894b2"/>
  </g>
</svg>
