<svg xmlns="http://www.w3.org/2000/svg" width="54.666" height="53.932" viewBox="0 0 54.666 53.932">
  <path id="Tracé_682" data-name="Tracé 682" d="M28.215-1.376c4.85,1.023,2.129,12.923,6.541,16.4C41.038,19.984,51.7,18.6,51.7,27.82c0,4.781-7.193,4.843-7.611,8.837-.472,4.543,5.323,12.633,0,15.541-3.269,1.789-13.2-7.333-17.236-7.333-7.594,0-18.735,9.888-23.258,3.558-1.519-2.124,4.8-9.128,3.557-13.955-1.51-5.836-11.9-8.892-9.85-14.774s15.655-4.428,18.059-8.756C19.779,2.969,23.365-2.4,28.215-1.376Z" transform="translate(2.971 1.501)" fill="#01d758"/>
</svg>
