<svg xmlns="http://www.w3.org/2000/svg" xmlns:xlink="http://www.w3.org/1999/xlink" width="116.281" height="47.565" viewBox="0 0 116.281 47.565">
  <defs>
    <linearGradient id="linear-gradient" x1="0.5" x2="0.5" y2="1" gradientUnits="objectBoundingBox">
      <stop offset="0" stop-color="#42cdf1"/>
      <stop offset="1" stop-color="#5beb90"/>
    </linearGradient>
    <linearGradient id="linear-gradient-2" x1="0.5" x2="0.5" y2="1" gradientUnits="objectBoundingBox">
      <stop offset="0" stop-color="#ffdfb1" stop-opacity="0.6"/>
      <stop offset="0.423" stop-color="#ffa92f" stop-opacity="0.8"/>
      <stop offset="1" stop-color="#d64a36"/>
    </linearGradient>
    <filter id="Tracé_856" x="83.268" y="0" width="33.013" height="38.313" filterUnits="userSpaceOnUse">
      <feOffset dy="3" input="SourceAlpha"/>
      <feGaussianBlur stdDeviation="3" result="blur"/>
      <feFlood flood-opacity="0.161"/>
      <feComposite operator="in" in2="blur"/>
      <feComposite in="SourceGraphic"/>
    </filter>
  </defs>
  <g id="Groupe_572" data-name="Groupe 572" transform="translate(-797.903 -1900)">
    <path id="Polygone_78" data-name="Polygone 78" d="M6.252,5.115a1.8,1.8,0,0,1,3.41,0h0A1.8,1.8,0,0,0,10.8,6.251h0a1.8,1.8,0,0,1,0,3.41h0A1.8,1.8,0,0,0,9.661,10.8h0a1.8,1.8,0,0,1-3.41,0h0A1.8,1.8,0,0,0,5.115,9.661h0a1.8,1.8,0,0,1,0-3.41h0A1.8,1.8,0,0,0,6.252,5.115Z" transform="translate(853.687 1922.455) rotate(18)" fill="#fffbfc"/>
    <path id="Tracé_855" data-name="Tracé 855" d="M894-1139.781c0,.21.036.219.666.255,1.149.055,1.724.52,1.842,1.468.027.265.046,3.63.027,7.5-.027,6.33-.046,7.051-.182,7.3a1.723,1.723,0,0,1-1.769.867H894v.547l7.817-.018,7.817-.027.064-.319c.055-.237.575-3.977.748-5.29.009-.082-.073-.146-.219-.164-.219-.027-.255.027-.483.684a5.519,5.519,0,0,1-3.749,3.758c-1.323.411-3.986.438-4.57.055-.474-.3-.493-.493-.493-4.1v-3.338l.62.064c1.879.182,2.636,1.14,3.174,4.022.027.164.1.21.31.21h.274v-9.577h-.265c-.283,0-.374.128-.374.529a7.568,7.568,0,0,1-.565,2.043,2.7,2.7,0,0,1-2.481,1.687l-.693.055v-7.443l1.943.055c2.08.073,2.636.164,3.5.584a4.271,4.271,0,0,1,2.107,3.019c.146.611.173.657.41.657h.246V-1140H894Z" transform="translate(-96.097 3069.197)" fill="#b25ddc"/>
    <path id="Tracé_851" data-name="Tracé 851" d="M550.486-916.781c0,.2-.046.21-.7.274a2.342,2.342,0,0,0-1.1.292c-.748.438-.7-.055-.7,8.245,0,7.3,0,7.343.192,7.762.246.529.721.775,1.651.866.62.055.666.073.666.274v.219H541v-.219c0-.2.046-.219.657-.274a2.287,2.287,0,0,0,1.66-.721c.192-.255.192-.365.219-7.616.018-4.05,0-7.488-.027-7.653a1.536,1.536,0,0,0-.839-.994,4.344,4.344,0,0,0-.985-.192c-.638-.055-.684-.064-.684-.265V-917h9.486Z" transform="translate(351.961 2846.413)" fill="#fefbf2"/>
    <path id="Tracé_852" data-name="Tracé 852" d="M45.9-682.772c0,.219-.027.228-.483.228a2.283,2.283,0,0,0-1.687.584,1.319,1.319,0,0,0-.337.894c-.027.319-.046,3.63-.027,7.37l.027,6.8.228.456a1.882,1.882,0,0,0,1.678,1.022c.593.055.6.055.6.319v.255l-3.129-.018-3.119-.027v-.228c0-.219.036-.228.629-.3a2.231,2.231,0,0,0,1.633-.812,1.644,1.644,0,0,0,.347-1.049c.1-.985.1-13.855,0-13.755-.046.055-1.633,3.685-3.521,8.072s-3.484,8.017-3.53,8.072-.128.055-.219,0c-.073-.055-1.678-3.74-3.557-8.2s-3.43-8.127-3.457-8.154-.036,3.265-.027,7.333c.027,6.978.036,7.4.2,7.717.255.529.675.739,1.578.784l.757.046v.52H21v-.547h.62a1.975,1.975,0,0,0,1.706-.748c.173-.292.182-.511.21-7.37.018-3.886,0-7.279-.027-7.543-.119-.948-.675-1.4-1.842-1.468-.629-.037-.666-.055-.666-.255V-683h7.434l2.408,5.865c1.323,3.22,2.435,5.883,2.463,5.92s1.195-2.591,2.581-5.838l2.517-5.9,3.749-.027L45.9-683Z" transform="translate(843.502 2612.413)" fill="#b25ddc"/>
    <path id="Tracé_853" data-name="Tracé 853" d="M19.687-1141.526c.137.255,1.432,3.129,4.761,10.563,2.1,4.688,2.654,5.8,3.165,6.376a2.649,2.649,0,0,0,1.4.866c.21.046.283.119.3.31l.027.246h-6.12v-.228c0-.246.055-.264.9-.365,1.04-.119,1.469-.52,1.469-1.377a5.375,5.375,0,0,0-.7-2.253l-.429-.976-3.192.018-3.192.027-.684,1.6c-1.085,2.554-1,2.91.711,3.065.6.055.648.082.648.274v.219H9.9v-.228c0-.173.064-.237.246-.283a2.234,2.234,0,0,0,1.733-1.35c.192-.3,1.943-4.187,3.9-8.62s3.6-8.081,3.667-8.1S19.614-1141.672,19.687-1141.526Zm.164,9.13c-.711,1.623-1.286,2.973-1.286,2.992s1.213.036,2.691.036,2.691-.027,2.691-.064c0-.182-2.691-6.038-2.745-5.984C21.165-1135.378,20.554-1134.01,19.851-1132.4Z" transform="translate(831.608 3070.729)" fill="#7ab7f3"/>
    <path id="Tracé_854" data-name="Tracé 854" d="M30.278-921.818a9.56,9.56,0,0,1,5.254,2.891,9.018,9.018,0,0,1,2.609,6.011,8.678,8.678,0,0,1-3.8,7.99,12.282,12.282,0,0,1-3.192,1.523,17.289,17.289,0,0,1-7.087.009,23.694,23.694,0,0,1-3.347-.994l-.4-.182-.036-2.444c-.027-2.253-.046-2.472-.21-2.755a1.534,1.534,0,0,0-1.313-.766c-.62-.1-.657-.119-.629-.338l.027-.228h8.848l.027.246c.027.255.027.255-.5.255a2.365,2.365,0,0,0-1,.219c-.8.374-.8.356-.83,3.256l-.027,2.536.62.182c3.275.976,6.075-.155,7.2-2.919a16.613,16.613,0,0,0-.027-10.188,5.133,5.133,0,0,0-5.318-3.457,5.86,5.86,0,0,0-2.855.83,8.1,8.1,0,0,0-3.22,3.849c-.237.611-.292.675-.52.675h-.246V-922h.246c.219.009.292.082.474.465a1.229,1.229,0,0,0,1.031.812,11.523,11.523,0,0,0,1.642-.5,16.136,16.136,0,0,1,2.153-.639A16.1,16.1,0,0,1,30.278-921.818Z" transform="translate(799.793 2850.596)" fill="url(#linear-gradient)"/>
    <g transform="matrix(1, 0, 0, 1, 797.9, 1900)" filter="url(#Tracé_856)">
      <path id="Tracé_856-2" data-name="Tracé 856" d="M12.778-8.959c3.118.713,5.2,7.067,5.2,12.042s-2.793,8.271-7.328,8.271S2.96,7.343,2.96,2.367c.429-2.743.736-3.579,1.753-4.9A19.105,19.105,0,0,1,8.392-6.083C10.408-7.69,11.123-8.678,12.778-8.959Z" transform="translate(89.31 14.96)" fill="url(#linear-gradient-2)"/>
    </g>
  </g>
</svg>
