<svg xmlns="http://www.w3.org/2000/svg" width="80.033" height="72.049" viewBox="0 0 80.033 72.049">
  <g id="Groupe_419" data-name="Groupe 419" transform="translate(-16117.302 -11396.572)">
    <g id="Groupe_417" data-name="Groupe 417" transform="translate(-150 621.027)">
      <path id="Tracé_665" data-name="Tracé 665" d="M5.221,1.211A4.241,4.241,0,0,1,8.082,2.382c1.382,1.03,2.571,2.057,2.571,3.973,0,2.046-1.394,3.629-3.137,4.794a5.4,5.4,0,0,1-2.9,1.316A5.4,5.4,0,0,1-.944,8.252C-1.22,6.2-1.17,4.237.252,2.792S3.145,1.211,5.221,1.211Z" transform="translate(16276.292 10816.459) rotate(41)" fill="#eec66c"/>
      <path id="Tracé_666" data-name="Tracé 666" d="M17.016,0c3.759,0,6.418,3.191,9.323,5.32,4.135,3.031,7.693,6.057,7.693,11.7,0,6.738-4.96,11.768-11.151,14.911C20.728,33.021,18.639,35,15.98,35c-5,0-10.308-1.969-13.285-5.842C.336,26.1,0,21.414,0,17.016,0,13.83,2.642,9.248,4.224,6.6,7.136,1.727,10.8,0,17.016,0Z" transform="translate(16291 10800.253)" fill="#eec66c"/>
      <path id="Tracé_667" data-name="Tracé 667" d="M10.148,0c2.242,0,3.828,1.9,5.56,3.173C18.175,4.981,20.3,6.785,20.3,10.148c0,4.019-2.958,7.018-6.651,8.893-1.283.653-2.529,1.833-4.115,1.833A10.091,10.091,0,0,1,1.607,17.39C.2,15.563,0,12.771,0,10.148c0-1.9,1.576-4.633,2.519-6.212C4.256,1.03,6.443,0,10.148,0Z" transform="translate(16332.983 10775.546) rotate(45)" fill="#eec66c"/>
      <path id="Tracé_668" data-name="Tracé 668" d="M4.836,0C5.9,0,6.661.907,7.486,1.512c1.175.861,2.187,1.722,2.187,3.324,0,1.915-1.41,3.345-3.17,4.238-.612.311-1.205.874-1.961.874A4.809,4.809,0,0,1,.766,8.288,5.782,5.782,0,0,1,0,4.836a7.26,7.26,0,0,1,1.2-2.96A3.667,3.667,0,0,1,4.836,0Z" transform="translate(16327.939 10835.253) rotate(17)" fill="#eec66c"/>
      <path id="Tracé_669" data-name="Tracé 669" d="M2.22,0c.491,0,.744.7,1.123.977.54.4,1.1.508,1.1,1.243A2.292,2.292,0,0,1,2.986,4.166c-.281.143-.553.4-.9.4A2.208,2.208,0,0,1,.352,3.8,2.654,2.654,0,0,1,0,2.22,3.333,3.333,0,0,1,.551.861,1.683,1.683,0,0,1,2.22,0Z" transform="matrix(0.891, -0.454, 0.454, 0.891, 16337.189, 10837.269)" fill="#eec66c"/>
      <path id="Tracé_670" data-name="Tracé 670" d="M2.176,0C2.656,0,3,.408,3.368.68a1.826,1.826,0,0,1,.984,1.5A2.246,2.246,0,0,1,2.925,4.082c-.275.14-.542.393-.882.393a2.163,2.163,0,0,1-1.7-.747A2.6,2.6,0,0,1,0,2.176,3.266,3.266,0,0,1,.54.844,1.65,1.65,0,0,1,2.176,0Z" transform="matrix(0.94, -0.342, 0.342, 0.94, 16277.705, 10814.75)" fill="#eec66c"/>
    </g>
    <path id="Tracé_681" data-name="Tracé 681" d="M2.973,0C3.63,0,4.095.558,4.6.93A2.5,2.5,0,0,1,5.946,2.973,3.07,3.07,0,0,1,4,5.578c-.376.191-.741.537-1.206.537A2.956,2.956,0,0,1,.471,5.095,3.554,3.554,0,0,1,0,2.973a4.463,4.463,0,0,1,.738-1.82A2.254,2.254,0,0,1,2.973,0Z" transform="matrix(0.891, 0.454, -0.454, 0.891, 16167.662, 11411.124)" fill="#eec66c"/>
  </g>
</svg>
