<svg xmlns="http://www.w3.org/2000/svg" width="63.168" height="85.561" viewBox="0 0 63.168 85.561">
  <g id="Groupe_416" data-name="Groupe 416" transform="translate(-16147.775 -10790.034)">
    <path id="Tracé_671" data-name="Tracé 671" d="M22,0c4.86,0,8.3,4.126,12.054,6.879C39.4,10.8,44,14.71,44,22c0,8.712-6.413,15.215-14.418,19.278C26.8,42.693,24.1,45.253,20.66,45.253c-6.464,0-13.327-2.546-17.176-7.553C.435,33.739,0,27.686,0,22,0,17.881,3.416,11.956,5.461,8.534,9.226,2.233,13.969,0,22,0Z" transform="translate(16148 10806.693)" fill="#fbf4e2"/>
    <path id="Tracé_672" data-name="Tracé 672" d="M8.969,0c1.981,0,3.383,1.682,4.914,2.8C16.062,4.4,17.937,6,17.937,8.969c0,3.551-2.614,6.2-5.878,7.859-1.134.577-2.235,1.62-3.637,1.62a8.918,8.918,0,0,1-7-3.079C.177,13.754,0,11.287,0,8.969,0,7.29,1.392,4.874,2.226,3.479,3.761.911,5.695,0,8.969,0Z" transform="translate(16198.26 10798.507) rotate(45)" fill="#fbf4e2"/>
    <path id="Tracé_673" data-name="Tracé 673" d="M4.836,0C5.9,0,6.661.907,7.486,1.512c1.175.861,2.187,1.722,2.187,3.324,0,1.915-1.41,3.345-3.17,4.238-.612.311-1.205.874-1.961.874A4.809,4.809,0,0,1,.766,8.288,5.782,5.782,0,0,1,0,4.836a7.26,7.26,0,0,1,1.2-2.96A3.667,3.667,0,0,1,4.836,0Z" transform="translate(16194.908 10863.253) rotate(17)" fill="#fbf4e2"/>
    <path id="Tracé_674" data-name="Tracé 674" d="M5.221,1.211A4.241,4.241,0,0,1,8.082,2.382c1.382,1.03,2.571,2.057,2.571,3.973,0,2.046-1.394,3.629-3.137,4.794a5.4,5.4,0,0,1-2.9,1.316A5.4,5.4,0,0,1-.944,8.252C-1.22,6.2.485,5.585,1.906,4.14S3.145,1.211,5.221,1.211Z" transform="matrix(0.454, 0.891, -0.891, 0.454, 16159.323, 10791.09)" fill="#fbf4e2"/>
    <path id="Tracé_675" data-name="Tracé 675" d="M2.176,0C2.656,0,3,.408,3.368.68a1.826,1.826,0,0,1,.984,1.5A2.246,2.246,0,0,1,2.925,4.082c-.275.14-.542.393-.882.393a2.163,2.163,0,0,1-1.7-.747A2.6,2.6,0,0,1,0,2.176,3.266,3.266,0,0,1,.54.844,1.65,1.65,0,0,1,2.176,0Z" transform="translate(16161.274 10790.034) rotate(2)" fill="#fbf4e2"/>
  </g>
</svg>
