<svg xmlns="http://www.w3.org/2000/svg" xmlns:xlink="http://www.w3.org/1999/xlink" width="464" height="265.118" viewBox="0 0 464 265.118">
  <defs>
    <filter id="Polygone_5" x="227.758" y="37.256" width="87.116" height="87.116" filterUnits="userSpaceOnUse">
      <feOffset input="SourceAlpha"/>
      <feGaussianBlur stdDeviation="10" result="blur"/>
      <feFlood flood-color="#fffbfc" flood-opacity="0.4"/>
      <feComposite operator="in" in2="blur"/>
      <feComposite in="SourceGraphic"/>
    </filter>
    <filter id="Polygone_6" x="284.229" y="93.727" width="73.098" height="73.098" filterUnits="userSpaceOnUse">
      <feOffset input="SourceAlpha"/>
      <feGaussianBlur stdDeviation="10" result="blur-2"/>
      <feFlood flood-color="#fffbfc" flood-opacity="0.4"/>
      <feComposite operator="in" in2="blur-2"/>
      <feComposite in="SourceGraphic"/>
    </filter>
    <filter id="Tracé_516" x="28.654" y="40.424" width="67.639" height="72.588" filterUnits="userSpaceOnUse">
      <feOffset input="SourceAlpha"/>
      <feGaussianBlur stdDeviation="10" result="blur-3"/>
      <feFlood flood-color="#fffbfc" flood-opacity="0.4"/>
      <feComposite operator="in" in2="blur-3"/>
      <feComposite in="SourceGraphic"/>
    </filter>
    <filter id="Tracé_517" x="109.84" y="104.655" width="65.197" height="68.27" filterUnits="userSpaceOnUse">
      <feOffset input="SourceAlpha"/>
      <feGaussianBlur stdDeviation="10" result="blur-4"/>
      <feFlood flood-color="#fffbfc" flood-opacity="0.4"/>
      <feComposite operator="in" in2="blur-4"/>
      <feComposite in="SourceGraphic"/>
    </filter>
    <filter id="Tracé_518" x="204.238" y="0" width="62.676" height="64.41" filterUnits="userSpaceOnUse">
      <feOffset input="SourceAlpha"/>
      <feGaussianBlur stdDeviation="10" result="blur-5"/>
      <feFlood flood-color="#fffbfc" flood-opacity="0.4"/>
      <feComposite operator="in" in2="blur-5"/>
      <feComposite in="SourceGraphic"/>
    </filter>
    <filter id="Tracé_519" x="137.713" y="28.264" width="62.676" height="64.41" filterUnits="userSpaceOnUse">
      <feOffset input="SourceAlpha"/>
      <feGaussianBlur stdDeviation="10" result="blur-6"/>
      <feFlood flood-color="#fffbfc" flood-opacity="0.4"/>
      <feComposite operator="in" in2="blur-6"/>
      <feComposite in="SourceGraphic"/>
    </filter>
    <filter id="Tracé_520" x="264.559" y="114.781" width="62.676" height="64.41" filterUnits="userSpaceOnUse">
      <feOffset input="SourceAlpha"/>
      <feGaussianBlur stdDeviation="10" result="blur-7"/>
      <feFlood flood-color="#fffbfc" flood-opacity="0.4"/>
      <feComposite operator="in" in2="blur-7"/>
      <feComposite in="SourceGraphic"/>
    </filter>
    <filter id="Tracé_521" x="197" y="102.373" width="62.676" height="64.41" filterUnits="userSpaceOnUse">
      <feOffset input="SourceAlpha"/>
      <feGaussianBlur stdDeviation="10" result="blur-8"/>
      <feFlood flood-color="#fffbfc" flood-opacity="0.4"/>
      <feComposite operator="in" in2="blur-8"/>
      <feComposite in="SourceGraphic"/>
    </filter>
    <filter id="Tracé_522" x="227.676" y="79.554" width="61.463" height="62.411" filterUnits="userSpaceOnUse">
      <feOffset input="SourceAlpha"/>
      <feGaussianBlur stdDeviation="10" result="blur-9"/>
      <feFlood flood-color="#fffbfc" flood-opacity="0.4"/>
      <feComposite operator="in" in2="blur-9"/>
      <feComposite in="SourceGraphic"/>
    </filter>
    <filter id="Tracé_523" x="208.029" y="75.142" width="62.676" height="64.41" filterUnits="userSpaceOnUse">
      <feOffset input="SourceAlpha"/>
      <feGaussianBlur stdDeviation="10" result="blur-10"/>
      <feFlood flood-color="#fffbfc" flood-opacity="0.4"/>
      <feComposite operator="in" in2="blur-10"/>
      <feComposite in="SourceGraphic"/>
    </filter>
    <filter id="Tracé_524" x="150.121" y="73.074" width="62.676" height="64.41" filterUnits="userSpaceOnUse">
      <feOffset input="SourceAlpha"/>
      <feGaussianBlur stdDeviation="10" result="blur-11"/>
      <feFlood flood-color="#fffbfc" flood-opacity="0.4"/>
      <feComposite operator="in" in2="blur-11"/>
      <feComposite in="SourceGraphic"/>
    </filter>
    <filter id="Tracé_525" x="173.398" y="92.731" width="61.546" height="62.461" filterUnits="userSpaceOnUse">
      <feOffset input="SourceAlpha"/>
      <feGaussianBlur stdDeviation="10" result="blur-12"/>
      <feFlood flood-color="#fffbfc" flood-opacity="0.4"/>
      <feComposite operator="in" in2="blur-12"/>
      <feComposite in="SourceGraphic"/>
    </filter>
    <filter id="Tracé_526" x="162.531" y="45.499" width="62.676" height="64.41" filterUnits="userSpaceOnUse">
      <feOffset input="SourceAlpha"/>
      <feGaussianBlur stdDeviation="10" result="blur-13"/>
      <feFlood flood-color="#fffbfc" flood-opacity="0.4"/>
      <feComposite operator="in" in2="blur-13"/>
      <feComposite in="SourceGraphic"/>
    </filter>
    <filter id="Tracé_527" x="186.205" y="123.669" width="61.546" height="62.461" filterUnits="userSpaceOnUse">
      <feOffset input="SourceAlpha"/>
      <feGaussianBlur stdDeviation="10" result="blur-14"/>
      <feFlood flood-color="#fffbfc" flood-opacity="0.4"/>
      <feComposite operator="in" in2="blur-14"/>
      <feComposite in="SourceGraphic"/>
    </filter>
    <filter id="Tracé_528" x="166.416" y="119.903" width="62.829" height="64.501" filterUnits="userSpaceOnUse">
      <feOffset input="SourceAlpha"/>
      <feGaussianBlur stdDeviation="10" result="blur-15"/>
      <feFlood flood-color="#fffbfc" flood-opacity="0.4"/>
      <feComposite operator="in" in2="blur-15"/>
      <feComposite in="SourceGraphic"/>
    </filter>
    <filter id="Tracé_529" x="108.471" y="119.858" width="62.829" height="64.501" filterUnits="userSpaceOnUse">
      <feOffset input="SourceAlpha"/>
      <feGaussianBlur stdDeviation="10" result="blur-16"/>
      <feFlood flood-color="#fffbfc" flood-opacity="0.4"/>
      <feComposite operator="in" in2="blur-16"/>
      <feComposite in="SourceGraphic"/>
    </filter>
    <filter id="Tracé_530" x="133.303" y="139.658" width="61.546" height="62.461" filterUnits="userSpaceOnUse">
      <feOffset input="SourceAlpha"/>
      <feGaussianBlur stdDeviation="10" result="blur-17"/>
      <feFlood flood-color="#fffbfc" flood-opacity="0.4"/>
      <feComposite operator="in" in2="blur-17"/>
      <feComposite in="SourceGraphic"/>
    </filter>
    <filter id="Tracé_531" x="382.098" y="57.563" width="62.676" height="64.41" filterUnits="userSpaceOnUse">
      <feOffset input="SourceAlpha"/>
      <feGaussianBlur stdDeviation="10" result="blur-18"/>
      <feFlood flood-color="#fffbfc" flood-opacity="0.4"/>
      <feComposite operator="in" in2="blur-18"/>
      <feComposite in="SourceGraphic"/>
    </filter>
    <filter id="Tracé_532" x="402.537" y="138.117" width="61.463" height="62.411" filterUnits="userSpaceOnUse">
      <feOffset input="SourceAlpha"/>
      <feGaussianBlur stdDeviation="10" result="blur-19"/>
      <feFlood flood-color="#fffbfc" flood-opacity="0.4"/>
      <feComposite operator="in" in2="blur-19"/>
      <feComposite in="SourceGraphic"/>
    </filter>
    <filter id="Tracé_533" x="385.889" y="132.705" width="62.676" height="64.41" filterUnits="userSpaceOnUse">
      <feOffset input="SourceAlpha"/>
      <feGaussianBlur stdDeviation="10" result="blur-20"/>
      <feFlood flood-color="#fffbfc" flood-opacity="0.4"/>
      <feComposite operator="in" in2="blur-20"/>
      <feComposite in="SourceGraphic"/>
    </filter>
    <filter id="Tracé_534" x="327.98" y="130.637" width="62.676" height="64.41" filterUnits="userSpaceOnUse">
      <feOffset input="SourceAlpha"/>
      <feGaussianBlur stdDeviation="10" result="blur-21"/>
      <feFlood flood-color="#fffbfc" flood-opacity="0.4"/>
      <feComposite operator="in" in2="blur-21"/>
      <feComposite in="SourceGraphic"/>
    </filter>
    <filter id="Tracé_535" x="352.109" y="151.25" width="61.463" height="62.411" filterUnits="userSpaceOnUse">
      <feOffset input="SourceAlpha"/>
      <feGaussianBlur stdDeviation="10" result="blur-22"/>
      <feFlood flood-color="#fffbfc" flood-opacity="0.4"/>
      <feComposite operator="in" in2="blur-22"/>
      <feComposite in="SourceGraphic"/>
    </filter>
    <filter id="Tracé_536" x="300.406" y="4.481" width="62.676" height="64.41" filterUnits="userSpaceOnUse">
      <feOffset input="SourceAlpha"/>
      <feGaussianBlur stdDeviation="10" result="blur-23"/>
      <feFlood flood-color="#fffbfc" flood-opacity="0.4"/>
      <feComposite operator="in" in2="blur-23"/>
      <feComposite in="SourceGraphic"/>
    </filter>
    <filter id="Tracé_537" x="312.814" y="49.291" width="62.676" height="64.41" filterUnits="userSpaceOnUse">
      <feOffset input="SourceAlpha"/>
      <feGaussianBlur stdDeviation="10" result="blur-24"/>
      <feFlood flood-color="#fffbfc" flood-opacity="0.4"/>
      <feComposite operator="in" in2="blur-24"/>
      <feComposite in="SourceGraphic"/>
    </filter>
    <filter id="Tracé_538" x="325.225" y="21.715" width="62.676" height="64.41" filterUnits="userSpaceOnUse">
      <feOffset input="SourceAlpha"/>
      <feGaussianBlur stdDeviation="10" result="blur-25"/>
      <feFlood flood-color="#fffbfc" flood-opacity="0.4"/>
      <feComposite operator="in" in2="blur-25"/>
      <feComposite in="SourceGraphic"/>
    </filter>
    <filter id="Tracé_587" x="1.367" y="76.978" width="65.197" height="68.27" filterUnits="userSpaceOnUse">
      <feOffset input="SourceAlpha"/>
      <feGaussianBlur stdDeviation="10" result="blur-26"/>
      <feFlood flood-color="#fffbfc" flood-opacity="0.4"/>
      <feComposite operator="in" in2="blur-26"/>
      <feComposite in="SourceGraphic"/>
    </filter>
    <filter id="Tracé_588" x="57.928" y="62.054" width="61.546" height="62.461" filterUnits="userSpaceOnUse">
      <feOffset input="SourceAlpha"/>
      <feGaussianBlur stdDeviation="10" result="blur-27"/>
      <feFlood flood-color="#fffbfc" flood-opacity="0.4"/>
      <feComposite operator="in" in2="blur-27"/>
      <feComposite in="SourceGraphic"/>
    </filter>
    <filter id="Tracé_589" x="70.734" y="92.992" width="61.546" height="62.461" filterUnits="userSpaceOnUse">
      <feOffset input="SourceAlpha"/>
      <feGaussianBlur stdDeviation="10" result="blur-28"/>
      <feFlood flood-color="#fffbfc" flood-opacity="0.4"/>
      <feComposite operator="in" in2="blur-28"/>
      <feComposite in="SourceGraphic"/>
    </filter>
    <filter id="Tracé_590" x="50.943" y="89.226" width="62.829" height="64.501" filterUnits="userSpaceOnUse">
      <feOffset input="SourceAlpha"/>
      <feGaussianBlur stdDeviation="10" result="blur-29"/>
      <feFlood flood-color="#fffbfc" flood-opacity="0.4"/>
      <feComposite operator="in" in2="blur-29"/>
      <feComposite in="SourceGraphic"/>
    </filter>
    <filter id="Tracé_591" x="0" y="92.18" width="62.829" height="64.501" filterUnits="userSpaceOnUse">
      <feOffset input="SourceAlpha"/>
      <feGaussianBlur stdDeviation="10" result="blur-30"/>
      <feFlood flood-color="#fffbfc" flood-opacity="0.4"/>
      <feComposite operator="in" in2="blur-30"/>
      <feComposite in="SourceGraphic"/>
    </filter>
    <filter id="Tracé_592" x="17.832" y="108.98" width="61.546" height="62.461" filterUnits="userSpaceOnUse">
      <feOffset input="SourceAlpha"/>
      <feGaussianBlur stdDeviation="10" result="blur-31"/>
      <feFlood flood-color="#fffbfc" flood-opacity="0.4"/>
      <feComposite operator="in" in2="blur-31"/>
      <feComposite in="SourceGraphic"/>
    </filter>
    <filter id="Tracé_596" x="315.84" y="167.655" width="65.197" height="68.27" filterUnits="userSpaceOnUse">
      <feOffset input="SourceAlpha"/>
      <feGaussianBlur stdDeviation="10" result="blur-32"/>
      <feFlood flood-color="#fffbfc" flood-opacity="0.4"/>
      <feComposite operator="in" in2="blur-32"/>
      <feComposite in="SourceGraphic"/>
    </filter>
    <filter id="Tracé_597" x="343.713" y="91.264" width="62.676" height="64.41" filterUnits="userSpaceOnUse">
      <feOffset input="SourceAlpha"/>
      <feGaussianBlur stdDeviation="10" result="blur-33"/>
      <feFlood flood-color="#fffbfc" flood-opacity="0.4"/>
      <feComposite operator="in" in2="blur-33"/>
      <feComposite in="SourceGraphic"/>
    </filter>
    <filter id="Tracé_598" x="356.121" y="136.074" width="62.676" height="64.41" filterUnits="userSpaceOnUse">
      <feOffset input="SourceAlpha"/>
      <feGaussianBlur stdDeviation="10" result="blur-34"/>
      <feFlood flood-color="#fffbfc" flood-opacity="0.4"/>
      <feComposite operator="in" in2="blur-34"/>
      <feComposite in="SourceGraphic"/>
    </filter>
    <filter id="Tracé_599" x="379.398" y="155.731" width="61.546" height="62.461" filterUnits="userSpaceOnUse">
      <feOffset input="SourceAlpha"/>
      <feGaussianBlur stdDeviation="10" result="blur-35"/>
      <feFlood flood-color="#fffbfc" flood-opacity="0.4"/>
      <feComposite operator="in" in2="blur-35"/>
      <feComposite in="SourceGraphic"/>
    </filter>
    <filter id="Tracé_600" x="368.531" y="108.499" width="62.676" height="64.41" filterUnits="userSpaceOnUse">
      <feOffset input="SourceAlpha"/>
      <feGaussianBlur stdDeviation="10" result="blur-36"/>
      <feFlood flood-color="#fffbfc" flood-opacity="0.4"/>
      <feComposite operator="in" in2="blur-36"/>
      <feComposite in="SourceGraphic"/>
    </filter>
    <filter id="Tracé_601" x="372.416" y="182.903" width="62.829" height="64.501" filterUnits="userSpaceOnUse">
      <feOffset input="SourceAlpha"/>
      <feGaussianBlur stdDeviation="10" result="blur-37"/>
      <feFlood flood-color="#fffbfc" flood-opacity="0.4"/>
      <feComposite operator="in" in2="blur-37"/>
      <feComposite in="SourceGraphic"/>
    </filter>
    <filter id="Tracé_602" x="314.471" y="182.858" width="62.829" height="64.501" filterUnits="userSpaceOnUse">
      <feOffset input="SourceAlpha"/>
      <feGaussianBlur stdDeviation="10" result="blur-38"/>
      <feFlood flood-color="#fffbfc" flood-opacity="0.4"/>
      <feComposite operator="in" in2="blur-38"/>
      <feComposite in="SourceGraphic"/>
    </filter>
    <filter id="Tracé_603" x="339.303" y="202.658" width="61.546" height="62.461" filterUnits="userSpaceOnUse">
      <feOffset input="SourceAlpha"/>
      <feGaussianBlur stdDeviation="10" result="blur-39"/>
      <feFlood flood-color="#fffbfc" flood-opacity="0.4"/>
      <feComposite operator="in" in2="blur-39"/>
      <feComposite in="SourceGraphic"/>
    </filter>
    <filter id="Tracé_604" x="170.559" y="192.781" width="62.676" height="64.41" filterUnits="userSpaceOnUse">
      <feOffset input="SourceAlpha"/>
      <feGaussianBlur stdDeviation="10" result="blur-40"/>
      <feFlood flood-color="#fffbfc" flood-opacity="0.4"/>
      <feComposite operator="in" in2="blur-40"/>
      <feComposite in="SourceGraphic"/>
    </filter>
    <filter id="Tracé_605" x="103" y="180.373" width="62.676" height="64.41" filterUnits="userSpaceOnUse">
      <feOffset input="SourceAlpha"/>
      <feGaussianBlur stdDeviation="10" result="blur-41"/>
      <feFlood flood-color="#fffbfc" flood-opacity="0.4"/>
      <feComposite operator="in" in2="blur-41"/>
      <feComposite in="SourceGraphic"/>
    </filter>
    <filter id="Tracé_606" x="56.121" y="151.074" width="62.676" height="64.41" filterUnits="userSpaceOnUse">
      <feOffset input="SourceAlpha"/>
      <feGaussianBlur stdDeviation="10" result="blur-42"/>
      <feFlood flood-color="#fffbfc" flood-opacity="0.4"/>
      <feComposite operator="in" in2="blur-42"/>
      <feComposite in="SourceGraphic"/>
    </filter>
    <filter id="Tracé_607" x="92.205" y="201.669" width="61.546" height="62.461" filterUnits="userSpaceOnUse">
      <feOffset input="SourceAlpha"/>
      <feGaussianBlur stdDeviation="10" result="blur-43"/>
      <feFlood flood-color="#fffbfc" flood-opacity="0.4"/>
      <feComposite operator="in" in2="blur-43"/>
      <feComposite in="SourceGraphic"/>
    </filter>
    <filter id="Tracé_608" x="72.416" y="197.903" width="62.829" height="64.501" filterUnits="userSpaceOnUse">
      <feOffset input="SourceAlpha"/>
      <feGaussianBlur stdDeviation="10" result="blur-44"/>
      <feFlood flood-color="#fffbfc" flood-opacity="0.4"/>
      <feComposite operator="in" in2="blur-44"/>
      <feComposite in="SourceGraphic"/>
    </filter>
    <filter id="Tracé_609" x="259.238" y="140" width="62.676" height="64.41" filterUnits="userSpaceOnUse">
      <feOffset input="SourceAlpha"/>
      <feGaussianBlur stdDeviation="10" result="blur-45"/>
      <feFlood flood-color="#fffbfc" flood-opacity="0.4"/>
      <feComposite operator="in" in2="blur-45"/>
      <feComposite in="SourceGraphic"/>
    </filter>
    <filter id="Tracé_610" x="192.713" y="168.264" width="62.676" height="64.41" filterUnits="userSpaceOnUse">
      <feOffset input="SourceAlpha"/>
      <feGaussianBlur stdDeviation="10" result="blur-46"/>
      <feFlood flood-color="#fffbfc" flood-opacity="0.4"/>
      <feComposite operator="in" in2="blur-46"/>
      <feComposite in="SourceGraphic"/>
    </filter>
    <filter id="Tracé_611" x="217.531" y="185.499" width="62.676" height="64.41" filterUnits="userSpaceOnUse">
      <feOffset input="SourceAlpha"/>
      <feGaussianBlur stdDeviation="10" result="blur-47"/>
      <feFlood flood-color="#fffbfc" flood-opacity="0.4"/>
      <feComposite operator="in" in2="blur-47"/>
      <feComposite in="SourceGraphic"/>
    </filter>
  </defs>
  <g id="Groupe_107" data-name="Groupe 107" transform="translate(23 -256.974)">
    <g transform="matrix(1, 0, 0, 1, -23, 256.97)" filter="url(#Polygone_5)">
      <path id="Polygone_5-2" data-name="Polygone 5" d="M8.96,5.692a2,2,0,0,1,3.795,0l.5,1.5A2,2,0,0,0,14.521,8.46l1.5.5a2,2,0,0,1,0,3.795l-1.5.5a2,2,0,0,0-1.265,1.265l-.5,1.5a2,2,0,0,1-3.795,0l-.5-1.5a2,2,0,0,0-1.265-1.265l-1.5-.5a2,2,0,0,1,0-3.795l1.5-.5A2,2,0,0,0,8.46,7.195Z" transform="translate(257.76 73.61) rotate(-17)" fill="#fffbfc"/>
    </g>
    <g transform="matrix(1, 0, 0, 1, -23, 256.97)" filter="url(#Polygone_6)">
      <path id="Polygone_6-2" data-name="Polygone 6" d="M5.146,4.21a1.479,1.479,0,0,1,2.807,0h0a1.479,1.479,0,0,0,.936.936h0a1.479,1.479,0,0,1,0,2.807h0a1.479,1.479,0,0,0-.936.936h0a1.479,1.479,0,0,1-2.807,0h0a1.479,1.479,0,0,0-.936-.936h0a1.479,1.479,0,0,1,0-2.807h0A1.479,1.479,0,0,0,5.146,4.21Z" transform="translate(314.23 123.73)" fill="#fffbfc"/>
    </g>
    <g transform="matrix(1, 0, 0, 1, -23, 256.97)" filter="url(#Tracé_516)">
      <path id="Tracé_516-2" data-name="Tracé 516" d="M3.819-18.678c.593.011,3.819,4.562,3.819,7.615S5.929-6.09,3.819-6.09,0-8.009,0-11.063,3.226-18.689,3.819-18.678Z" transform="translate(58.65 89.1)" fill="#fffbfc"/>
    </g>
    <g transform="matrix(1, 0, 0, 1, -23, 256.97)" filter="url(#Tracé_517)">
      <path id="Tracé_517-2" data-name="Tracé 517" d="M2.459,0c.382.007,2.459,2.937,2.459,4.9s-1.1,3.2-2.459,3.2S0,6.868,0,4.9,2.077-.007,2.459,0Z" transform="matrix(1, -0.03, 0.03, 1, 139.84, 134.83)" fill="#fffbfc"/>
    </g>
    <g transform="matrix(1, 0, 0, 1, -23, 256.97)" filter="url(#Tracé_518)">
      <path id="Tracé_518-2" data-name="Tracé 518" d="M1.338-18.678A4.4,4.4,0,0,1,2.676-16.01c0,1.07-.6,1.742-1.338,1.742S0-14.94,0-16.01A4.378,4.378,0,0,1,1.338-18.678Z" transform="translate(234.24 48.68)" fill="#fffbfc"/>
    </g>
    <g transform="matrix(1, 0, 0, 1, -23, 256.97)" filter="url(#Tracé_519)">
      <path id="Tracé_519-2" data-name="Tracé 519" d="M1.338-18.678A4.4,4.4,0,0,1,2.676-16.01c0,1.07-.6,1.742-1.338,1.742S0-14.94,0-16.01A4.378,4.378,0,0,1,1.338-18.678Z" transform="translate(167.71 76.94)" fill="#fffbfc"/>
    </g>
    <g transform="matrix(1, 0, 0, 1, -23, 256.97)" filter="url(#Tracé_520)">
      <path id="Tracé_520-2" data-name="Tracé 520" d="M1.338-18.678A4.4,4.4,0,0,1,2.676-16.01c0,1.07-.6,1.742-1.338,1.742S0-14.94,0-16.01A4.378,4.378,0,0,1,1.338-18.678Z" transform="translate(294.56 163.46)" fill="#fffbfc"/>
    </g>
    <g transform="matrix(1, 0, 0, 1, -23, 256.97)" filter="url(#Tracé_521)">
      <path id="Tracé_521-2" data-name="Tracé 521" d="M1.338-18.678A4.4,4.4,0,0,1,2.676-16.01c0,1.07-.6,1.742-1.338,1.742S0-14.94,0-16.01A4.378,4.378,0,0,1,1.338-18.678Z" transform="translate(227 151.05)" fill="#fffbfc"/>
    </g>
    <g transform="matrix(1, 0, 0, 1, -23, 256.97)" filter="url(#Tracé_522)">
      <path id="Tracé_522-2" data-name="Tracé 522" d="M.732-18.678a2.407,2.407,0,0,1,.732,1.459c0,.585-.328.952-.732.952S0-16.634,0-17.219A2.393,2.393,0,0,1,.732-18.678Z" transform="translate(257.68 128.23)" fill="#fffbfc"/>
    </g>
    <g transform="matrix(1, 0, 0, 1, -23, 256.97)" filter="url(#Tracé_523)">
      <path id="Tracé_523-2" data-name="Tracé 523" d="M1.338-18.678A4.4,4.4,0,0,1,2.676-16.01c0,1.07-.6,1.742-1.338,1.742S0-14.94,0-16.01A4.378,4.378,0,0,1,1.338-18.678Z" transform="translate(238.03 123.82)" fill="#fffbfc"/>
    </g>
    <g transform="matrix(1, 0, 0, 1, -23, 256.97)" filter="url(#Tracé_524)">
      <path id="Tracé_524-2" data-name="Tracé 524" d="M1.338-18.678A4.4,4.4,0,0,1,2.676-16.01c0,1.07-.6,1.742-1.338,1.742S0-14.94,0-16.01A4.378,4.378,0,0,1,1.338-18.678Z" transform="translate(180.12 121.75)" fill="#fffbfc"/>
    </g>
    <g transform="matrix(1, 0, 0, 1, -23, 256.97)" filter="url(#Tracé_525)">
      <path id="Tracé_525-2" data-name="Tracé 525" d="M.732,0a2.407,2.407,0,0,1,.732,1.459c0,.585-.328.952-.732.952S0,2.044,0,1.459A2.393,2.393,0,0,1,.732,0Z" transform="matrix(1, -0.03, 0.03, 1, 203.4, 122.78)" fill="#fffbfc"/>
    </g>
    <g transform="matrix(1, 0, 0, 1, -23, 256.97)" filter="url(#Tracé_526)">
      <path id="Tracé_526-2" data-name="Tracé 526" d="M1.338-18.678A4.4,4.4,0,0,1,2.676-16.01c0,1.07-.6,1.742-1.338,1.742S0-14.94,0-16.01A4.378,4.378,0,0,1,1.338-18.678Z" transform="translate(192.53 94.18)" fill="#fffbfc"/>
    </g>
    <g transform="matrix(1, 0, 0, 1, -23, 256.97)" filter="url(#Tracé_527)">
      <path id="Tracé_527-2" data-name="Tracé 527" d="M.732,0a2.407,2.407,0,0,1,.732,1.459c0,.585-.328.952-.732.952S0,2.044,0,1.459A2.393,2.393,0,0,1,.732,0Z" transform="matrix(1, -0.03, 0.03, 1, 216.21, 153.72)" fill="#fffbfc"/>
    </g>
    <g transform="matrix(1, 0, 0, 1, -23, 256.97)" filter="url(#Tracé_528)">
      <path id="Tracé_528-2" data-name="Tracé 528" d="M1.338,0A4.4,4.4,0,0,1,2.676,2.668c0,1.07-.6,1.742-1.338,1.742S0,3.738,0,2.668A4.378,4.378,0,0,1,1.338,0Z" transform="matrix(1, -0.03, 0.03, 1, 196.42, 150)" fill="#fffbfc"/>
    </g>
    <g transform="matrix(1, 0, 0, 1, -23, 256.97)" filter="url(#Tracé_529)">
      <path id="Tracé_529-2" data-name="Tracé 529" d="M1.338,0A4.4,4.4,0,0,1,2.676,2.668c0,1.07-.6,1.742-1.338,1.742S0,3.738,0,2.668A4.378,4.378,0,0,1,1.338,0Z" transform="matrix(1, -0.03, 0.03, 1, 138.47, 149.95)" fill="#fffbfc"/>
    </g>
    <g transform="matrix(1, 0, 0, 1, -23, 256.97)" filter="url(#Tracé_530)">
      <path id="Tracé_530-2" data-name="Tracé 530" d="M.732,0a2.407,2.407,0,0,1,.732,1.459c0,.585-.328.952-.732.952S0,2.044,0,1.459A2.393,2.393,0,0,1,.732,0Z" transform="matrix(1, -0.03, 0.03, 1, 163.3, 169.71)" fill="#fffbfc"/>
    </g>
    <g transform="matrix(1, 0, 0, 1, -23, 256.97)" filter="url(#Tracé_531)">
      <path id="Tracé_531-2" data-name="Tracé 531" d="M1.338-18.678A4.4,4.4,0,0,1,2.676-16.01c0,1.07-.6,1.742-1.338,1.742S0-14.94,0-16.01A4.378,4.378,0,0,1,1.338-18.678Z" transform="translate(412.1 106.24)" fill="#fffbfc"/>
    </g>
    <g transform="matrix(1, 0, 0, 1, -23, 256.97)" filter="url(#Tracé_532)">
      <path id="Tracé_532-2" data-name="Tracé 532" d="M.732-18.678a2.407,2.407,0,0,1,.732,1.459c0,.585-.328.952-.732.952S0-16.634,0-17.219A2.393,2.393,0,0,1,.732-18.678Z" transform="translate(432.54 186.8)" fill="#fffbfc"/>
    </g>
    <g transform="matrix(1, 0, 0, 1, -23, 256.97)" filter="url(#Tracé_533)">
      <path id="Tracé_533-2" data-name="Tracé 533" d="M1.338-18.678A4.4,4.4,0,0,1,2.676-16.01c0,1.07-.6,1.742-1.338,1.742S0-14.94,0-16.01A4.378,4.378,0,0,1,1.338-18.678Z" transform="translate(415.89 181.38)" fill="#fffbfc"/>
    </g>
    <g transform="matrix(1, 0, 0, 1, -23, 256.97)" filter="url(#Tracé_534)">
      <path id="Tracé_534-2" data-name="Tracé 534" d="M1.338-18.678A4.4,4.4,0,0,1,2.676-16.01c0,1.07-.6,1.742-1.338,1.742S0-14.94,0-16.01A4.378,4.378,0,0,1,1.338-18.678Z" transform="translate(357.98 179.32)" fill="#fffbfc"/>
    </g>
    <g transform="matrix(1, 0, 0, 1, -23, 256.97)" filter="url(#Tracé_535)">
      <path id="Tracé_535-2" data-name="Tracé 535" d="M.732-18.678a2.407,2.407,0,0,1,.732,1.459c0,.585-.328.952-.732.952S0-16.634,0-17.219A2.393,2.393,0,0,1,.732-18.678Z" transform="translate(382.11 199.93)" fill="#fffbfc"/>
    </g>
    <g transform="matrix(1, 0, 0, 1, -23, 256.97)" filter="url(#Tracé_536)">
      <path id="Tracé_536-2" data-name="Tracé 536" d="M1.338-18.678A4.4,4.4,0,0,1,2.676-16.01c0,1.07-.6,1.742-1.338,1.742S0-14.94,0-16.01A4.378,4.378,0,0,1,1.338-18.678Z" transform="translate(330.41 53.16)" fill="#fffbfc"/>
    </g>
    <g transform="matrix(1, 0, 0, 1, -23, 256.97)" filter="url(#Tracé_537)">
      <path id="Tracé_537-2" data-name="Tracé 537" d="M1.338-18.678A4.4,4.4,0,0,1,2.676-16.01c0,1.07-.6,1.742-1.338,1.742S0-14.94,0-16.01A4.378,4.378,0,0,1,1.338-18.678Z" transform="translate(342.81 97.97)" fill="#fffbfc"/>
    </g>
    <g transform="matrix(1, 0, 0, 1, -23, 256.97)" filter="url(#Tracé_538)">
      <path id="Tracé_538-2" data-name="Tracé 538" d="M1.338-18.678A4.4,4.4,0,0,1,2.676-16.01c0,1.07-.6,1.742-1.338,1.742S0-14.94,0-16.01A4.378,4.378,0,0,1,1.338-18.678Z" transform="translate(355.22 70.39)" fill="#fffbfc"/>
    </g>
    <g transform="matrix(1, 0, 0, 1, -23, 256.97)" filter="url(#Tracé_587)">
      <path id="Tracé_587-2" data-name="Tracé 587" d="M2.459,0c.382.007,2.459,2.937,2.459,4.9s-1.1,3.2-2.459,3.2S0,6.868,0,4.9,2.077-.007,2.459,0Z" transform="matrix(1, -0.03, 0.03, 1, 31.37, 107.15)" fill="#fffbfc"/>
    </g>
    <g transform="matrix(1, 0, 0, 1, -23, 256.97)" filter="url(#Tracé_588)">
      <path id="Tracé_588-2" data-name="Tracé 588" d="M.732,0a2.407,2.407,0,0,1,.732,1.459c0,.585-.328.952-.732.952S0,2.044,0,1.459A2.393,2.393,0,0,1,.732,0Z" transform="matrix(1, -0.03, 0.03, 1, 87.93, 92.1)" fill="#fffbfc"/>
    </g>
    <g transform="matrix(1, 0, 0, 1, -23, 256.97)" filter="url(#Tracé_589)">
      <path id="Tracé_589-2" data-name="Tracé 589" d="M.732,0a2.407,2.407,0,0,1,.732,1.459c0,.585-.328.952-.732.952S0,2.044,0,1.459A2.393,2.393,0,0,1,.732,0Z" transform="matrix(1, -0.03, 0.03, 1, 100.73, 123.04)" fill="#fffbfc"/>
    </g>
    <g transform="matrix(1, 0, 0, 1, -23, 256.97)" filter="url(#Tracé_590)">
      <path id="Tracé_590-2" data-name="Tracé 590" d="M1.338,0A4.4,4.4,0,0,1,2.676,2.668c0,1.07-.6,1.742-1.338,1.742S0,3.738,0,2.668A4.378,4.378,0,0,1,1.338,0Z" transform="matrix(1, -0.03, 0.03, 1, 80.94, 119.32)" fill="#fffbfc"/>
    </g>
    <g transform="matrix(1, 0, 0, 1, -23, 256.97)" filter="url(#Tracé_591)">
      <path id="Tracé_591-2" data-name="Tracé 591" d="M1.338,0A4.4,4.4,0,0,1,2.676,2.668c0,1.07-.6,1.742-1.338,1.742S0,3.738,0,2.668A4.378,4.378,0,0,1,1.338,0Z" transform="matrix(1, -0.03, 0.03, 1, 30, 122.27)" fill="#fffbfc"/>
    </g>
    <g transform="matrix(1, 0, 0, 1, -23, 256.97)" filter="url(#Tracé_592)">
      <path id="Tracé_592-2" data-name="Tracé 592" d="M.732,0a2.407,2.407,0,0,1,.732,1.459c0,.585-.328.952-.732.952S0,2.044,0,1.459A2.393,2.393,0,0,1,.732,0Z" transform="matrix(1, -0.03, 0.03, 1, 47.83, 139.03)" fill="#fffbfc"/>
    </g>
    <g transform="matrix(1, 0, 0, 1, -23, 256.97)" filter="url(#Tracé_596)">
      <path id="Tracé_596-2" data-name="Tracé 596" d="M2.459,0c.382.007,2.459,2.937,2.459,4.9s-1.1,3.2-2.459,3.2S0,6.868,0,4.9,2.077-.007,2.459,0Z" transform="matrix(1, -0.03, 0.03, 1, 345.84, 197.83)" fill="#fffbfc"/>
    </g>
    <g transform="matrix(1, 0, 0, 1, -23, 256.97)" filter="url(#Tracé_597)">
      <path id="Tracé_597-2" data-name="Tracé 597" d="M1.338-18.678A4.4,4.4,0,0,1,2.676-16.01c0,1.07-.6,1.742-1.338,1.742S0-14.94,0-16.01A4.378,4.378,0,0,1,1.338-18.678Z" transform="translate(373.71 139.94)" fill="#fffbfc"/>
    </g>
    <g transform="matrix(1, 0, 0, 1, -23, 256.97)" filter="url(#Tracé_598)">
      <path id="Tracé_598-2" data-name="Tracé 598" d="M1.338-18.678A4.4,4.4,0,0,1,2.676-16.01c0,1.07-.6,1.742-1.338,1.742S0-14.94,0-16.01A4.378,4.378,0,0,1,1.338-18.678Z" transform="translate(386.12 184.75)" fill="#fffbfc"/>
    </g>
    <g transform="matrix(1, 0, 0, 1, -23, 256.97)" filter="url(#Tracé_599)">
      <path id="Tracé_599-2" data-name="Tracé 599" d="M.732,0a2.407,2.407,0,0,1,.732,1.459c0,.585-.328.952-.732.952S0,2.044,0,1.459A2.393,2.393,0,0,1,.732,0Z" transform="matrix(1, -0.03, 0.03, 1, 409.4, 185.78)" fill="#fffbfc"/>
    </g>
    <g transform="matrix(1, 0, 0, 1, -23, 256.97)" filter="url(#Tracé_600)">
      <path id="Tracé_600-2" data-name="Tracé 600" d="M1.338-18.678A4.4,4.4,0,0,1,2.676-16.01c0,1.07-.6,1.742-1.338,1.742S0-14.94,0-16.01A4.378,4.378,0,0,1,1.338-18.678Z" transform="translate(398.53 157.18)" fill="#fffbfc"/>
    </g>
    <g transform="matrix(1, 0, 0, 1, -23, 256.97)" filter="url(#Tracé_601)">
      <path id="Tracé_601-2" data-name="Tracé 601" d="M1.338,0A4.4,4.4,0,0,1,2.676,2.668c0,1.07-.6,1.742-1.338,1.742S0,3.738,0,2.668A4.378,4.378,0,0,1,1.338,0Z" transform="matrix(1, -0.03, 0.03, 1, 402.42, 213)" fill="#fffbfc"/>
    </g>
    <g transform="matrix(1, 0, 0, 1, -23, 256.97)" filter="url(#Tracé_602)">
      <path id="Tracé_602-2" data-name="Tracé 602" d="M1.338,0A4.4,4.4,0,0,1,2.676,2.668c0,1.07-.6,1.742-1.338,1.742S0,3.738,0,2.668A4.378,4.378,0,0,1,1.338,0Z" transform="matrix(1, -0.03, 0.03, 1, 344.47, 212.95)" fill="#fffbfc"/>
    </g>
    <g transform="matrix(1, 0, 0, 1, -23, 256.97)" filter="url(#Tracé_603)">
      <path id="Tracé_603-2" data-name="Tracé 603" d="M.732,0a2.407,2.407,0,0,1,.732,1.459c0,.585-.328.952-.732.952S0,2.044,0,1.459A2.393,2.393,0,0,1,.732,0Z" transform="matrix(1, -0.03, 0.03, 1, 369.3, 232.71)" fill="#fffbfc"/>
    </g>
    <g transform="matrix(1, 0, 0, 1, -23, 256.97)" filter="url(#Tracé_604)">
      <path id="Tracé_604-2" data-name="Tracé 604" d="M1.338-18.678A4.4,4.4,0,0,1,2.676-16.01c0,1.07-.6,1.742-1.338,1.742S0-14.94,0-16.01A4.378,4.378,0,0,1,1.338-18.678Z" transform="translate(200.56 241.46)" fill="#fffbfc"/>
    </g>
    <g transform="matrix(1, 0, 0, 1, -23, 256.97)" filter="url(#Tracé_605)">
      <path id="Tracé_605-2" data-name="Tracé 605" d="M1.338-18.678A4.4,4.4,0,0,1,2.676-16.01c0,1.07-.6,1.742-1.338,1.742S0-14.94,0-16.01A4.378,4.378,0,0,1,1.338-18.678Z" transform="translate(133 229.05)" fill="#fffbfc"/>
    </g>
    <g transform="matrix(1, 0, 0, 1, -23, 256.97)" filter="url(#Tracé_606)">
      <path id="Tracé_606-2" data-name="Tracé 606" d="M1.338-18.678A4.4,4.4,0,0,1,2.676-16.01c0,1.07-.6,1.742-1.338,1.742S0-14.94,0-16.01A4.378,4.378,0,0,1,1.338-18.678Z" transform="translate(86.12 199.75)" fill="#fffbfc"/>
    </g>
    <g transform="matrix(1, 0, 0, 1, -23, 256.97)" filter="url(#Tracé_607)">
      <path id="Tracé_607-2" data-name="Tracé 607" d="M.732,0a2.407,2.407,0,0,1,.732,1.459c0,.585-.328.952-.732.952S0,2.044,0,1.459A2.393,2.393,0,0,1,.732,0Z" transform="matrix(1, -0.03, 0.03, 1, 122.21, 231.72)" fill="#fffbfc"/>
    </g>
    <g transform="matrix(1, 0, 0, 1, -23, 256.97)" filter="url(#Tracé_608)">
      <path id="Tracé_608-2" data-name="Tracé 608" d="M1.338,0A4.4,4.4,0,0,1,2.676,2.668c0,1.07-.6,1.742-1.338,1.742S0,3.738,0,2.668A4.378,4.378,0,0,1,1.338,0Z" transform="matrix(1, -0.03, 0.03, 1, 102.42, 228)" fill="#fffbfc"/>
    </g>
    <g transform="matrix(1, 0, 0, 1, -23, 256.97)" filter="url(#Tracé_609)">
      <path id="Tracé_609-2" data-name="Tracé 609" d="M1.338-18.678A4.4,4.4,0,0,1,2.676-16.01c0,1.07-.6,1.742-1.338,1.742S0-14.94,0-16.01A4.378,4.378,0,0,1,1.338-18.678Z" transform="translate(289.24 188.68)" fill="#fffbfc"/>
    </g>
    <g transform="matrix(1, 0, 0, 1, -23, 256.97)" filter="url(#Tracé_610)">
      <path id="Tracé_610-2" data-name="Tracé 610" d="M1.338-18.678A4.4,4.4,0,0,1,2.676-16.01c0,1.07-.6,1.742-1.338,1.742S0-14.94,0-16.01A4.378,4.378,0,0,1,1.338-18.678Z" transform="translate(222.71 216.94)" fill="#fffbfc"/>
    </g>
    <g transform="matrix(1, 0, 0, 1, -23, 256.97)" filter="url(#Tracé_611)">
      <path id="Tracé_611-2" data-name="Tracé 611" d="M1.338-18.678A4.4,4.4,0,0,1,2.676-16.01c0,1.07-.6,1.742-1.338,1.742S0-14.94,0-16.01A4.378,4.378,0,0,1,1.338-18.678Z" transform="translate(247.53 234.18)" fill="#fffbfc"/>
    </g>
  </g>
</svg>
