<svg xmlns="http://www.w3.org/2000/svg" xmlns:xlink="http://www.w3.org/1999/xlink" width="175.068" height="149.671" viewBox="0 0 175.068 149.671">
  <defs>
    <radialGradient id="radial-gradient" cx="0.5" cy="0.5" r="0.5" gradientUnits="objectBoundingBox">
      <stop offset="0" stop-color="#bc5959"/>
      <stop offset="0.883" stop-color="#71201e"/>
      <stop offset="1" stop-color="#64100e"/>
    </radialGradient>
    <radialGradient id="radial-gradient-2" cx="0.5" cy="0.5" r="0.5" gradientUnits="objectBoundingBox">
      <stop offset="0" stop-color="red"/>
      <stop offset="0.883" stop-color="#71201e" stop-opacity="0"/>
      <stop offset="1" stop-color="#64100e" stop-opacity="0"/>
    </radialGradient>
    <radialGradient id="radial-gradient-3" cx="0.5" cy="0.5" r="0.5" gradientUnits="objectBoundingBox">
      <stop offset="0" stop-color="#8a6666"/>
      <stop offset="0.883" stop-color="#71201e" stop-opacity="0"/>
      <stop offset="1" stop-color="#64100e" stop-opacity="0"/>
    </radialGradient>
    <radialGradient id="radial-gradient-4" cx="0.5" cy="0.5" r="0.5" gradientUnits="objectBoundingBox">
      <stop offset="0" stop-color="#431313"/>
      <stop offset="0.883" stop-color="#71201e" stop-opacity="0"/>
      <stop offset="1" stop-color="#64100e" stop-opacity="0"/>
    </radialGradient>
    <radialGradient id="radial-gradient-5" cx="0.5" cy="0.5" r="0.5" gradientUnits="objectBoundingBox">
      <stop offset="0" stop-color="#580909"/>
      <stop offset="0.883" stop-color="#71201e" stop-opacity="0"/>
      <stop offset="1" stop-color="#64100e" stop-opacity="0"/>
    </radialGradient>
    <linearGradient id="linear-gradient" x1="0.5" x2="0.5" y2="1" gradientUnits="objectBoundingBox">
      <stop offset="0" stop-color="#9c9895"/>
      <stop offset="1" stop-color="#5a504a"/>
    </linearGradient>
    <filter id="Tracé_891" x="7.586" y="0" width="167.482" height="140.816" filterUnits="userSpaceOnUse">
      <feOffset dx="2" dy="2" input="SourceAlpha"/>
      <feGaussianBlur stdDeviation="3" result="blur"/>
      <feFlood flood-opacity="0.161"/>
      <feComposite operator="in" in2="blur"/>
      <feComposite in="SourceGraphic"/>
    </filter>
    <linearGradient id="linear-gradient-2" x1="0.624" y1="0.07" x2="0.255" y2="0.887" gradientUnits="objectBoundingBox">
      <stop offset="0" stop-color="#524031"/>
      <stop offset="1" stop-color="#100d0a"/>
    </linearGradient>
  </defs>
  <g id="Groupe_577" data-name="Groupe 577" transform="translate(-174.971 -4613.124)">
    <path id="Tracé_889" data-name="Tracé 889" d="M17489.523,15538.616l-66.7-1.3s-10.037.972-20.885-29.466,4.7-46.79,13.6-55.532,22.828-16.189,39.18-15.7,22.99,2.914,34.809,11.171,19.428,17.647,21.209,30.438,5.02,19.752-2.59,34.971A98.193,98.193,0,0,1,17489.523,15538.616Z" transform="translate(-17191.297 -10797.068)" fill="url(#radial-gradient)"/>
    <path id="Tracé_893" data-name="Tracé 893" d="M17482.713,15514.311l-66.7-1.3s-3.227,25.277-14.074-5.16,4.7-46.79,13.6-55.532,22.828-16.189,39.18-15.7,22.99,2.914,34.809,11.171,19.428,17.647,21.209,30.438,5.02,19.752-2.59,34.971S17482.713,15514.311,17482.713,15514.311Z" transform="translate(-17186.596 -10760.068)" opacity="0.38" fill="url(#radial-gradient-2)"/>
    <path id="Tracé_894" data-name="Tracé 894" d="M17459.7,15505.292l-44.914-.872s-6.76.654-14.064-19.842,3.162-31.506,9.158-37.393a36.587,36.587,0,0,1,26.383-10.575c11.008.327,15.48,1.963,23.438,7.522s13.082,11.883,14.281,20.5,3.379,13.3-1.744,23.548A66.1,66.1,0,0,1,17459.7,15505.292Z" transform="translate(-17223.258 -10786.943)" opacity="0.38" fill="url(#radial-gradient-3)"/>
    <path id="Tracé_895" data-name="Tracé 895" d="M17440.113,15483.4l-30.6-.595s-4.605.446-9.582-13.519,2.154-21.467,6.238-25.478a24.932,24.932,0,0,1,17.977-7.205c7.5.223,10.547,1.337,15.969,5.126s8.914,8.1,9.73,13.964,2.3,9.062-1.187,16.044A45.069,45.069,0,0,1,17440.113,15483.4Z" transform="translate(-17184.629 -10806.875)" opacity="0.38" fill="url(#radial-gradient-4)"/>
    <path id="Tracé_896" data-name="Tracé 896" d="M17449.9,15495.7l-37.75-.751s-5.684.563-11.82-17.071,2.656-27.108,7.7-32.173a30.394,30.394,0,0,1,22.176-9.1c9.254.281,13.012,1.688,19.7,6.473s11,10.224,12,17.634,2.844,11.443-1.465,20.261A56.739,56.739,0,0,1,17449.9,15495.7Z" transform="translate(-17124.729 -10796.596)" opacity="0.38" fill="url(#radial-gradient-5)"/>
    <path id="Tracé_892" data-name="Tracé 892" d="M1,0-.025,101.193" transform="translate(268.5 4639.94)" fill="none" stroke="#1f2d3b" stroke-width="1"/>
    <g id="Rectangle_134" data-name="Rectangle 134" transform="translate(268 4640)" fill="#1f2d3b" stroke="#1f2d3b" stroke-width="1">
      <rect width="1" height="101" stroke="none"/>
      <rect x="0.5" y="0.5" height="100" fill="none"/>
    </g>
    <path id="Tracé_890" data-name="Tracé 890" d="M17423.027,15536.994s-15.785-12-21.047-30.939,5.051-41.042,5.051-41.042,10.523-18.732,25.889-23.362,24.2-6.944,37.885-2.735,22.732,10.524,28.625,18.521,11.576,17.68,11.576,30.729,0,18.942-4.631,26.94-6.945,11.365-6.945,11.365l-10.1,12.207,2.736,1.263s9.682-9.892,14.313-18.311,9.137-15.752,9.395-30.171-3.082-20.133-10.869-31.708-17.467-16.837-25.887-20.836-27.152-6.945-39.99-2.736-18.939,6.945-25.887,14.522-16.512,17.815-17.984,28.971-2.5,16.1,1.047,29.316c3.367,8,4.314,12.545,8.734,18.018s13.885,11.672,13.885,11.672Z" transform="translate(-17191.582 -10797)" fill="#7f6e66" stroke="#707070" stroke-width="1"/>
    <g transform="matrix(1, 0, 0, 1, 174.97, 4613.12)" filter="url(#Tracé_891)">
      <path id="Tracé_891-2" data-name="Tracé 891" d="M17492.268,15539.94h21.047s9.26-12.211,11.365-18.1,8.211-15.786,5.053-42.095-24.836-46.725-35.359-51.565-25.045-14.942-53.67-9.471-40.621,22.1-47.777,32.2a67.689,67.689,0,0,0-11.787,36.832c0,12.418-.209,26.939,9.262,41.252s7.156,9.893,7.156,9.893h21.047s-11.787-9.682-14.523-14.943-13.68-29.887-5.051-50.724,21.256-31.15,33.885-35.359,31.15-6.1,46.936,1.263,27.152,19.153,31.361,32.834,5.684,23.573,0,38.938S17492.268,15539.94,17492.268,15539.94Z" transform="translate(-17366.55 -15410.12)" fill="url(#linear-gradient)"/>
    </g>
    <g id="Ellipse_74" data-name="Ellipse 74" transform="translate(252 4684)" stroke="#2d231b" stroke-width="1" fill="url(#linear-gradient-2)">
      <circle cx="6" cy="6" r="6" stroke="none"/>
      <circle cx="6" cy="6" r="5.5" fill="none"/>
    </g>
    <g id="Ellipse_75" data-name="Ellipse 75" transform="translate(274 4684)" stroke="#2d231b" stroke-width="1" fill="url(#linear-gradient-2)">
      <circle cx="6" cy="6" r="6" stroke="none"/>
      <circle cx="6" cy="6" r="5.5" fill="none"/>
    </g>
    <g id="Groupe_576" data-name="Groupe 576" transform="translate(163 147)">
      <g id="Ellipse_73" data-name="Ellipse 73" transform="translate(90 4545)" fill="none" stroke="#433428" stroke-width="1">
        <circle cx="5" cy="5" r="5" stroke="none"/>
        <circle cx="5" cy="5" r="4.5" fill="none"/>
      </g>
      <g id="Ellipse_70" data-name="Ellipse 70" transform="translate(89 4537)" stroke="#2d231b" stroke-width="1" fill="url(#linear-gradient-2)">
        <circle cx="6" cy="6" r="6" stroke="none"/>
        <circle cx="6" cy="6" r="5.5" fill="none"/>
      </g>
    </g>
  </g>
</svg>
