<svg xmlns="http://www.w3.org/2000/svg" xmlns:xlink="http://www.w3.org/1999/xlink" width="439.077" height="437.284" viewBox="0 0 439.077 437.284">
  <defs>
    <radialGradient id="radial-gradient" cx="0.57" cy="0.5" r="0.53" gradientUnits="objectBoundingBox">
      <stop offset="0" stop-color="#2a3a4a"/>
      <stop offset="0.552" stop-color="#2b3b4a"/>
      <stop offset="1" stop-color="#1f2d3b"/>
    </radialGradient>
    <radialGradient id="radial-gradient-2" cx="0.358" cy="0.5" r="0.629" gradientUnits="objectBoundingBox">
      <stop offset="0" stop-color="#f9f4e7"/>
      <stop offset="0.207" stop-color="#f8f1e0"/>
      <stop offset="0.569" stop-color="#faefd0"/>
      <stop offset="0.82" stop-color="#f8ebc7" stop-opacity="0.502"/>
      <stop offset="1" stop-color="#faefd0" stop-opacity="0"/>
    </radialGradient>
    <filter id="Tracé_804" x="0" y="0" width="439.077" height="437.284" filterUnits="userSpaceOnUse">
      <feOffset input="SourceAlpha"/>
      <feGaussianBlur stdDeviation="10" result="blur"/>
      <feFlood flood-color="#fdf7e6" flood-opacity="0.6"/>
      <feComposite operator="in" in2="blur"/>
      <feComposite in="SourceGraphic"/>
    </filter>
    <radialGradient id="radial-gradient-3" cx="0.5" cy="0.5" r="0.5" gradientTransform="matrix(-1, 0, 0, 1, 1, 0)" gradientUnits="objectBoundingBox">
      <stop offset="0" stop-color="#fff"/>
      <stop offset="0.372" stop-color="#fcfcfb"/>
      <stop offset="1" stop-color="#f8f7f4" stop-opacity="0"/>
    </radialGradient>
  </defs>
  <g id="Groupe_567" data-name="Groupe 567" transform="translate(-121.562 -3831.987)">
    <g id="moon" transform="translate(162.832 3874.742)">
      <path id="Tracé_803" data-name="Tracé 803" d="M146.5,0A146.5,146.5,0,1,1,0,146.5,146.5,146.5,0,0,1,146.5,0Z" transform="translate(-11.271 89.198) rotate(-20)" fill="url(#radial-gradient)"/>
      <g transform="matrix(1, 0, 0, 1, -41.27, -42.76)" filter="url(#Tracé_804)">
        <path id="Tracé_804-2" data-name="Tracé 804" d="M146.5,0c35.958-2.718,77.1,16.752,106.089,46.014,27.7,27.956,43.969,64.935,43.969,100.828,0,73.25-77.749,152-150.058,146.158a146.5,146.5,0,0,1,0-293Z" transform="translate(30.09 131.67) rotate(-20)" fill="url(#radial-gradient-2)"/>
      </g>
      <g id="Groupe_547" data-name="Groupe 547" transform="translate(61.742 216.298)">
        <path id="Tracé_262" data-name="Tracé 262" d="M2.571,0A10.431,10.431,0,0,1,4.1,1.3C5.761,2.912,6.64,3.378,6.64,4.91A9.647,9.647,0,0,1,5,9.324,3.9,3.9,0,0,1,2.224,10.39C.985,10.148,0,7.556,0,5.289S.288.134,2.571,0Z" transform="translate(54.811 38.274) rotate(71)" fill="rgba(185,64,62,0.8)"/>
        <path id="Tracé_263" data-name="Tracé 263" d="M1.323,0a5.367,5.367,0,0,1,.786.669c.855.829,1.307,1.069,1.307,1.858A4.964,4.964,0,0,1,2.574,4.8a2.008,2.008,0,0,1-1.429.549C.507,5.222,0,3.888,0,2.721S.148.069,1.323,0Z" transform="translate(42.759 82.332) rotate(-23.003)" fill="rgba(185,64,62,0.8)"/>
        <path id="Tracé_265" data-name="Tracé 265" d="M2.571,0A10.431,10.431,0,0,1,4.1,1.3C5.761,2.912,6.64,3.378,6.64,4.91A9.647,9.647,0,0,1,5,9.324,3.9,3.9,0,0,1,2.224,10.39C.985,10.148,0,7.556,0,5.289S.288.134,2.571,0Z" transform="matrix(0.766, 0.643, -0.643, 0.766, 78.864, 0)" fill="rgba(185,64,62,0.8)"/>
        <path id="Tracé_266" data-name="Tracé 266" d="M1.752,0A7.11,7.11,0,0,1,2.793.886C3.925,1.985,4.525,2.3,4.525,3.347A6.575,6.575,0,0,1,3.409,6.355a2.659,2.659,0,0,1-1.893.727C.671,6.917,0,5.15,0,3.6S.2.091,1.752,0Z" transform="translate(62.498 73.431) rotate(-4.012)" fill="rgba(185,64,62,0.8)"/>
        <path id="Tracé_267" data-name="Tracé 267" d="M1.6,0a6.5,6.5,0,0,1,.951.809c1.035,1,1.582,1.294,1.582,2.248A6.008,6.008,0,0,1,3.115,5.806a2.43,2.43,0,0,1-1.73.664C.613,6.319,0,4.7,0,3.294S.179.084,1.6,0Z" transform="matrix(-0.616, -0.788, 0.788, -0.616, 25.462, 71.624)" fill="rgba(185,64,62,0.8)"/>
        <path id="Tracé_269" data-name="Tracé 269" d="M2.054,0a8.335,8.335,0,0,1,1.22,1.039C4.6,2.326,5.3,2.7,5.3,3.923A7.708,7.708,0,0,1,4,7.45a3.117,3.117,0,0,1-2.223.85C.787,8.108,0,6.037,0,4.226S.23.107,2.054,0Z" transform="translate(40.765 25.109) rotate(71)" fill="rgba(185,64,62,0.8)"/>
        <path id="Tracé_260" data-name="Tracé 260" d="M2.571-13.135a10.431,10.431,0,0,1,1.527,1.3c1.661,1.612,2.54,2.078,2.54,3.61A9.647,9.647,0,0,1,5-3.811,3.9,3.9,0,0,1,2.224-2.745C.985-2.988,0-5.58,0-7.846S.288-13,2.571-13.135Z" transform="translate(12.75 45.83)" fill="rgba(185,64,62,0.8)"/>
        <path id="Tracé_264" data-name="Tracé 264" d="M2.571,0A10.431,10.431,0,0,1,4.1,1.3C5.761,2.912,6.64,3.378,6.64,4.91A9.647,9.647,0,0,1,5,9.324,3.9,3.9,0,0,1,2.224,10.39C.985,10.148,0,7.556,0,5.289S.288.134,2.571,0Z" transform="matrix(0.53, -0.848, 0.848, 0.53, 0, 73.379)" fill="rgba(185,64,62,0.8)"/>
        <path id="Tracé_268" data-name="Tracé 268" d="M2.571-13.135a10.431,10.431,0,0,1,1.527,1.3c1.661,1.612,2.54,2.078,2.54,3.61A9.647,9.647,0,0,1,5-3.811,3.9,3.9,0,0,1,2.224-2.745C.985-2.988,0-5.58,0-7.846S.288-13,2.571-13.135Z" transform="translate(0.247 30.722)" fill="rgba(185,64,62,0.8)"/>
      </g>
    </g>
    <circle id="Ellipse_69" data-name="Ellipse 69" cx="26" cy="26" r="26" transform="translate(225 4012)" fill="url(#radial-gradient-3)"/>
  </g>
</svg>
