<svg xmlns="http://www.w3.org/2000/svg" xmlns:xlink="http://www.w3.org/1999/xlink" width="347.396" height="266.145" viewBox="0 0 347.396 266.145">
  <defs>
    <filter id="Tracé_649" x="4.458" y="41.926" width="104.205" height="74.125" filterUnits="userSpaceOnUse">
      <feOffset input="SourceAlpha"/>
      <feGaussianBlur stdDeviation="10" result="blur"/>
      <feFlood flood-color="#fffbfc" flood-opacity="0.4"/>
      <feComposite operator="in" in2="blur"/>
      <feComposite in="SourceGraphic"/>
    </filter>
    <filter id="Polygone_30" x="244.03" y="172.994" width="70.186" height="70.186" filterUnits="userSpaceOnUse">
      <feOffset input="SourceAlpha"/>
      <feGaussianBlur stdDeviation="10" result="blur-2"/>
      <feFlood flood-color="#fffbfc" flood-opacity="0.4"/>
      <feComposite operator="in" in2="blur-2"/>
      <feComposite in="SourceGraphic"/>
    </filter>
    <filter id="Polygone_37" x="272.992" y="61.165" width="74.403" height="74.403" filterUnits="userSpaceOnUse">
      <feOffset input="SourceAlpha"/>
      <feGaussianBlur stdDeviation="10" result="blur-3"/>
      <feFlood flood-color="#fffbfc" flood-opacity="0.4"/>
      <feComposite operator="in" in2="blur-3"/>
      <feComposite in="SourceGraphic"/>
    </filter>
    <filter id="Polygone_38" x="147.759" y="20.35" width="82.958" height="82.958" filterUnits="userSpaceOnUse">
      <feOffset input="SourceAlpha"/>
      <feGaussianBlur stdDeviation="10" result="blur-4"/>
      <feFlood flood-color="#fffbfc" flood-opacity="0.4"/>
      <feComposite operator="in" in2="blur-4"/>
      <feComposite in="SourceGraphic"/>
    </filter>
    <filter id="Polygone_39" x="131.676" y="61.019" width="74.403" height="74.403" filterUnits="userSpaceOnUse">
      <feOffset input="SourceAlpha"/>
      <feGaussianBlur stdDeviation="10" result="blur-5"/>
      <feFlood flood-color="#fffbfc" flood-opacity="0.4"/>
      <feComposite operator="in" in2="blur-5"/>
      <feComposite in="SourceGraphic"/>
    </filter>
    <filter id="Polygone_40" x="18.105" y="186.196" width="74.403" height="74.403" filterUnits="userSpaceOnUse">
      <feOffset input="SourceAlpha"/>
      <feGaussianBlur stdDeviation="10" result="blur-6"/>
      <feFlood flood-color="#fffbfc" flood-opacity="0.4"/>
      <feComposite operator="in" in2="blur-6"/>
      <feComposite in="SourceGraphic"/>
    </filter>
    <filter id="Polygone_41" x="14.18" y="167.317" width="71.262" height="71.262" filterUnits="userSpaceOnUse">
      <feOffset input="SourceAlpha"/>
      <feGaussianBlur stdDeviation="10" result="blur-7"/>
      <feFlood flood-color="#fffbfc" flood-opacity="0.4"/>
      <feComposite operator="in" in2="blur-7"/>
      <feComposite in="SourceGraphic"/>
    </filter>
    <filter id="Polygone_43" x="240.76" y="127.383" width="73.701" height="73.701" filterUnits="userSpaceOnUse">
      <feOffset input="SourceAlpha"/>
      <feGaussianBlur stdDeviation="10" result="blur-8"/>
      <feFlood flood-color="#fffbfc" flood-opacity="0.4"/>
      <feComposite operator="in" in2="blur-8"/>
      <feComposite in="SourceGraphic"/>
    </filter>
    <filter id="Polygone_44" x="209.368" y="12.324" width="79.564" height="79.564" filterUnits="userSpaceOnUse">
      <feOffset input="SourceAlpha"/>
      <feGaussianBlur stdDeviation="10" result="blur-9"/>
      <feFlood flood-color="#fffbfc" flood-opacity="0.4"/>
      <feComposite operator="in" in2="blur-9"/>
      <feComposite in="SourceGraphic"/>
    </filter>
    <filter id="Polygone_48" x="0" y="75.62" width="71.262" height="71.262" filterUnits="userSpaceOnUse">
      <feOffset input="SourceAlpha"/>
      <feGaussianBlur stdDeviation="10" result="blur-10"/>
      <feFlood flood-color="#fffbfc" flood-opacity="0.4"/>
      <feComposite operator="in" in2="blur-10"/>
      <feComposite in="SourceGraphic"/>
    </filter>
    <filter id="Polygone_49" x="83.345" y="187.585" width="78.561" height="78.561" filterUnits="userSpaceOnUse">
      <feOffset input="SourceAlpha"/>
      <feGaussianBlur stdDeviation="10" result="blur-11"/>
      <feFlood flood-color="#fffbfc" flood-opacity="0.4"/>
      <feComposite operator="in" in2="blur-11"/>
      <feComposite in="SourceGraphic"/>
    </filter>
    <filter id="Polygone_50" x="127.199" y="170.397" width="68.962" height="68.962" filterUnits="userSpaceOnUse">
      <feOffset input="SourceAlpha"/>
      <feGaussianBlur stdDeviation="10" result="blur-12"/>
      <feFlood flood-color="#fffbfc" flood-opacity="0.4"/>
      <feComposite operator="in" in2="blur-12"/>
      <feComposite in="SourceGraphic"/>
    </filter>
    <filter id="Polygone_52" x="44.973" y="152.561" width="69.55" height="69.55" filterUnits="userSpaceOnUse">
      <feOffset input="SourceAlpha"/>
      <feGaussianBlur stdDeviation="10" result="blur-13"/>
      <feFlood flood-color="#fffbfc" flood-opacity="0.4"/>
      <feComposite operator="in" in2="blur-13"/>
      <feComposite in="SourceGraphic"/>
    </filter>
    <filter id="Polygone_53" x="31.133" y="152.209" width="67.112" height="67.112" filterUnits="userSpaceOnUse">
      <feOffset input="SourceAlpha"/>
      <feGaussianBlur stdDeviation="10" result="blur-14"/>
      <feFlood flood-color="#fffbfc" flood-opacity="0.4"/>
      <feComposite operator="in" in2="blur-14"/>
      <feComposite in="SourceGraphic"/>
    </filter>
    <filter id="Polygone_54" x="166.725" y="191.022" width="69.55" height="69.55" filterUnits="userSpaceOnUse">
      <feOffset input="SourceAlpha"/>
      <feGaussianBlur stdDeviation="10" result="blur-15"/>
      <feFlood flood-color="#fffbfc" flood-opacity="0.4"/>
      <feComposite operator="in" in2="blur-15"/>
      <feComposite in="SourceGraphic"/>
    </filter>
    <filter id="Polygone_55" x="82.384" y="14.757" width="67.855" height="67.855" filterUnits="userSpaceOnUse">
      <feOffset input="SourceAlpha"/>
      <feGaussianBlur stdDeviation="10" result="blur-16"/>
      <feFlood flood-color="#fffbfc" flood-opacity="0.4"/>
      <feComposite operator="in" in2="blur-16"/>
      <feComposite in="SourceGraphic"/>
    </filter>
    <filter id="Polygone_56" x="56.347" y="124.25" width="67.112" height="67.112" filterUnits="userSpaceOnUse">
      <feOffset input="SourceAlpha"/>
      <feGaussianBlur stdDeviation="10" result="blur-17"/>
      <feFlood flood-color="#fffbfc" flood-opacity="0.4"/>
      <feComposite operator="in" in2="blur-17"/>
      <feComposite in="SourceGraphic"/>
    </filter>
    <filter id="Polygone_61" x="145.727" y="110.215" width="66.68" height="66.68" filterUnits="userSpaceOnUse">
      <feOffset input="SourceAlpha"/>
      <feGaussianBlur stdDeviation="10" result="blur-18"/>
      <feFlood flood-color="#fffbfc" flood-opacity="0.4"/>
      <feComposite operator="in" in2="blur-18"/>
      <feComposite in="SourceGraphic"/>
    </filter>
    <filter id="Polygone_62" x="136.728" y="0" width="67.819" height="67.819" filterUnits="userSpaceOnUse">
      <feOffset input="SourceAlpha"/>
      <feGaussianBlur stdDeviation="10" result="blur-19"/>
      <feFlood flood-color="#fffbfc" flood-opacity="0.4"/>
      <feComposite operator="in" in2="blur-19"/>
      <feComposite in="SourceGraphic"/>
    </filter>
    <filter id="Polygone_63" x="98.179" y="86.622" width="74.331" height="74.331" filterUnits="userSpaceOnUse">
      <feOffset input="SourceAlpha"/>
      <feGaussianBlur stdDeviation="10" result="blur-20"/>
      <feFlood flood-color="#fffbfc" flood-opacity="0.4"/>
      <feComposite operator="in" in2="blur-20"/>
      <feComposite in="SourceGraphic"/>
    </filter>
    <filter id="Polygone_65" x="82.009" y="47.948" width="71.927" height="71.927" filterUnits="userSpaceOnUse">
      <feOffset input="SourceAlpha"/>
      <feGaussianBlur stdDeviation="10" result="blur-21"/>
      <feFlood flood-color="#fffbfc" flood-opacity="0.4"/>
      <feComposite operator="in" in2="blur-21"/>
      <feComposite in="SourceGraphic"/>
    </filter>
    <filter id="Polygone_66" x="80.206" y="68.73" width="68.786" height="68.786" filterUnits="userSpaceOnUse">
      <feOffset input="SourceAlpha"/>
      <feGaussianBlur stdDeviation="10" result="blur-22"/>
      <feFlood flood-color="#fffbfc" flood-opacity="0.4"/>
      <feComposite operator="in" in2="blur-22"/>
      <feComposite in="SourceGraphic"/>
    </filter>
    <filter id="Polygone_67" x="46.541" y="33.813" width="68.786" height="68.786" filterUnits="userSpaceOnUse">
      <feOffset input="SourceAlpha"/>
      <feGaussianBlur stdDeviation="10" result="blur-23"/>
      <feFlood flood-color="#fffbfc" flood-opacity="0.4"/>
      <feComposite operator="in" in2="blur-23"/>
      <feComposite in="SourceGraphic"/>
    </filter>
  </defs>
  <g transform="matrix(1, 0, 0, 1, 0, 0)" filter="url(#Tracé_649)">
    <path id="Tracé_649-2" data-name="Tracé 649" d="M6609.875-2044.437a22.471,22.471,0,0,1,6.534-2.97,21,21,0,0,1,8.865-.685c3.381.365,5.881,1.1,10.868,1.486s6.364.382,10.763-.54,6.444-3.148,6.831-3.148-2.79,1.892-7.188,2.614a34.014,34.014,0,0,1-10.692.274c-4.649-.4-6.964-1.512-9.98-1.878s-5.629-.839-9.787.748A15.736,15.736,0,0,0,6609.875-2044.437Z" transform="translate(-6062.76 3354.15) rotate(-11)" fill="#fffbfc"/>
  </g>
  <g id="Groupe_407" data-name="Groupe 407" transform="translate(145.638 10.555)">
    <g transform="matrix(1, 0, 0, 1, -145.64, -10.55)" filter="url(#Polygone_30)">
      <path id="Polygone_30-2" data-name="Polygone 30" d="M4,3.274a1.15,1.15,0,0,1,2.183,0h0A1.15,1.15,0,0,0,6.912,4h0a1.15,1.15,0,0,1,0,2.183h0a1.15,1.15,0,0,0-.728.728h0A1.15,1.15,0,0,1,4,6.912H4a1.15,1.15,0,0,0-.728-.728h0A1.15,1.15,0,0,1,3.274,4h0A1.15,1.15,0,0,0,4,3.274Z" transform="translate(274.03 202.99)" fill="#fffbfc"/>
    </g>
    <g transform="matrix(1, 0, 0, 1, -145.64, -10.55)" filter="url(#Polygone_37)">
      <path id="Polygone_37-2" data-name="Polygone 37" d="M4,3.274a1.15,1.15,0,0,1,2.183,0h0A1.15,1.15,0,0,0,6.912,4h0a1.15,1.15,0,0,1,0,2.183h0a1.15,1.15,0,0,0-.728.728h0A1.15,1.15,0,0,1,4,6.912H4a1.15,1.15,0,0,0-.728-.728h0A1.15,1.15,0,0,1,3.274,4h0A1.15,1.15,0,0,0,4,3.274Z" transform="matrix(-0.72, 0.69, -0.69, -0.72, 317.4, 98.49)" fill="#fffbfc"/>
    </g>
    <g transform="matrix(1, 0, 0, 1, -145.64, -10.55)" filter="url(#Polygone_38)">
      <path id="Polygone_38-2" data-name="Polygone 38" d="M6.634,5.428a1.907,1.907,0,0,1,3.619,0h0A1.907,1.907,0,0,0,11.46,6.634h0a1.907,1.907,0,0,1,0,3.619h0a1.907,1.907,0,0,0-1.206,1.206h0a1.907,1.907,0,0,1-3.619,0h0a1.907,1.907,0,0,0-1.206-1.206h0a1.907,1.907,0,0,1,0-3.619h0A1.907,1.907,0,0,0,6.634,5.428Z" transform="translate(200.72 58.54) rotate(119)" fill="#fffbfc"/>
    </g>
    <g transform="matrix(1, 0, 0, 1, -145.64, -10.55)" filter="url(#Polygone_39)">
      <path id="Polygone_39-2" data-name="Polygone 39" d="M4,3.274a1.15,1.15,0,0,1,2.183,0h0A1.15,1.15,0,0,0,6.912,4h0a1.15,1.15,0,0,1,0,2.183h0a1.15,1.15,0,0,0-.728.728h0A1.15,1.15,0,0,1,4,6.912H4a1.15,1.15,0,0,0-.728-.728h0A1.15,1.15,0,0,1,3.274,4h0A1.15,1.15,0,0,0,4,3.274Z" transform="matrix(-0.72, 0.69, -0.69, -0.72, 176.08, 98.35)" fill="#fffbfc"/>
    </g>
    <g transform="matrix(1, 0, 0, 1, -145.64, -10.55)" filter="url(#Polygone_40)">
      <path id="Polygone_40-2" data-name="Polygone 40" d="M4,3.274a1.15,1.15,0,0,1,2.183,0h0A1.15,1.15,0,0,0,6.912,4h0a1.15,1.15,0,0,1,0,2.183h0a1.15,1.15,0,0,0-.728.728h0A1.15,1.15,0,0,1,4,6.912H4a1.15,1.15,0,0,0-.728-.728h0A1.15,1.15,0,0,1,3.274,4h0A1.15,1.15,0,0,0,4,3.274Z" transform="matrix(-0.72, 0.69, -0.69, -0.72, 62.51, 223.52)" fill="#fffbfc"/>
    </g>
    <g transform="matrix(1, 0, 0, 1, -145.64, -10.55)" filter="url(#Polygone_41)">
      <path id="Polygone_41-2" data-name="Polygone 41" d="M3.159,2.585a.908.908,0,0,1,1.723,0h0a.908.908,0,0,0,.574.574h0a.908.908,0,0,1,0,1.723h0a.908.908,0,0,0-.574.574h0a.908.908,0,0,1-1.723,0h0a.908.908,0,0,0-.574-.574h0a.908.908,0,0,1,0-1.723h0a.908.908,0,0,0,.574-.574Z" transform="translate(55.44 203.74) rotate(143)" fill="#fffbfc"/>
    </g>
    <g transform="matrix(1, 0, 0, 1, -145.64, -10.55)" filter="url(#Polygone_43)">
      <path id="Polygone_43-2" data-name="Polygone 43" d="M4,3.274a1.15,1.15,0,0,1,2.183,0h0A1.15,1.15,0,0,0,6.912,4h0a1.15,1.15,0,0,1,0,2.183h0a1.15,1.15,0,0,0-.728.728h0A1.15,1.15,0,0,1,4,6.912H4a1.15,1.15,0,0,0-.728-.728h0A1.15,1.15,0,0,1,3.274,4h0A1.15,1.15,0,0,0,4,3.274Z" transform="matrix(-0.89, -0.45, 0.45, -0.89, 279.84, 171.08)" fill="#fffbfc"/>
    </g>
    <g transform="matrix(1, 0, 0, 1, -145.64, -10.55)" filter="url(#Polygone_44)">
      <path id="Polygone_44-2" data-name="Polygone 44" d="M6.634,5.428a1.907,1.907,0,0,1,3.619,0h0A1.907,1.907,0,0,0,11.46,6.634h0a1.907,1.907,0,0,1,0,3.619h0a1.907,1.907,0,0,0-1.206,1.206h0a1.907,1.907,0,0,1-3.619,0h0a1.907,1.907,0,0,0-1.206-1.206h0a1.907,1.907,0,0,1,0-3.619h0A1.907,1.907,0,0,0,6.634,5.428Z" transform="translate(256 61.89) rotate(-170)" fill="#fffbfc"/>
    </g>
    <g transform="matrix(1, 0, 0, 1, -145.64, -10.55)" filter="url(#Polygone_48)">
      <path id="Polygone_48-2" data-name="Polygone 48" d="M3.159,2.585a.908.908,0,0,1,1.723,0h0a.908.908,0,0,0,.574.574h0a.908.908,0,0,1,0,1.723h0a.908.908,0,0,0-.574.574h0a.908.908,0,0,1-1.723,0h0a.908.908,0,0,0-.574-.574h0a.908.908,0,0,1,0-1.723h0a.908.908,0,0,0,.574-.574Z" transform="translate(41.26 112.04) rotate(143)" fill="#fffbfc"/>
    </g>
    <g transform="matrix(1, 0, 0, 1, -145.64, -10.55)" filter="url(#Polygone_49)">
      <path id="Polygone_49-2" data-name="Polygone 49" d="M6.634,5.428a1.907,1.907,0,0,1,3.619,0h0A1.907,1.907,0,0,0,11.46,6.634h0a1.907,1.907,0,0,1,0,3.619h0a1.907,1.907,0,0,0-1.206,1.206h0a1.907,1.907,0,0,1-3.619,0h0a1.907,1.907,0,0,0-1.206-1.206h0a1.907,1.907,0,0,1,0-3.619h0A1.907,1.907,0,0,0,6.634,5.428Z" transform="matrix(0.99, 0.1, -0.1, 0.99, 115.11, 217.58)" fill="#fffbfc"/>
    </g>
    <g transform="matrix(1, 0, 0, 1, -145.64, -10.55)" filter="url(#Polygone_50)">
      <path id="Polygone_50-2" data-name="Polygone 50" d="M3.159,2.585a.908.908,0,0,1,1.723,0h0a.908.908,0,0,0,.574.574h0a.908.908,0,0,1,0,1.723h0a.908.908,0,0,0-.574.574h0a.908.908,0,0,1-1.723,0h0a.908.908,0,0,0-.574-.574h0a.908.908,0,0,1,0-1.723h0a.908.908,0,0,0,.574-.574Z" transform="translate(158.18 200.4) rotate(7)" fill="#fffbfc"/>
    </g>
    <g transform="matrix(1, 0, 0, 1, -145.64, -10.55)" filter="url(#Polygone_52)">
      <path id="Polygone_52-2" data-name="Polygone 52" d="M2.861,2.341a.823.823,0,0,1,1.561,0h0a.823.823,0,0,0,.52.52h0a.823.823,0,0,1,0,1.561h0a.823.823,0,0,0-.52.52h0a.823.823,0,0,1-1.561,0h0a.823.823,0,0,0-.52-.52h0a.823.823,0,0,1,0-1.561h0a.823.823,0,0,0,.52-.52Z" transform="translate(81.68 182.56) rotate(67)" fill="#fffbfc"/>
    </g>
    <g transform="matrix(1, 0, 0, 1, -145.64, -10.55)" filter="url(#Polygone_53)">
      <path id="Polygone_53-2" data-name="Polygone 53" d="M2.259,1.848a.649.649,0,0,1,1.232,0h0a.649.649,0,0,0,.411.411h0a.649.649,0,0,1,0,1.232h0a.649.649,0,0,0-.411.411h0a.649.649,0,0,1-1.232,0h0a.649.649,0,0,0-.411-.411h0a.649.649,0,0,1,0-1.232h0a.649.649,0,0,0,.411-.411Z" transform="translate(66.66 182.21) rotate(74)" fill="#fffbfc"/>
    </g>
    <g transform="matrix(1, 0, 0, 1, -145.64, -10.55)" filter="url(#Polygone_54)">
      <path id="Polygone_54-2" data-name="Polygone 54" d="M2.861,2.341a.823.823,0,0,1,1.561,0h0a.823.823,0,0,0,.52.52h0a.823.823,0,0,1,0,1.561h0a.823.823,0,0,0-.52.52h0a.823.823,0,0,1-1.561,0h0a.823.823,0,0,0-.52-.52h0a.823.823,0,0,1,0-1.561h0a.823.823,0,0,0,.52-.52Z" transform="matrix(-0.92, -0.39, 0.39, -0.92, 203.43, 230.57)" fill="#fffbfc"/>
    </g>
    <g transform="matrix(1, 0, 0, 1, -145.64, -10.55)" filter="url(#Polygone_55)">
      <path id="Polygone_55-2" data-name="Polygone 55" d="M2.259,1.848a.649.649,0,0,1,1.232,0h0a.649.649,0,0,0,.411.411h0a.649.649,0,0,1,0,1.232h0a.649.649,0,0,0-.411.411h0a.649.649,0,0,1-1.232,0h0a.649.649,0,0,0-.411-.411h0a.649.649,0,0,1,0-1.232h0a.649.649,0,0,0,.411-.411Z" transform="matrix(-0.87, -0.5, 0.5, -0.87, 117.36, 52.61)" fill="#fffbfc"/>
    </g>
    <g transform="matrix(1, 0, 0, 1, -145.64, -10.55)" filter="url(#Polygone_56)">
      <path id="Polygone_56-2" data-name="Polygone 56" d="M2.259,1.848a.649.649,0,0,1,1.232,0h0a.649.649,0,0,0,.411.411h0a.649.649,0,0,1,0,1.232h0a.649.649,0,0,0-.411.411h0a.649.649,0,0,1-1.232,0h0a.649.649,0,0,0-.411-.411h0a.649.649,0,0,1,0-1.232h0a.649.649,0,0,0,.411-.411Z" transform="translate(91.87 154.25) rotate(74)" fill="#fffbfc"/>
    </g>
    <g transform="matrix(1, 0, 0, 1, -145.64, -10.55)" filter="url(#Polygone_61)">
      <path id="Polygone_61-2" data-name="Polygone 61" d="M2.213,1.81a.636.636,0,0,1,1.207,0h0a.636.636,0,0,0,.4.4h0a.636.636,0,0,1,0,1.207h0a.636.636,0,0,0-.4.4h0a.636.636,0,0,1-1.207,0h0a.636.636,0,0,0-.4-.4h0a.636.636,0,0,1,0-1.207h0A.636.636,0,0,0,2.213,1.81Z" transform="matrix(0.98, 0.21, -0.21, 0.98, 176.9, 140.22)" fill="#fffbfc"/>
    </g>
    <g transform="matrix(1, 0, 0, 1, -145.64, -10.55)" filter="url(#Polygone_62)">
      <path id="Polygone_62-2" data-name="Polygone 62" d="M2.213,1.81a.636.636,0,0,1,1.207,0h0a.636.636,0,0,0,.4.4h0a.636.636,0,0,1,0,1.207h0a.636.636,0,0,0-.4.4h0a.636.636,0,0,1-1.207,0h0a.636.636,0,0,0-.4-.4h0a.636.636,0,0,1,0-1.207h0a.636.636,0,0,0,.4-.4Z" transform="translate(169.88 37.82) rotate(-124)" fill="#fffbfc"/>
    </g>
    <g transform="matrix(1, 0, 0, 1, -145.64, -10.55)" filter="url(#Polygone_63)">
      <path id="Polygone_63-2" data-name="Polygone 63" d="M4.07,3.33a1.17,1.17,0,0,1,2.22,0h0a1.17,1.17,0,0,0,.74.74h0a1.17,1.17,0,0,1,0,2.22h0a1.17,1.17,0,0,0-.74.74h0a1.17,1.17,0,0,1-2.22,0h0a1.17,1.17,0,0,0-.74-.74h0a1.17,1.17,0,0,1,0-2.22h0a1.17,1.17,0,0,0,.74-.74Z" transform="translate(136.87 116.62) rotate(57)" fill="#fffbfc"/>
    </g>
    <g transform="matrix(1, 0, 0, 1, -145.64, -10.55)" filter="url(#Polygone_65)">
      <path id="Polygone_65-2" data-name="Polygone 65" d="M3.686,3.016a1.06,1.06,0,0,1,2.011,0h0a1.06,1.06,0,0,0,.67.67h0a1.06,1.06,0,0,1,0,2.011h0a1.06,1.06,0,0,0-.67.67h0a1.06,1.06,0,0,1-2.011,0h0a1.06,1.06,0,0,0-.67-.67h0a1.06,1.06,0,0,1,0-2.011h0a1.06,1.06,0,0,0,.67-.67Z" transform="matrix(0.95, -0.33, 0.33, 0.95, 112.01, 81)" fill="#fffbfc"/>
    </g>
    <g transform="matrix(1, 0, 0, 1, -145.64, -10.55)" filter="url(#Polygone_66)">
      <path id="Polygone_66-2" data-name="Polygone 66" d="M2.91,2.381a.837.837,0,0,1,1.587,0h0a.837.837,0,0,0,.529.529h0a.837.837,0,0,1,0,1.587h0a.837.837,0,0,0-.529.529h0a.837.837,0,0,1-1.587,0h0A.837.837,0,0,0,2.381,4.5h0a.837.837,0,0,1,0-1.587h0a.837.837,0,0,0,.529-.529Z" transform="translate(110.21 100.27) rotate(-12)" fill="#fffbfc"/>
    </g>
    <g transform="matrix(1, 0, 0, 1, -145.64, -10.55)" filter="url(#Polygone_67)">
      <path id="Polygone_67-2" data-name="Polygone 67" d="M2.91,2.381a.837.837,0,0,1,1.587,0h0a.837.837,0,0,0,.529.529h0a.837.837,0,0,1,0,1.587h0a.837.837,0,0,0-.529.529h0a.837.837,0,0,1-1.587,0h0A.837.837,0,0,0,2.381,4.5h0a.837.837,0,0,1,0-1.587h0a.837.837,0,0,0,.529-.529Z" transform="translate(76.54 65.35) rotate(-12)" fill="#fffbfc"/>
    </g>
  </g>
</svg>
