<svg xmlns="http://www.w3.org/2000/svg" xmlns:xlink="http://www.w3.org/1999/xlink" width="232" height="168" viewBox="0 0 232 168">
  <defs>
    <linearGradient id="linear-gradient" x1="0.698" y1="0.044" x2="0.5" y2="1" gradientUnits="objectBoundingBox">
      <stop offset="0" stop-color="#fffefa"/>
      <stop offset="1" stop-color="#faefd0"/>
    </linearGradient>
    <filter id="Ellipse_32" x="0" y="0" width="168" height="168" filterUnits="userSpaceOnUse">
      <feOffset input="SourceAlpha"/>
      <feGaussianBlur stdDeviation="10" result="blur"/>
      <feFlood flood-color="#fdf7e6" flood-opacity="0.6"/>
      <feComposite operator="in" in2="blur"/>
      <feComposite in="SourceGraphic"/>
    </filter>
  </defs>
  <g id="Groupe_127" data-name="Groupe 127" transform="translate(-70 -104)">
    <path id="Tracé_260" data-name="Tracé 260" d="M.955-13.135a3.874,3.874,0,0,1,.567.483c.617.6.943.772.943,1.341a3.583,3.583,0,0,1-.608,1.639,1.449,1.449,0,0,1-1.031.4C.366-9.367,0-10.33,0-11.171S.107-13.086.955-13.135Z" transform="translate(114.896 228.553)" fill="#b9403e"/>
    <g transform="matrix(1, 0, 0, 1, 70, 104)" filter="url(#Ellipse_32)">
      <circle id="Ellipse_32-2" data-name="Ellipse 32" cx="54" cy="54" r="54" transform="translate(30 30)" fill="url(#linear-gradient)"/>
    </g>
    <text id="I_Believe_in_Magic" data-name="I Believe in Magic" transform="translate(106 190)" fill="#3a3a3a" font-size="18" font-family="OCRAExtended, OCR A"><tspan x="0" y="0">I Believe</tspan><tspan y="0" fill="#9a9391"> </tspan><tspan y="0" fill="#cfdae0">in Magic</tspan></text>
    <path id="Tracé_262" data-name="Tracé 262" d="M.955,0a3.874,3.874,0,0,1,.567.483c.617.6.943.772.943,1.341a3.583,3.583,0,0,1-.608,1.639,1.449,1.449,0,0,1-1.031.4C.366,3.768,0,2.806,0,1.964S.107.05.955,0Z" transform="translate(130.515 217.49) rotate(71)" fill="#b9403e"/>
    <path id="Tracé_263" data-name="Tracé 263" d="M.491,0A1.993,1.993,0,0,1,.783.248c.317.308.485.4.485.69a1.843,1.843,0,0,1-.313.843.746.746,0,0,1-.531.2C.188,1.939,0,1.444,0,1.011S.055.026.491,0Z" transform="matrix(0.921, -0.391, 0.391, 0.921, 126.04, 233.85)" fill="#b9403e"/>
    <path id="Tracé_264" data-name="Tracé 264" d="M.955,0a3.874,3.874,0,0,1,.567.483c.617.6.943.772.943,1.341a3.583,3.583,0,0,1-.608,1.639,1.449,1.449,0,0,1-1.031.4C.366,3.768,0,2.806,0,1.964S.107.05.955,0Z" transform="matrix(0.53, -0.848, 0.848, 0.53, 110.161, 230.526)" fill="#b9403e"/>
    <path id="Tracé_265" data-name="Tracé 265" d="M.955,0a3.874,3.874,0,0,1,.567.483c.617.6.943.772.943,1.341a3.583,3.583,0,0,1-.608,1.639,1.449,1.449,0,0,1-1.031.4C.366,3.768,0,2.806,0,1.964S.107.05.955,0Z" transform="matrix(0.766, 0.643, -0.643, 0.766, 139.447, 203.277)" fill="#b9403e"/>
    <path id="Tracé_266" data-name="Tracé 266" d="M.651,0a2.64,2.64,0,0,1,.387.329c.421.408.643.526.643.914A2.442,2.442,0,0,1,1.266,2.36a.988.988,0,0,1-.7.27C.249,2.568,0,1.912,0,1.339S.073.034.651,0Z" transform="matrix(0.998, -0.07, 0.07, 0.998, 133.37, 230.545)" fill="#b9403e"/>
    <path id="Tracé_267" data-name="Tracé 267" d="M.594,0A2.412,2.412,0,0,1,.948.3c.384.373.587.481.587.835a2.231,2.231,0,0,1-.378,1.021A.9.9,0,0,1,.514,2.4C.228,2.347,0,1.747,0,1.223S.067.031.594,0Z" transform="matrix(-0.616, -0.788, 0.788, -0.616, 119.617, 229.874)" fill="#b9403e"/>
    <path id="Tracé_268" data-name="Tracé 268" d="M.955-13.135a3.874,3.874,0,0,1,.567.483c.617.6.943.772.943,1.341a3.583,3.583,0,0,1-.608,1.639,1.449,1.449,0,0,1-1.031.4C.366-9.367,0-10.33,0-11.171S.107-13.086.955-13.135Z" transform="translate(110.253 222.943)" fill="#b9403e"/>
    <path id="Tracé_269" data-name="Tracé 269" d="M.763,0a3.1,3.1,0,0,1,.453.386c.493.478.754.617.754,1.071a2.862,2.862,0,0,1-.486,1.31,1.158,1.158,0,0,1-.824.316C.292,3.011,0,2.242,0,1.569S.085.04.763,0Z" transform="translate(125.299 212.601) rotate(71)" fill="#b9403e"/>
  </g>
</svg>
