<svg xmlns="http://www.w3.org/2000/svg" xmlns:xlink="http://www.w3.org/1999/xlink" width="119.293" height="121.611" viewBox="0 0 119.293 121.611">
  <defs>
    <filter id="Polygone_14" x="0" y="5.273" width="116.338" height="116.338" filterUnits="userSpaceOnUse">
      <feOffset input="SourceAlpha"/>
      <feGaussianBlur stdDeviation="10" result="blur"/>
      <feFlood flood-color="#fffbfc" flood-opacity="0.4"/>
      <feComposite operator="in" in2="blur"/>
      <feComposite in="SourceGraphic"/>
    </filter>
    <filter id="Polygone_15" x="33.454" y="0" width="85.839" height="85.839" filterUnits="userSpaceOnUse">
      <feOffset input="SourceAlpha"/>
      <feGaussianBlur stdDeviation="10" result="blur-2"/>
      <feFlood flood-color="#fffbfc" flood-opacity="0.4"/>
      <feComposite operator="in" in2="blur-2"/>
      <feComposite in="SourceGraphic"/>
    </filter>
  </defs>
  <g id="Groupe_44" data-name="Groupe 44" transform="translate(22.911 -349.575)">
    <g transform="matrix(1, 0, 0, 1, -22.91, 349.57)" filter="url(#Polygone_14)">
      <path id="Polygone_14-2" data-name="Polygone 14" d="M21.1,5.692a2,2,0,0,1,3.795,0L28.434,16.3A2,2,0,0,0,29.7,17.566L40.308,21.1a2,2,0,0,1,0,3.795L29.7,28.434A2,2,0,0,0,28.434,29.7L24.9,40.308a2,2,0,0,1-3.795,0L17.566,29.7A2,2,0,0,0,16.3,28.434L5.692,24.9a2,2,0,0,1,0-3.795L16.3,17.566A2,2,0,0,0,17.566,16.3Z" transform="translate(30 47.18) rotate(-15)" fill="#fffbfc"/>
    </g>
    <g transform="matrix(1, 0, 0, 1, -22.91, 349.57)" filter="url(#Polygone_15)">
      <path id="Polygone_15-2" data-name="Polygone 15" d="M9.051,2.846a1,1,0,0,1,1.9,0l1.393,4.18a1,1,0,0,0,.632.632l4.18,1.393a1,1,0,0,1,0,1.9l-4.18,1.393a1,1,0,0,0-.632.632l-1.393,4.18a1,1,0,0,1-1.9,0l-1.393-4.18a1,1,0,0,0-.632-.632l-4.18-1.393a1,1,0,0,1,0-1.9l4.18-1.393a1,1,0,0,0,.632-.632Z" transform="translate(70.62 30) rotate(21)" fill="#fffbfc"/>
    </g>
  </g>
</svg>
