<svg xmlns="http://www.w3.org/2000/svg" xmlns:xlink="http://www.w3.org/1999/xlink" width="96.973" height="96.973" viewBox="0 0 96.973 96.973">
  <defs>
    <filter id="Tracé_692" x="0" y="0" width="96.973" height="96.973" filterUnits="userSpaceOnUse">
      <feOffset input="SourceAlpha"/>
      <feGaussianBlur stdDeviation="10" result="blur"/>
      <feFlood flood-color="#1f2d3b" flood-opacity="0"/>
      <feComposite operator="in" in2="blur"/>
      <feComposite in="SourceGraphic"/>
    </filter>
  </defs>
  <g id="Groupe_504" data-name="Groupe 504" transform="translate(-285 -267)">
    <g transform="matrix(1, 0, 0, 1, 285, 267)" filter="url(#Tracé_692)">
      <g id="Tracé_692-2" data-name="Tracé 692" transform="translate(30 30)" fill="#ffa250">
        <path d="M 18.486328125 36.47265625 C 13.68200778961182 36.47265625 9.165238380432129 34.60175704956055 5.768068313598633 31.20458793640137 C 2.370898008346558 27.80741882324219 0.4999981224536896 23.29064750671387 0.4999981224536896 18.486328125 C 0.4999981224536896 13.68200778961182 2.370898008346558 9.165238380432129 5.768068313598633 5.768068313598633 C 9.165238380432129 2.370898008346558 13.68200778961182 0.4999981224536896 18.486328125 0.4999981224536896 C 23.29064750671387 0.4999981224536896 27.80741882324219 2.370898008346558 31.20458793640137 5.768068313598633 C 34.60175704956055 9.165238380432129 36.47265625 13.68200778961182 36.47265625 18.486328125 C 36.47265625 23.29064750671387 34.60175704956055 27.80741882324219 31.20458793640137 31.20458793640137 C 27.80741882324219 34.60175704956055 23.29064750671387 36.47265625 18.486328125 36.47265625 Z" stroke="none"/>
        <path d="M 18.486328125 1 C 13.8155574798584 1 9.424358367919922 2.818897247314453 6.121627807617188 6.121627807617188 C 2.818897247314453 9.424358367919922 1 13.8155574798584 1 18.486328125 C 1 23.15709686279297 2.818897247314453 27.54829788208008 6.121627807617188 30.85102844238281 C 9.424358367919922 34.15375900268555 13.8155574798584 35.97265625 18.486328125 35.97265625 C 23.15708923339844 35.97265625 27.54829788208008 34.15375900268555 30.85102844238281 30.85102844238281 C 34.15375900268555 27.54829788208008 35.97265625 23.15708923339844 35.97265625 18.486328125 C 35.97265625 13.8155574798584 34.15375900268555 9.424358367919922 30.85102844238281 6.121627807617188 C 27.54829788208008 2.818897247314453 23.15709686279297 1 18.486328125 1 M 18.486328125 0 C 28.69603729248047 0 36.97265625 8.276607513427734 36.97265625 18.486328125 C 36.97265625 28.69603729248047 28.69603729248047 36.97265625 18.486328125 36.97265625 C 8.276607513427734 36.97265625 0 28.69603729248047 0 18.486328125 C 0 8.276607513427734 8.276607513427734 0 18.486328125 0 Z" stroke="none" fill="#fffbfc"/>
      </g>
    </g>
    <g id="Ellipse_48" data-name="Ellipse 48" transform="translate(318.361 300.361)" fill="#ffa250" stroke="#fffbfc" stroke-width="1">
      <circle cx="15.685" cy="15.685" r="15.685" stroke="none"/>
      <circle cx="15.685" cy="15.685" r="15.185" fill="none"/>
    </g>
    <g id="back" transform="translate(326.45 311.129)">
      <g id="Groupe_100" data-name="Groupe 100" transform="translate(0 0)">
        <path id="Tracé_593" data-name="Tracé 593" d="M103.511,6.535,109.187.858a.5.5,0,0,0-.711-.711L102.445,6.18a.5.5,0,0,0,0,.711l6.032,6.032a.5.5,0,0,0,.711-.711Z" transform="translate(-102.298 0)" fill="#fffbfc"/>
      </g>
    </g>
  </g>
</svg>
