<svg xmlns="http://www.w3.org/2000/svg" xmlns:xlink="http://www.w3.org/1999/xlink" width="93" height="93" viewBox="0 0 93 93">
  <defs>
    <filter id="Tracé_693" x="0" y="0" width="93" height="93" filterUnits="userSpaceOnUse">
      <feOffset input="SourceAlpha"/>
      <feGaussianBlur stdDeviation="10" result="blur"/>
      <feFlood flood-opacity="0"/>
      <feComposite operator="in" in2="blur"/>
      <feComposite in="SourceGraphic"/>
    </filter>
  </defs>
  <g id="Groupe_503" data-name="Groupe 503" transform="translate(-365 -267)">
    <g transform="matrix(1, 0, 0, 1, 365, 267)" filter="url(#Tracé_693)">
      <g id="Tracé_693-2" data-name="Tracé 693" transform="translate(30 30)" fill="#47c575">
        <path d="M 16.5 32.5 C 12.22624015808105 32.5 8.208290100097656 30.8357105255127 5.18628978729248 27.8137092590332 C 2.164289951324463 24.79170989990234 0.5 20.77375984191895 0.5 16.5 C 0.5 12.22624015808105 2.164289951324463 8.208290100097656 5.18628978729248 5.18628978729248 C 8.208290100097656 2.164289951324463 12.22624015808105 0.5 16.5 0.5 C 20.77375984191895 0.5 24.79170989990234 2.164289951324463 27.8137092590332 5.18628978729248 C 30.8357105255127 8.208290100097656 32.5 12.22624015808105 32.5 16.5 C 32.5 20.77375984191895 30.8357105255127 24.79170989990234 27.8137092590332 27.8137092590332 C 24.79170989990234 30.8357105255127 20.77375984191895 32.5 16.5 32.5 Z" stroke="none"/>
        <path d="M 16.5 1 C 12.35980033874512 1 8.467409133911133 2.612279891967773 5.539840698242188 5.539840698242188 C 2.612279891967773 8.467409133911133 1 12.35980033874512 1 16.5 C 1 20.64019966125488 2.612279891967773 24.53258895874023 5.539840698242188 27.46015930175781 C 8.467409133911133 30.38772010803223 12.35980033874512 32 16.5 32 C 20.64019966125488 32 24.53258895874023 30.38772010803223 27.46015930175781 27.46015930175781 C 30.38772010803223 24.53258895874023 32 20.64019966125488 32 16.5 C 32 12.35980033874512 30.38772010803223 8.467409133911133 27.46015930175781 5.539840698242188 C 24.53258895874023 2.612279891967773 20.64019966125488 1 16.5 1 M 16.5 0 C 25.61269950866699 0 33 7.387300491333008 33 16.5 C 33 25.61269950866699 25.61269950866699 33 16.5 33 C 7.387300491333008 33 0 25.61269950866699 0 16.5 C 0 7.387300491333008 7.387300491333008 0 16.5 0 Z" stroke="none" fill="#fffbfc"/>
      </g>
    </g>
    <g id="Ellipse_31" data-name="Ellipse 31" transform="translate(397 298.5)" fill="#47c575" stroke="#fffbfc" stroke-width="1">
      <circle cx="14" cy="14" r="14" stroke="none"/>
      <circle cx="14" cy="14" r="13.5" fill="none"/>
    </g>
    <g id="back" transform="translate(416.81 321.271) rotate(180)">
      <g id="Groupe_100" data-name="Groupe 100" transform="translate(0 0)">
        <path id="Tracé_593" data-name="Tracé 593" d="M1.083,5.832,6.15.766A.449.449,0,1,0,5.515.131L.131,5.515a.449.449,0,0,0,0,.634l5.384,5.384A.449.449,0,0,0,6.15,10.9Z" fill="#fffbfc"/>
      </g>
    </g>
  </g>
</svg>
