<svg xmlns="http://www.w3.org/2000/svg" xmlns:xlink="http://www.w3.org/1999/xlink" width="204.118" height="198.017" viewBox="0 0 204.118 198.017">
  <defs>
    <linearGradient id="linear-gradient" x1="0.624" y1="0.438" x2="0.439" y2="1.118" gradientUnits="objectBoundingBox">
      <stop offset="0" stop-color="#3a9dd1"/>
      <stop offset="1" stop-color="#aadbf5"/>
    </linearGradient>
    <filter id="Tracé_595" x="0" y="0" width="204.118" height="198.017" filterUnits="userSpaceOnUse">
      <feOffset dy="3" input="SourceAlpha"/>
      <feGaussianBlur stdDeviation="10" result="blur"/>
      <feFlood flood-color="#fff" flood-opacity="0.161"/>
      <feComposite operator="in" in2="blur"/>
      <feComposite in="SourceGraphic"/>
    </filter>
  </defs>
  <g transform="matrix(1, 0, 0, 1, 0, 0)" filter="url(#Tracé_595)">
    <path id="Tracé_595-2" data-name="Tracé 595" d="M144.083,174.419c.007-.046.015-.119.02-.165a5,5,0,0,0-1.544-4.163l0,0a41.976,41.976,0,0,0-5.76-4.7c-3.328-2.84-5.035-2.5-8.8-4.749a43.3,43.3,0,0,0-29.772-1.115c-.365-25.606-19.813-36.887-23.741-38.9l0,0a5,5,0,0,0-4.509-.149c-.137.064-7.028,3.84-9.738,6.816a43.472,43.472,0,0,0-14.3,32.24c-.829-.257-1.648-.485-2.458-.69-6.017-1.227-8.132-1.227-14.095-1.308A45.554,45.554,0,0,0,1.587,170.089l0,0A5,5,0,0,0,.05,174.332c.13,1.066,3.444,25.99,29.727,34.937-14.795,20.943-5.68,41.524-3.686,45.467v0a5,5,0,0,0,3.559,2.771,36.417,36.417,0,0,0,6.524.518,43.866,43.866,0,0,0,35.894-18c16.632,22.242,41.366,17.689,42.418,17.483,1.086-.213,2.563-1.98,3.276-2.774-.944,2.2,2.635-1.89,5.463-10.582.114-3.417.937-13.42,1.309-24.747.019-2.305.327-10.319.144-15.114,7.424-5.889,10.479-12.853,15.888-19.427C142.638,178.686,144.073,174.5,144.083,174.419Zm-49.21-2.773c.032-.016.065-.025.1-.041a37.987,37.987,0,0,1,5.642-2.341,34.259,34.259,0,0,1,33.064,6.266,34.293,34.293,0,0,1-23.081,24.456c-1.2.391-2.415.713-3.625.98a44.093,44.093,0,0,0-28.285-10.853,34.028,34.028,0,0,1,16.109-18.419C94.82,171.679,94.845,171.662,94.873,171.646Zm-84.406,3.885a34.261,34.261,0,0,1,33.065-6.267c1.208.393,2.382.846,3.52,1.343a44.081,44.081,0,0,0,16.5,25.4,34.027,34.027,0,0,1-23.861,5.435c-.034-.005-.067-.005-.1-.01s-.051-.014-.077-.018a37.832,37.832,0,0,1-5.965-1.426A34.281,34.281,0,0,1,10.467,175.531ZM67.7,228.145c-.019.038-.033.078-.05.116s-.034.052-.048.08a37.9,37.9,0,0,1-3.2,5.236,34.29,34.29,0,0,1-30.392,14.4,34.26,34.26,0,0,1,4.258-33.385c.756-1.04,1.561-2.03,2.4-2.971,1.379.128,2.727.2,4.038.2a44.414,44.414,0,0,0,25.2-8.039A34.03,34.03,0,0,1,67.7,228.145Zm1.278-40.582a34.029,34.029,0,0,1-12.54-21.012c-.006-.033-.015-.064-.022-.1s0-.065-.009-.1a37.831,37.831,0,0,1-.484-6.092,34.128,34.128,0,0,1,14.31-28.277,4.964,4.964,0,0,0,.694-.492c.4-.277.78-.526,1.122-.742a34.259,34.259,0,0,1,16.178,29.511c0,1.266-.068,2.519-.188,3.75A44.093,44.093,0,0,0,68.978,187.563Zm41.155,60.4a34.462,34.462,0,0,1-30.4-14.386c-.75-1.033-1.437-2.1-2.069-3.173a44.093,44.093,0,0,0,1.588-30.271,34.045,34.045,0,0,1,22.387,9.526c.075.085.142.174.223.254a37.874,37.874,0,0,1,4.005,4.676A34.26,34.26,0,0,1,110.133,247.962Zm4.23-38.691a46,46,0,0,0,10.316-4.979c.02,6.588-.144,25.417-.879,29.284C124.259,229.709,119.862,217.057,114.363,209.271Z" transform="translate(29.99 -93.01)" fill="url(#linear-gradient)"/>
  </g>
</svg>
