<svg xmlns="http://www.w3.org/2000/svg" width="162.299" height="186.465" viewBox="0 0 162.299 186.465">
  <g id="snowflake" transform="translate(-33.176)" opacity="0.5">
    <path id="Tracé_566" data-name="Tracé 566" d="M136.767,159.056a5.467,5.467,0,0,0-10.563,2.828l.587,2.185-7.5-4.33a5.464,5.464,0,0,0-5.463,9.464l7.5,4.332-2.191.587a5.464,5.464,0,1,0,2.838,10.552l14.927-4a5.464,5.464,0,0,0,3.862-6.69Z" transform="translate(-49.542 -98.553)" fill="#d5e8fe"/>
    <path id="Tracé_567" data-name="Tracé 567" d="M136.906,279.2l-14.927-4a5.464,5.464,0,1,0-2.838,10.552l2.191.587-7.5,4.332a5.464,5.464,0,0,0,5.463,9.464l7.5-4.33-.587,2.185a5.467,5.467,0,0,0,10.563,2.828l4-14.927A5.464,5.464,0,0,0,136.906,279.2Z" transform="translate(-49.542 -174.856)" fill="#d5e8fe"/>
    <path id="Tracé_568" data-name="Tracé 568" d="M346.042,290.665l-7.5-4.332,2.191-.587a5.464,5.464,0,1,0-2.838-10.552l-14.927,4a5.464,5.464,0,0,0-3.862,6.69l4,14.927a5.467,5.467,0,0,0,10.563-2.828l-.587-2.185,7.5,4.33a5.464,5.464,0,0,0,5.463-9.464Z" transform="translate(-181.676 -174.85)" fill="#b5dbff"/>
    <path id="Tracé_569" data-name="Tracé 569" d="M322.964,180.679l14.927,4a5.464,5.464,0,1,0,2.838-10.552l-2.191-.587,7.5-4.332a5.464,5.464,0,0,0-5.463-9.464l-7.5,4.33.587-2.185a5.467,5.467,0,0,0-10.563-2.828l-4,14.927A5.464,5.464,0,0,0,322.964,180.679Z" transform="translate(-181.676 -98.559)" fill="#b5dbff"/>
    <g id="Groupe_72" data-name="Groupe 72" transform="translate(33.176 44.074)">
      <path id="Tracé_570" data-name="Tracé 570" d="M47.535,149.874,34.081,129.484a5.463,5.463,0,0,1,4.887-8.461l24.38,1.462a5.47,5.47,0,0,1,4.951,4.038l4,14.927a5.464,5.464,0,0,1-3.862,6.69l-14.927,4a5.458,5.458,0,0,1-5.975-2.267Z" transform="translate(-33.177 -121.02)" fill="#edf5ff"/>
    </g>
    <g id="Groupe_73" data-name="Groupe 73" transform="translate(33.176 111.079)">
      <path id="Tracé_571" data-name="Tracé 571" d="M33.909,333.591a5.457,5.457,0,0,1,.171-5.74l13.454-20.39a5.452,5.452,0,0,1,5.975-2.267l14.927,4a5.464,5.464,0,0,1,3.862,6.69l-4,14.927a5.47,5.47,0,0,1-4.951,4.039l-24.38,1.462A5.447,5.447,0,0,1,33.909,333.591Z" transform="translate(-33.176 -305.003)" fill="#edf5ff"/>
    </g>
    <g id="Groupe_74" data-name="Groupe 74" transform="translate(97.937 33.141)">
      <path id="Tracé_572" data-name="Tracé 572" d="M223.526,122.176a5.46,5.46,0,0,0,7.724,0l10.926-10.926a5.462,5.462,0,1,0-7.725-7.725l-1.6,1.6V96.463a5.463,5.463,0,0,0-10.926,0v8.664l-1.6-1.6a5.462,5.462,0,1,0-7.725,7.725Z" transform="translate(-211 -91)" fill="#d5e8fe"/>
      <path id="Tracé_573" data-name="Tracé 573" d="M231.251,332.6a5.46,5.46,0,0,0-7.724,0L212.6,343.526a5.462,5.462,0,0,0,7.725,7.725l1.6-1.6v8.664a5.463,5.463,0,1,0,10.926,0V349.65l1.6,1.6a5.462,5.462,0,0,0,7.725-7.725Z" transform="translate(-211 -243.595)" fill="#d5e8fe"/>
    </g>
    <path id="Tracé_574" data-name="Tracé 574" d="M270.788,111.251a5.462,5.462,0,0,0-7.725-7.725l-1.6,1.6V96.463A5.46,5.46,0,0,0,256,91v32.777a5.444,5.444,0,0,0,3.862-1.6Z" transform="translate(-141.674 -57.859)" fill="#b5dbff"/>
    <path id="Tracé_575" data-name="Tracé 575" d="M261.463,358.314V349.65l1.6,1.6a5.462,5.462,0,0,0,7.725-7.725L259.863,332.6A5.445,5.445,0,0,0,256,331v32.777a5.46,5.46,0,0,0,5.462-5.463Z" transform="translate(-141.675 -210.453)" fill="#b5dbff"/>
    <g id="Groupe_75" data-name="Groupe 75" transform="translate(80.482 0)">
      <path id="Tracé_576" data-name="Tracé 576" d="M223.521,42.466a5.46,5.46,0,0,0,7.724,0l10.926-10.926a5.453,5.453,0,0,0,1.024-6.306L232.27,2.777a5.688,5.688,0,0,0-9.773,0L211.571,25.235a5.453,5.453,0,0,0,1.024,6.306Z" transform="translate(-193.54 0)" fill="#edf5ff"/>
      <path id="Tracé_577" data-name="Tracé 577" d="M231.246,392.6a5.46,5.46,0,0,0-7.724,0L212.6,403.526a5.453,5.453,0,0,0-1.024,6.306L222.5,432.047a5.464,5.464,0,0,0,9.773,0L243.2,409.832a5.453,5.453,0,0,0-1.024-6.306Z" transform="translate(-193.54 -248.602)" fill="#edf5ff"/>
      <path id="Tracé_578" data-name="Tracé 578" d="M220.068,189.748l9.635-13.161a5.464,5.464,0,0,0-4.993-8.658l-16.218,1.766-6.583-14.927a5.684,5.684,0,0,0-9.987,0l-6.583,14.927-16.218-1.766a5.356,5.356,0,0,0-5.314,2.7,5.449,5.449,0,0,0,.32,5.959l9.635,13.161-9.635,13.161a5.464,5.464,0,0,0,4.993,8.658l16.218-1.766,6.583,14.927a5.455,5.455,0,0,0,9.987,0l6.583-14.927,16.218,1.766a5.464,5.464,0,0,0,4.993-8.658Z" transform="translate(-163.071 -96.515)" fill="#edf5ff"/>
    </g>
    <g id="Groupe_76" data-name="Groupe 76" transform="translate(114.326 0)">
      <path id="Tracé_579" data-name="Tracé 579" d="M270.788,31.541a5.453,5.453,0,0,0,1.024-6.306L260.886,2.777A5.345,5.345,0,0,0,256,0V44.067a5.444,5.444,0,0,0,3.862-1.6Z" transform="translate(-256 0)" fill="#d5e8fe"/>
      <path id="Tracé_580" data-name="Tracé 580" d="M260.887,432.047l10.926-22.216a5.453,5.453,0,0,0-1.024-6.306L259.863,392.6A5.445,5.445,0,0,0,256,391v44.067a5.465,5.465,0,0,0,4.886-3.019Z" transform="translate(-256.001 -248.602)" fill="#d5e8fe"/>
      <path id="Tracé_581" data-name="Tracé 581" d="M260.993,224.728l6.583-14.927,16.218,1.766a5.464,5.464,0,0,0,4.993-8.658l-9.635-13.161,9.635-13.161a5.464,5.464,0,0,0-4.993-8.658l-16.218,1.766-6.583-14.927A5.294,5.294,0,0,0,256,151.8v76.189A5.448,5.448,0,0,0,260.993,224.728Z" transform="translate(-256 -96.515)" fill="#d5e8fe"/>
    </g>
    <g id="Groupe_77" data-name="Groupe 77" transform="translate(156.166 111.077)">
      <path id="Tracé_582" data-name="Tracé 582" d="M404.406,336.308l-24.38-1.462a5.47,5.47,0,0,1-4.951-4.038l-4-14.927a5.464,5.464,0,0,1,3.862-6.69l14.927-4a5.432,5.432,0,0,1,5.975,2.267l13.454,20.389a5.462,5.462,0,0,1-4.886,8.461Z" transform="translate(-370.887 -304.998)" fill="#d5e8fe"/>
    </g>
    <g id="Groupe_78" data-name="Groupe 78" transform="translate(156.167 44.065)">
      <path id="Tracé_583" data-name="Tracé 583" d="M389.864,152.125l-14.927-4a5.464,5.464,0,0,1-3.862-6.69l4-14.927a5.47,5.47,0,0,1,4.951-4.038l24.38-1.462a5.3,5.3,0,0,1,5.057,2.721,5.457,5.457,0,0,1-.171,5.74l-13.454,20.389A5.461,5.461,0,0,1,389.864,152.125Z" transform="translate(-370.888 -120.995)" fill="#d5e8fe"/>
    </g>
  </g>
</svg>
