<svg xmlns="http://www.w3.org/2000/svg" xmlns:xlink="http://www.w3.org/1999/xlink" width="468.705" height="436" viewBox="0 0 468.705 436">
  <defs>
    <filter id="Polygone_30" x="364.234" y="267.976" width="70.446" height="70.446" filterUnits="userSpaceOnUse">
      <feOffset input="SourceAlpha"/>
      <feGaussianBlur stdDeviation="10" result="blur"/>
      <feFlood flood-color="#fffbfc" flood-opacity="0.4"/>
      <feComposite operator="in" in2="blur"/>
      <feComposite in="SourceGraphic"/>
    </filter>
    <filter id="Polygone_31" x="0" y="205.301" width="70.446" height="70.446" filterUnits="userSpaceOnUse">
      <feOffset input="SourceAlpha"/>
      <feGaussianBlur stdDeviation="10" result="blur-2"/>
      <feFlood flood-color="#fffbfc" flood-opacity="0.4"/>
      <feComposite operator="in" in2="blur-2"/>
      <feComposite in="SourceGraphic"/>
    </filter>
    <filter id="Polygone_32" x="72.617" y="288.914" width="81.625" height="81.625" filterUnits="userSpaceOnUse">
      <feOffset input="SourceAlpha"/>
      <feGaussianBlur stdDeviation="10" result="blur-3"/>
      <feFlood flood-color="#fffbfc" flood-opacity="0.4"/>
      <feComposite operator="in" in2="blur-3"/>
      <feComposite in="SourceGraphic"/>
    </filter>
    <filter id="Polygone_33" x="117.655" y="333.951" width="70.446" height="70.446" filterUnits="userSpaceOnUse">
      <feOffset input="SourceAlpha"/>
      <feGaussianBlur stdDeviation="10" result="blur-4"/>
      <feFlood flood-color="#fffbfc" flood-opacity="0.4"/>
      <feComposite operator="in" in2="blur-4"/>
      <feComposite in="SourceGraphic"/>
    </filter>
    <filter id="Polygone_34" x="277.092" y="294.641" width="70.446" height="70.446" filterUnits="userSpaceOnUse">
      <feOffset input="SourceAlpha"/>
      <feGaussianBlur stdDeviation="10" result="blur-5"/>
      <feFlood flood-color="#fffbfc" flood-opacity="0.4"/>
      <feComposite operator="in" in2="blur-5"/>
      <feComposite in="SourceGraphic"/>
    </filter>
    <filter id="Polygone_35" x="267.207" y="314.269" width="69.19" height="69.19" filterUnits="userSpaceOnUse">
      <feOffset input="SourceAlpha"/>
      <feGaussianBlur stdDeviation="10" result="blur-6"/>
      <feFlood flood-color="#fffbfc" flood-opacity="0.4"/>
      <feComposite operator="in" in2="blur-6"/>
      <feComposite in="SourceGraphic"/>
    </filter>
    <filter id="Polygone_36" x="88.389" y="361.229" width="74.771" height="74.771" filterUnits="userSpaceOnUse">
      <feOffset input="SourceAlpha"/>
      <feGaussianBlur stdDeviation="10" result="blur-7"/>
      <feFlood flood-color="#fffbfc" flood-opacity="0.4"/>
      <feComposite operator="in" in2="blur-7"/>
      <feComposite in="SourceGraphic"/>
    </filter>
    <filter id="Polygone_37" x="393.934" y="153.296" width="74.771" height="74.771" filterUnits="userSpaceOnUse">
      <feOffset input="SourceAlpha"/>
      <feGaussianBlur stdDeviation="10" result="blur-8"/>
      <feFlood flood-color="#fffbfc" flood-opacity="0.4"/>
      <feComposite operator="in" in2="blur-8"/>
      <feComposite in="SourceGraphic"/>
    </filter>
    <filter id="Polygone_38" x="265.51" y="111.441" width="83.543" height="83.543" filterUnits="userSpaceOnUse">
      <feOffset input="SourceAlpha"/>
      <feGaussianBlur stdDeviation="10" result="blur-9"/>
      <feFlood flood-color="#fffbfc" flood-opacity="0.4"/>
      <feComposite operator="in" in2="blur-9"/>
      <feComposite in="SourceGraphic"/>
    </filter>
    <filter id="Polygone_39" x="249.016" y="153.146" width="74.771" height="74.771" filterUnits="userSpaceOnUse">
      <feOffset input="SourceAlpha"/>
      <feGaussianBlur stdDeviation="10" result="blur-10"/>
      <feFlood flood-color="#fffbfc" flood-opacity="0.4"/>
      <feComposite operator="in" in2="blur-10"/>
      <feComposite in="SourceGraphic"/>
    </filter>
    <filter id="Polygone_40" x="132.55" y="281.515" width="74.771" height="74.771" filterUnits="userSpaceOnUse">
      <feOffset input="SourceAlpha"/>
      <feGaussianBlur stdDeviation="10" result="blur-11"/>
      <feFlood flood-color="#fffbfc" flood-opacity="0.4"/>
      <feComposite operator="in" in2="blur-11"/>
      <feComposite in="SourceGraphic"/>
    </filter>
    <filter id="Polygone_41" x="128.524" y="262.155" width="71.549" height="71.549" filterUnits="userSpaceOnUse">
      <feOffset input="SourceAlpha"/>
      <feGaussianBlur stdDeviation="10" result="blur-12"/>
      <feFlood flood-color="#fffbfc" flood-opacity="0.4"/>
      <feComposite operator="in" in2="blur-12"/>
      <feComposite in="SourceGraphic"/>
    </filter>
    <filter id="Polygone_42" x="64.801" y="0" width="74.05" height="74.05" filterUnits="userSpaceOnUse">
      <feOffset input="SourceAlpha"/>
      <feGaussianBlur stdDeviation="10" result="blur-13"/>
      <feFlood flood-color="#fffbfc" flood-opacity="0.4"/>
      <feComposite operator="in" in2="blur-13"/>
      <feComposite in="SourceGraphic"/>
    </filter>
    <filter id="Polygone_43" x="360.882" y="221.203" width="74.05" height="74.05" filterUnits="userSpaceOnUse">
      <feOffset input="SourceAlpha"/>
      <feGaussianBlur stdDeviation="10" result="blur-14"/>
      <feFlood flood-color="#fffbfc" flood-opacity="0.4"/>
      <feComposite operator="in" in2="blur-14"/>
      <feComposite in="SourceGraphic"/>
    </filter>
    <filter id="Polygone_44" x="328.689" y="103.211" width="80.062" height="80.062" filterUnits="userSpaceOnUse">
      <feOffset input="SourceAlpha"/>
      <feGaussianBlur stdDeviation="10" result="blur-15"/>
      <feFlood flood-color="#fffbfc" flood-opacity="0.4"/>
      <feComposite operator="in" in2="blur-15"/>
      <feComposite in="SourceGraphic"/>
    </filter>
    <filter id="Polygone_45" x="314.456" y="53.161" width="74.05" height="74.05" filterUnits="userSpaceOnUse">
      <feOffset input="SourceAlpha"/>
      <feGaussianBlur stdDeviation="10" result="blur-16"/>
      <feFlood flood-color="#fffbfc" flood-opacity="0.4"/>
      <feComposite operator="in" in2="blur-16"/>
      <feComposite in="SourceGraphic"/>
    </filter>
    <filter id="Polygone_46" x="154.549" y="15.803" width="74.05" height="74.05" filterUnits="userSpaceOnUse">
      <feOffset input="SourceAlpha"/>
      <feGaussianBlur stdDeviation="10" result="blur-17"/>
      <feFlood flood-color="#fffbfc" flood-opacity="0.4"/>
      <feComposite operator="in" in2="blur-17"/>
      <feComposite in="SourceGraphic"/>
    </filter>
    <filter id="Polygone_47" x="173.845" y="4.947" width="71.448" height="71.448" filterUnits="userSpaceOnUse">
      <feOffset input="SourceAlpha"/>
      <feGaussianBlur stdDeviation="10" result="blur-18"/>
      <feFlood flood-color="#fffbfc" flood-opacity="0.4"/>
      <feComposite operator="in" in2="blur-18"/>
      <feComposite in="SourceGraphic"/>
    </filter>
    <filter id="Polygone_48" x="113.983" y="168.12" width="71.549" height="71.549" filterUnits="userSpaceOnUse">
      <feOffset input="SourceAlpha"/>
      <feGaussianBlur stdDeviation="10" result="blur-19"/>
      <feFlood flood-color="#fffbfc" flood-opacity="0.4"/>
      <feComposite operator="in" in2="blur-19"/>
      <feComposite in="SourceGraphic"/>
    </filter>
    <filter id="Polygone_49" x="199.453" y="282.939" width="79.034" height="79.034" filterUnits="userSpaceOnUse">
      <feOffset input="SourceAlpha"/>
      <feGaussianBlur stdDeviation="10" result="blur-20"/>
      <feFlood flood-color="#fffbfc" flood-opacity="0.4"/>
      <feComposite operator="in" in2="blur-20"/>
      <feComposite in="SourceGraphic"/>
    </filter>
    <filter id="Polygone_50" x="244.425" y="265.313" width="69.19" height="69.19" filterUnits="userSpaceOnUse">
      <feOffset input="SourceAlpha"/>
      <feGaussianBlur stdDeviation="10" result="blur-21"/>
      <feFlood flood-color="#fffbfc" flood-opacity="0.4"/>
      <feComposite operator="in" in2="blur-21"/>
      <feComposite in="SourceGraphic"/>
    </filter>
    <filter id="Polygone_51" x="201.999" y="296.928" width="69.794" height="69.794" filterUnits="userSpaceOnUse">
      <feOffset input="SourceAlpha"/>
      <feGaussianBlur stdDeviation="10" result="blur-22"/>
      <feFlood flood-color="#fffbfc" flood-opacity="0.4"/>
      <feComposite operator="in" in2="blur-22"/>
      <feComposite in="SourceGraphic"/>
    </filter>
    <filter id="Polygone_52" x="160.103" y="247.022" width="69.794" height="69.794" filterUnits="userSpaceOnUse">
      <feOffset input="SourceAlpha"/>
      <feGaussianBlur stdDeviation="10" result="blur-23"/>
      <feFlood flood-color="#fffbfc" flood-opacity="0.4"/>
      <feComposite operator="in" in2="blur-23"/>
      <feComposite in="SourceGraphic"/>
    </filter>
    <filter id="Polygone_53" x="145.91" y="246.661" width="67.294" height="67.294" filterUnits="userSpaceOnUse">
      <feOffset input="SourceAlpha"/>
      <feGaussianBlur stdDeviation="10" result="blur-24"/>
      <feFlood flood-color="#fffbfc" flood-opacity="0.4"/>
      <feComposite operator="in" in2="blur-24"/>
      <feComposite in="SourceGraphic"/>
    </filter>
    <filter id="Polygone_54" x="284.959" y="286.464" width="69.794" height="69.794" filterUnits="userSpaceOnUse">
      <feOffset input="SourceAlpha"/>
      <feGaussianBlur stdDeviation="10" result="blur-25"/>
      <feFlood flood-color="#fffbfc" flood-opacity="0.4"/>
      <feComposite operator="in" in2="blur-25"/>
      <feComposite in="SourceGraphic"/>
    </filter>
    <filter id="Polygone_55" x="198.467" y="105.705" width="68.055" height="68.055" filterUnits="userSpaceOnUse">
      <feOffset input="SourceAlpha"/>
      <feGaussianBlur stdDeviation="10" result="blur-26"/>
      <feFlood flood-color="#fffbfc" flood-opacity="0.4"/>
      <feComposite operator="in" in2="blur-26"/>
      <feComposite in="SourceGraphic"/>
    </filter>
    <filter id="Polygone_56" x="171.766" y="217.99" width="67.294" height="67.294" filterUnits="userSpaceOnUse">
      <feOffset input="SourceAlpha"/>
      <feGaussianBlur stdDeviation="10" result="blur-27"/>
      <feFlood flood-color="#fffbfc" flood-opacity="0.4"/>
      <feComposite operator="in" in2="blur-27"/>
      <feComposite in="SourceGraphic"/>
    </filter>
    <filter id="Polygone_57" x="199.447" y="24.248" width="70.321" height="70.321" filterUnits="userSpaceOnUse">
      <feOffset input="SourceAlpha"/>
      <feGaussianBlur stdDeviation="10" result="blur-28"/>
      <feFlood flood-color="#fffbfc" flood-opacity="0.4"/>
      <feComposite operator="in" in2="blur-28"/>
      <feComposite in="SourceGraphic"/>
    </filter>
    <filter id="Polygone_58" x="253.582" y="58.058" width="70.321" height="70.321" filterUnits="userSpaceOnUse">
      <feOffset input="SourceAlpha"/>
      <feGaussianBlur stdDeviation="10" result="blur-29"/>
      <feFlood flood-color="#fffbfc" flood-opacity="0.4"/>
      <feComposite operator="in" in2="blur-29"/>
      <feComposite in="SourceGraphic"/>
    </filter>
    <filter id="Polygone_59" x="269.606" y="56.036" width="68.018" height="68.018" filterUnits="userSpaceOnUse">
      <feOffset input="SourceAlpha"/>
      <feGaussianBlur stdDeviation="10" result="blur-30"/>
      <feFlood flood-color="#fffbfc" flood-opacity="0.4"/>
      <feComposite operator="in" in2="blur-30"/>
      <feComposite in="SourceGraphic"/>
    </filter>
    <filter id="Polygone_60" x="126.529" y="60.304" width="67.926" height="67.926" filterUnits="userSpaceOnUse">
      <feOffset input="SourceAlpha"/>
      <feGaussianBlur stdDeviation="10" result="blur-31"/>
      <feFlood flood-color="#fffbfc" flood-opacity="0.4"/>
      <feComposite operator="in" in2="blur-31"/>
      <feComposite in="SourceGraphic"/>
    </filter>
    <filter id="Polygone_61" x="263.425" y="203.597" width="66.85" height="66.85" filterUnits="userSpaceOnUse">
      <feOffset input="SourceAlpha"/>
      <feGaussianBlur stdDeviation="10" result="blur-32"/>
      <feFlood flood-color="#fffbfc" flood-opacity="0.4"/>
      <feComposite operator="in" in2="blur-32"/>
      <feComposite in="SourceGraphic"/>
    </filter>
    <filter id="Polygone_62" x="254.197" y="90.572" width="68.018" height="68.018" filterUnits="userSpaceOnUse">
      <feOffset input="SourceAlpha"/>
      <feGaussianBlur stdDeviation="10" result="blur-33"/>
      <feFlood flood-color="#fffbfc" flood-opacity="0.4"/>
      <feComposite operator="in" in2="blur-33"/>
      <feComposite in="SourceGraphic"/>
    </filter>
    <filter id="Polygone_63" x="214.665" y="179.402" width="74.697" height="74.697" filterUnits="userSpaceOnUse">
      <feOffset input="SourceAlpha"/>
      <feGaussianBlur stdDeviation="10" result="blur-34"/>
      <feFlood flood-color="#fffbfc" flood-opacity="0.4"/>
      <feComposite operator="in" in2="blur-34"/>
      <feComposite in="SourceGraphic"/>
    </filter>
    <filter id="Polygone_64" x="92.511" y="189.64" width="74.697" height="74.697" filterUnits="userSpaceOnUse">
      <feOffset input="SourceAlpha"/>
      <feGaussianBlur stdDeviation="10" result="blur-35"/>
      <feFlood flood-color="#fffbfc" flood-opacity="0.4"/>
      <feComposite operator="in" in2="blur-35"/>
      <feComposite in="SourceGraphic"/>
    </filter>
    <filter id="Polygone_65" x="198.083" y="139.742" width="72.231" height="72.231" filterUnits="userSpaceOnUse">
      <feOffset input="SourceAlpha"/>
      <feGaussianBlur stdDeviation="10" result="blur-36"/>
      <feFlood flood-color="#fffbfc" flood-opacity="0.4"/>
      <feComposite operator="in" in2="blur-36"/>
      <feComposite in="SourceGraphic"/>
    </filter>
    <filter id="Polygone_66" x="196.234" y="161.054" width="69.01" height="69.01" filterUnits="userSpaceOnUse">
      <feOffset input="SourceAlpha"/>
      <feGaussianBlur stdDeviation="10" result="blur-37"/>
      <feFlood flood-color="#fffbfc" flood-opacity="0.4"/>
      <feComposite operator="in" in2="blur-37"/>
      <feComposite in="SourceGraphic"/>
    </filter>
    <filter id="Polygone_67" x="161.711" y="125.247" width="69.01" height="69.01" filterUnits="userSpaceOnUse">
      <feOffset input="SourceAlpha"/>
      <feGaussianBlur stdDeviation="10" result="blur-38"/>
      <feFlood flood-color="#fffbfc" flood-opacity="0.4"/>
      <feComposite operator="in" in2="blur-38"/>
      <feComposite in="SourceGraphic"/>
    </filter>
  </defs>
  <g id="Groupe_114" data-name="Groupe 114" transform="translate(25.951 -147)">
    <g id="Groupe_113" data-name="Groupe 113" transform="translate(217.844 200.413)">
      <g transform="matrix(1, 0, 0, 1, -243.79, -53.41)" filter="url(#Polygone_30)">
        <path id="Polygone_30-2" data-name="Polygone 30" d="M4.1,3.358a1.18,1.18,0,0,1,2.238,0h0a1.18,1.18,0,0,0,.746.746h0a1.18,1.18,0,0,1,0,2.238h0a1.18,1.18,0,0,0-.746.746h0a1.18,1.18,0,0,1-2.238,0h0a1.18,1.18,0,0,0-.746-.746h0a1.18,1.18,0,0,1,0-2.238h0A1.18,1.18,0,0,0,4.1,3.358Z" transform="translate(394.23 297.98)" fill="#fffbfc"/>
      </g>
      <g transform="matrix(1, 0, 0, 1, -243.79, -53.41)" filter="url(#Polygone_31)">
        <path id="Polygone_31-2" data-name="Polygone 31" d="M4.1,3.358a1.18,1.18,0,0,1,2.238,0h0a1.18,1.18,0,0,0,.746.746h0a1.18,1.18,0,0,1,0,2.238h0a1.18,1.18,0,0,0-.746.746h0a1.18,1.18,0,0,1-2.238,0h0a1.18,1.18,0,0,0-.746-.746h0a1.18,1.18,0,0,1,0-2.238h0A1.18,1.18,0,0,0,4.1,3.358Z" transform="translate(30 235.3)" fill="#fffbfc"/>
      </g>
      <g transform="matrix(1, 0, 0, 1, -243.79, -53.41)" filter="url(#Polygone_32)">
        <path id="Polygone_32-2" data-name="Polygone 32" d="M6.8,5.567a1.956,1.956,0,0,1,3.711,0h0A1.956,1.956,0,0,0,11.752,6.8h0a1.956,1.956,0,0,1,0,3.711h0a1.956,1.956,0,0,0-1.237,1.237h0a1.956,1.956,0,0,1-3.711,0h0a1.956,1.956,0,0,0-1.237-1.237h0a1.956,1.956,0,0,1,0-3.711h0A1.956,1.956,0,0,0,6.8,5.567Z" transform="translate(102.62 323.98) rotate(-17)" fill="#fffbfc"/>
      </g>
      <g transform="matrix(1, 0, 0, 1, -243.79, -53.41)" filter="url(#Polygone_33)">
        <path id="Polygone_33-2" data-name="Polygone 33" d="M4.1,3.358a1.18,1.18,0,0,1,2.238,0h0a1.18,1.18,0,0,0,.746.746h0a1.18,1.18,0,0,1,0,2.238h0a1.18,1.18,0,0,0-.746.746h0a1.18,1.18,0,0,1-2.238,0h0a1.18,1.18,0,0,0-.746-.746h0a1.18,1.18,0,0,1,0-2.238h0A1.18,1.18,0,0,0,4.1,3.358Z" transform="translate(147.65 363.95)" fill="#fffbfc"/>
      </g>
      <g transform="matrix(1, 0, 0, 1, -243.79, -53.41)" filter="url(#Polygone_34)">
        <path id="Polygone_34-2" data-name="Polygone 34" d="M4.1,3.358a1.18,1.18,0,0,1,2.238,0h0a1.18,1.18,0,0,0,.746.746h0a1.18,1.18,0,0,1,0,2.238h0a1.18,1.18,0,0,0-.746.746h0a1.18,1.18,0,0,1-2.238,0h0a1.18,1.18,0,0,0-.746-.746h0a1.18,1.18,0,0,1,0-2.238h0A1.18,1.18,0,0,0,4.1,3.358Z" transform="translate(307.09 324.64)" fill="#fffbfc"/>
      </g>
      <g transform="matrix(1, 0, 0, 1, -243.79, -53.41)" filter="url(#Polygone_35)">
        <path id="Polygone_35-2" data-name="Polygone 35" d="M3.24,2.651a.931.931,0,0,1,1.767,0h0A.931.931,0,0,0,5.6,3.24h0a.931.931,0,0,1,0,1.767h0a.931.931,0,0,0-.589.589h0a.931.931,0,0,1-1.767,0h0a.931.931,0,0,0-.589-.589h0a.931.931,0,0,1,0-1.767h0a.931.931,0,0,0,.589-.589Z" transform="translate(298.21 344.27) rotate(7)" fill="#fffbfc"/>
      </g>
      <g transform="matrix(1, 0, 0, 1, -243.79, -53.41)" filter="url(#Polygone_36)">
        <path id="Polygone_36-2" data-name="Polygone 36" d="M4.1,3.358a1.18,1.18,0,0,1,2.238,0h0a1.18,1.18,0,0,0,.746.746h0a1.18,1.18,0,0,1,0,2.238h0a1.18,1.18,0,0,0-.746.746h0a1.18,1.18,0,0,1-2.238,0h0a1.18,1.18,0,0,0-.746-.746h0a1.18,1.18,0,0,1,0-2.238h0A1.18,1.18,0,0,0,4.1,3.358Z" transform="matrix(-0.72, 0.69, -0.69, -0.72, 133.16, 398.74)" fill="#fffbfc"/>
      </g>
      <g transform="matrix(1, 0, 0, 1, -243.79, -53.41)" filter="url(#Polygone_37)">
        <path id="Polygone_37-2" data-name="Polygone 37" d="M4.1,3.358a1.18,1.18,0,0,1,2.238,0h0a1.18,1.18,0,0,0,.746.746h0a1.18,1.18,0,0,1,0,2.238h0a1.18,1.18,0,0,0-.746.746h0a1.18,1.18,0,0,1-2.238,0h0a1.18,1.18,0,0,0-.746-.746h0a1.18,1.18,0,0,1,0-2.238h0A1.18,1.18,0,0,0,4.1,3.358Z" transform="matrix(-0.72, 0.69, -0.69, -0.72, 438.7, 190.81)" fill="#fffbfc"/>
      </g>
      <g transform="matrix(1, 0, 0, 1, -243.79, -53.41)" filter="url(#Polygone_38)">
        <path id="Polygone_38-2" data-name="Polygone 38" d="M6.8,5.567a1.956,1.956,0,0,1,3.711,0h0A1.956,1.956,0,0,0,11.752,6.8h0a1.956,1.956,0,0,1,0,3.711h0a1.956,1.956,0,0,0-1.237,1.237h0a1.956,1.956,0,0,1-3.711,0h0a1.956,1.956,0,0,0-1.237-1.237h0a1.956,1.956,0,0,1,0-3.711h0A1.956,1.956,0,0,0,6.8,5.567Z" transform="translate(319.05 149.84) rotate(119)" fill="#fffbfc"/>
      </g>
      <g transform="matrix(1, 0, 0, 1, -243.79, -53.41)" filter="url(#Polygone_39)">
        <path id="Polygone_39-2" data-name="Polygone 39" d="M4.1,3.358a1.18,1.18,0,0,1,2.238,0h0a1.18,1.18,0,0,0,.746.746h0a1.18,1.18,0,0,1,0,2.238h0a1.18,1.18,0,0,0-.746.746h0a1.18,1.18,0,0,1-2.238,0h0a1.18,1.18,0,0,0-.746-.746h0a1.18,1.18,0,0,1,0-2.238h0A1.18,1.18,0,0,0,4.1,3.358Z" transform="matrix(-0.72, 0.69, -0.69, -0.72, 293.79, 190.66)" fill="#fffbfc"/>
      </g>
      <g transform="matrix(1, 0, 0, 1, -243.79, -53.41)" filter="url(#Polygone_40)">
        <path id="Polygone_40-2" data-name="Polygone 40" d="M4.1,3.358a1.18,1.18,0,0,1,2.238,0h0a1.18,1.18,0,0,0,.746.746h0a1.18,1.18,0,0,1,0,2.238h0a1.18,1.18,0,0,0-.746.746h0a1.18,1.18,0,0,1-2.238,0h0a1.18,1.18,0,0,0-.746-.746h0a1.18,1.18,0,0,1,0-2.238h0A1.18,1.18,0,0,0,4.1,3.358Z" transform="matrix(-0.72, 0.69, -0.69, -0.72, 177.32, 319.03)" fill="#fffbfc"/>
      </g>
      <g transform="matrix(1, 0, 0, 1, -243.79, -53.41)" filter="url(#Polygone_41)">
        <path id="Polygone_41-2" data-name="Polygone 41" d="M3.24,2.651a.931.931,0,0,1,1.767,0h0A.931.931,0,0,0,5.6,3.24h0a.931.931,0,0,1,0,1.767h0a.931.931,0,0,0-.589.589h0a.931.931,0,0,1-1.767,0h0a.931.931,0,0,0-.589-.589h0a.931.931,0,0,1,0-1.767h0a.931.931,0,0,0,.589-.589Z" transform="translate(170.07 298.74) rotate(143)" fill="#fffbfc"/>
      </g>
      <g transform="matrix(1, 0, 0, 1, -243.79, -53.41)" filter="url(#Polygone_42)">
        <path id="Polygone_42-2" data-name="Polygone 42" d="M4.1,3.358a1.18,1.18,0,0,1,2.238,0h0a1.18,1.18,0,0,0,.746.746h0a1.18,1.18,0,0,1,0,2.238h0a1.18,1.18,0,0,0-.746.746h0a1.18,1.18,0,0,1-2.238,0h0a1.18,1.18,0,0,0-.746-.746h0a1.18,1.18,0,0,1,0-2.238h0A1.18,1.18,0,0,0,4.1,3.358Z" transform="matrix(-0.89, -0.45, 0.45, -0.89, 104.11, 44.05)" fill="#fffbfc"/>
      </g>
      <g transform="matrix(1, 0, 0, 1, -243.79, -53.41)" filter="url(#Polygone_43)">
        <path id="Polygone_43-2" data-name="Polygone 43" d="M4.1,3.358a1.18,1.18,0,0,1,2.238,0h0a1.18,1.18,0,0,0,.746.746h0a1.18,1.18,0,0,1,0,2.238h0a1.18,1.18,0,0,0-.746.746h0a1.18,1.18,0,0,1-2.238,0h0a1.18,1.18,0,0,0-.746-.746h0a1.18,1.18,0,0,1,0-2.238h0A1.18,1.18,0,0,0,4.1,3.358Z" transform="matrix(-0.89, -0.45, 0.45, -0.89, 400.19, 265.25)" fill="#fffbfc"/>
      </g>
      <g transform="matrix(1, 0, 0, 1, -243.79, -53.41)" filter="url(#Polygone_44)">
        <path id="Polygone_44-2" data-name="Polygone 44" d="M6.8,5.567a1.956,1.956,0,0,1,3.711,0h0A1.956,1.956,0,0,0,11.752,6.8h0a1.956,1.956,0,0,1,0,3.711h0a1.956,1.956,0,0,0-1.237,1.237h0a1.956,1.956,0,0,1-3.711,0h0a1.956,1.956,0,0,0-1.237-1.237h0a1.956,1.956,0,0,1,0-3.711h0A1.956,1.956,0,0,0,6.8,5.567Z" transform="translate(375.74 153.27) rotate(-170)" fill="#fffbfc"/>
      </g>
      <g transform="matrix(1, 0, 0, 1, -243.79, -53.41)" filter="url(#Polygone_45)">
        <path id="Polygone_45-2" data-name="Polygone 45" d="M4.1,3.358a1.18,1.18,0,0,1,2.238,0h0a1.18,1.18,0,0,0,.746.746h0a1.18,1.18,0,0,1,0,2.238h0a1.18,1.18,0,0,0-.746.746h0a1.18,1.18,0,0,1-2.238,0h0a1.18,1.18,0,0,0-.746-.746h0a1.18,1.18,0,0,1,0-2.238h0A1.18,1.18,0,0,0,4.1,3.358Z" transform="matrix(-0.89, -0.45, 0.45, -0.89, 353.76, 97.21)" fill="#fffbfc"/>
      </g>
      <g transform="matrix(1, 0, 0, 1, -243.79, -53.41)" filter="url(#Polygone_46)">
        <path id="Polygone_46-2" data-name="Polygone 46" d="M4.1,3.358a1.18,1.18,0,0,1,2.238,0h0a1.18,1.18,0,0,0,.746.746h0a1.18,1.18,0,0,1,0,2.238h0a1.18,1.18,0,0,0-.746.746h0a1.18,1.18,0,0,1-2.238,0h0a1.18,1.18,0,0,0-.746-.746h0a1.18,1.18,0,0,1,0-2.238h0A1.18,1.18,0,0,0,4.1,3.358Z" transform="matrix(-0.89, -0.45, 0.45, -0.89, 193.86, 59.85)" fill="#fffbfc"/>
      </g>
      <g transform="matrix(1, 0, 0, 1, -243.79, -53.41)" filter="url(#Polygone_47)">
        <path id="Polygone_47-2" data-name="Polygone 47" d="M3.24,2.651a.931.931,0,0,1,1.767,0h0A.931.931,0,0,0,5.6,3.24h0a.931.931,0,0,1,0,1.767h0a.931.931,0,0,0-.589.589h0a.931.931,0,0,1-1.767,0h0a.931.931,0,0,0-.589-.589h0a.931.931,0,0,1,0-1.767h0a.931.931,0,0,0,.589-.589Z" transform="matrix(-0.83, -0.56, 0.56, -0.83, 210.68, 46.4)" fill="#fffbfc"/>
      </g>
      <g transform="matrix(1, 0, 0, 1, -243.79, -53.41)" filter="url(#Polygone_48)">
        <path id="Polygone_48-2" data-name="Polygone 48" d="M3.24,2.651a.931.931,0,0,1,1.767,0h0A.931.931,0,0,0,5.6,3.24h0a.931.931,0,0,1,0,1.767h0a.931.931,0,0,0-.589.589h0a.931.931,0,0,1-1.767,0h0a.931.931,0,0,0-.589-.589h0a.931.931,0,0,1,0-1.767h0a.931.931,0,0,0,.589-.589Z" transform="translate(155.53 204.71) rotate(143)" fill="#fffbfc"/>
      </g>
      <g transform="matrix(1, 0, 0, 1, -243.79, -53.41)" filter="url(#Polygone_49)">
        <path id="Polygone_49-2" data-name="Polygone 49" d="M6.8,5.567a1.956,1.956,0,0,1,3.711,0h0A1.956,1.956,0,0,0,11.752,6.8h0a1.956,1.956,0,0,1,0,3.711h0a1.956,1.956,0,0,0-1.237,1.237h0a1.956,1.956,0,0,1-3.711,0h0a1.956,1.956,0,0,0-1.237-1.237h0a1.956,1.956,0,0,1,0-3.711h0A1.956,1.956,0,0,0,6.8,5.567Z" transform="matrix(0.99, 0.1, -0.1, 0.99, 231.26, 312.94)" fill="#fffbfc"/>
      </g>
      <g transform="matrix(1, 0, 0, 1, -243.79, -53.41)" filter="url(#Polygone_50)">
        <path id="Polygone_50-2" data-name="Polygone 50" d="M3.24,2.651a.931.931,0,0,1,1.767,0h0A.931.931,0,0,0,5.6,3.24h0a.931.931,0,0,1,0,1.767h0a.931.931,0,0,0-.589.589h0a.931.931,0,0,1-1.767,0h0a.931.931,0,0,0-.589-.589h0a.931.931,0,0,1,0-1.767h0a.931.931,0,0,0,.589-.589Z" transform="translate(275.43 295.31) rotate(7)" fill="#fffbfc"/>
      </g>
      <g transform="matrix(1, 0, 0, 1, -243.79, -53.41)" filter="url(#Polygone_51)">
        <path id="Polygone_51-2" data-name="Polygone 51" d="M2.934,2.4a.844.844,0,0,1,1.6,0h0a.844.844,0,0,0,.534.534h0a.844.844,0,0,1,0,1.6h0a.844.844,0,0,0-.534.534h0a.844.844,0,0,1-1.6,0h0A.844.844,0,0,0,2.4,4.535h0a.844.844,0,0,1,0-1.6h0A.844.844,0,0,0,2.934,2.4Z" transform="translate(238.87 326.93) rotate(67)" fill="#fffbfc"/>
      </g>
      <g transform="matrix(1, 0, 0, 1, -243.79, -53.41)" filter="url(#Polygone_52)">
        <path id="Polygone_52-2" data-name="Polygone 52" d="M2.934,2.4a.844.844,0,0,1,1.6,0h0a.844.844,0,0,0,.534.534h0a.844.844,0,0,1,0,1.6h0a.844.844,0,0,0-.534.534h0a.844.844,0,0,1-1.6,0h0A.844.844,0,0,0,2.4,4.535h0a.844.844,0,0,1,0-1.6h0A.844.844,0,0,0,2.934,2.4Z" transform="translate(196.98 277.02) rotate(67)" fill="#fffbfc"/>
      </g>
      <g transform="matrix(1, 0, 0, 1, -243.79, -53.41)" filter="url(#Polygone_53)">
        <path id="Polygone_53-2" data-name="Polygone 53" d="M2.317,1.9a.666.666,0,0,1,1.264,0h0A.666.666,0,0,0,4,2.317H4A.666.666,0,0,1,4,3.58H4A.666.666,0,0,0,3.58,4h0A.666.666,0,0,1,2.317,4h0A.666.666,0,0,0,1.9,3.58h0a.666.666,0,0,1,0-1.264h0A.666.666,0,0,0,2.317,1.9Z" transform="translate(181.58 276.66) rotate(74)" fill="#fffbfc"/>
      </g>
      <g transform="matrix(1, 0, 0, 1, -243.79, -53.41)" filter="url(#Polygone_54)">
        <path id="Polygone_54-2" data-name="Polygone 54" d="M2.934,2.4a.844.844,0,0,1,1.6,0h0a.844.844,0,0,0,.534.534h0a.844.844,0,0,1,0,1.6h0a.844.844,0,0,0-.534.534h0a.844.844,0,0,1-1.6,0h0A.844.844,0,0,0,2.4,4.535h0a.844.844,0,0,1,0-1.6h0A.844.844,0,0,0,2.934,2.4Z" transform="matrix(-0.92, -0.39, 0.39, -0.92, 321.83, 326.26)" fill="#fffbfc"/>
      </g>
      <g transform="matrix(1, 0, 0, 1, -243.79, -53.41)" filter="url(#Polygone_55)">
        <path id="Polygone_55-2" data-name="Polygone 55" d="M2.317,1.9a.666.666,0,0,1,1.264,0h0A.666.666,0,0,0,4,2.317H4A.666.666,0,0,1,4,3.58H4A.666.666,0,0,0,3.58,4h0A.666.666,0,0,1,2.317,4h0A.666.666,0,0,0,1.9,3.58h0a.666.666,0,0,1,0-1.264h0A.666.666,0,0,0,2.317,1.9Z" transform="matrix(-0.87, -0.5, 0.5, -0.87, 233.57, 143.76)" fill="#fffbfc"/>
      </g>
      <g transform="matrix(1, 0, 0, 1, -243.79, -53.41)" filter="url(#Polygone_56)">
        <path id="Polygone_56-2" data-name="Polygone 56" d="M2.317,1.9a.666.666,0,0,1,1.264,0h0A.666.666,0,0,0,4,2.317H4A.666.666,0,0,1,4,3.58H4A.666.666,0,0,0,3.58,4h0A.666.666,0,0,1,2.317,4h0A.666.666,0,0,0,1.9,3.58h0a.666.666,0,0,1,0-1.264h0A.666.666,0,0,0,2.317,1.9Z" transform="translate(207.43 247.99) rotate(74)" fill="#fffbfc"/>
      </g>
      <g transform="matrix(1, 0, 0, 1, -243.79, -53.41)" filter="url(#Polygone_57)">
        <path id="Polygone_57-2" data-name="Polygone 57" d="M2.874,2.352a.826.826,0,0,1,1.568,0h0a.826.826,0,0,0,.523.523h0a.826.826,0,0,1,0,1.568h0a.826.826,0,0,0-.523.523h0a.826.826,0,0,1-1.568,0h0a.826.826,0,0,0-.523-.523h0a.826.826,0,0,1,0-1.568h0a.826.826,0,0,0,.523-.523Z" transform="translate(234.25 64.57) rotate(-131)" fill="#fffbfc"/>
      </g>
      <g transform="matrix(1, 0, 0, 1, -243.79, -53.41)" filter="url(#Polygone_58)">
        <path id="Polygone_58-2" data-name="Polygone 58" d="M2.874,2.352a.826.826,0,0,1,1.568,0h0a.826.826,0,0,0,.523.523h0a.826.826,0,0,1,0,1.568h0a.826.826,0,0,0-.523.523h0a.826.826,0,0,1-1.568,0h0a.826.826,0,0,0-.523-.523h0a.826.826,0,0,1,0-1.568h0a.826.826,0,0,0,.523-.523Z" transform="translate(288.38 98.38) rotate(-131)" fill="#fffbfc"/>
      </g>
      <g transform="matrix(1, 0, 0, 1, -243.79, -53.41)" filter="url(#Polygone_59)">
        <path id="Polygone_59-2" data-name="Polygone 59" d="M2.269,1.857a.652.652,0,0,1,1.238,0h0a.652.652,0,0,0,.413.413h0a.652.652,0,0,1,0,1.238h0a.652.652,0,0,0-.413.413h0a.652.652,0,0,1-1.238,0h0a.652.652,0,0,0-.413-.413h0a.652.652,0,0,1,0-1.238h0A.652.652,0,0,0,2.269,1.857Z" transform="translate(302.84 94.05) rotate(-124)" fill="#fffbfc"/>
      </g>
      <g transform="matrix(1, 0, 0, 1, -243.79, -53.41)" filter="url(#Polygone_60)">
        <path id="Polygone_60-2" data-name="Polygone 60" d="M2.874,2.352a.826.826,0,0,1,1.568,0h0a.826.826,0,0,0,.523.523h0a.826.826,0,0,1,0,1.568h0a.826.826,0,0,0-.523.523h0a.826.826,0,0,1-1.568,0h0a.826.826,0,0,0-.523-.523h0a.826.826,0,0,1,0-1.568h0a.826.826,0,0,0,.523-.523Z" transform="translate(157.17 90.3) rotate(5)" fill="#fffbfc"/>
      </g>
      <g transform="matrix(1, 0, 0, 1, -243.79, -53.41)" filter="url(#Polygone_61)">
        <path id="Polygone_61-2" data-name="Polygone 61" d="M2.269,1.857a.652.652,0,0,1,1.238,0h0a.652.652,0,0,0,.413.413h0a.652.652,0,0,1,0,1.238h0a.652.652,0,0,0-.413.413h0a.652.652,0,0,1-1.238,0h0a.652.652,0,0,0-.413-.413h0a.652.652,0,0,1,0-1.238h0A.652.652,0,0,0,2.269,1.857Z" transform="matrix(0.98, 0.21, -0.21, 0.98, 294.63, 233.6)" fill="#fffbfc"/>
      </g>
      <g transform="matrix(1, 0, 0, 1, -243.79, -53.41)" filter="url(#Polygone_62)">
        <path id="Polygone_62-2" data-name="Polygone 62" d="M2.269,1.857a.652.652,0,0,1,1.238,0h0a.652.652,0,0,0,.413.413h0a.652.652,0,0,1,0,1.238h0a.652.652,0,0,0-.413.413h0a.652.652,0,0,1-1.238,0h0a.652.652,0,0,0-.413-.413h0a.652.652,0,0,1,0-1.238h0A.652.652,0,0,0,2.269,1.857Z" transform="translate(287.43 128.59) rotate(-124)" fill="#fffbfc"/>
      </g>
      <g transform="matrix(1, 0, 0, 1, -243.79, -53.41)" filter="url(#Polygone_63)">
        <path id="Polygone_63-2" data-name="Polygone 63" d="M4.174,3.415a1.2,1.2,0,0,1,2.277,0h0a1.2,1.2,0,0,0,.759.759h0a1.2,1.2,0,0,1,0,2.277h0a1.2,1.2,0,0,0-.759.759h0a1.2,1.2,0,0,1-2.277,0h0a1.2,1.2,0,0,0-.759-.759h0a1.2,1.2,0,0,1,0-2.277h0a1.2,1.2,0,0,0,.759-.759Z" transform="translate(253.58 209.4) rotate(57)" fill="#fffbfc"/>
      </g>
      <g transform="matrix(1, 0, 0, 1, -243.79, -53.41)" filter="url(#Polygone_64)">
        <path id="Polygone_64-2" data-name="Polygone 64" d="M4.174,3.415a1.2,1.2,0,0,1,2.277,0h0a1.2,1.2,0,0,0,.759.759h0a1.2,1.2,0,0,1,0,2.277h0a1.2,1.2,0,0,0-.759.759h0a1.2,1.2,0,0,1-2.277,0h0a1.2,1.2,0,0,0-.759-.759h0a1.2,1.2,0,0,1,0-2.277h0a1.2,1.2,0,0,0,.759-.759Z" transform="translate(131.42 219.64) rotate(57)" fill="#fffbfc"/>
      </g>
      <g transform="matrix(1, 0, 0, 1, -243.79, -53.41)" filter="url(#Polygone_65)">
        <path id="Polygone_65-2" data-name="Polygone 65" d="M3.78,3.093a1.087,1.087,0,0,1,2.062,0h0a1.087,1.087,0,0,0,.687.687h0a1.087,1.087,0,0,1,0,2.062h0a1.087,1.087,0,0,0-.687.687h0a1.087,1.087,0,0,1-2.062,0h0a1.087,1.087,0,0,0-.687-.687h0a1.087,1.087,0,0,1,0-2.062h0a1.087,1.087,0,0,0,.687-.687Z" transform="matrix(0.95, -0.33, 0.33, 0.95, 228.08, 172.87)" fill="#fffbfc"/>
      </g>
      <g transform="matrix(1, 0, 0, 1, -243.79, -53.41)" filter="url(#Polygone_66)">
        <path id="Polygone_66-2" data-name="Polygone 66" d="M2.984,2.442a.858.858,0,0,1,1.628,0h0a.858.858,0,0,0,.543.543h0a.858.858,0,0,1,0,1.628h0a.858.858,0,0,0-.543.543h0a.858.858,0,0,1-1.628,0h0a.858.858,0,0,0-.543-.543h0a.858.858,0,0,1,0-1.628h0a.858.858,0,0,0,.543-.543Z" transform="translate(226.23 192.63) rotate(-12)" fill="#fffbfc"/>
      </g>
      <g transform="matrix(1, 0, 0, 1, -243.79, -53.41)" filter="url(#Polygone_67)">
        <path id="Polygone_67-2" data-name="Polygone 67" d="M2.984,2.442a.858.858,0,0,1,1.628,0h0a.858.858,0,0,0,.543.543h0a.858.858,0,0,1,0,1.628h0a.858.858,0,0,0-.543.543h0a.858.858,0,0,1-1.628,0h0a.858.858,0,0,0-.543-.543h0a.858.858,0,0,1,0-1.628h0a.858.858,0,0,0,.543-.543Z" transform="translate(191.71 156.83) rotate(-12)" fill="#fffbfc"/>
      </g>
    </g>
  </g>
</svg>
