<svg xmlns="http://www.w3.org/2000/svg" xmlns:xlink="http://www.w3.org/1999/xlink" width="474" height="440.872" viewBox="0 0 474 440.872">
  <defs>
    <filter id="Polygone_30" x="368.953" y="271.448" width="70.581" height="70.581" filterUnits="userSpaceOnUse">
      <feOffset input="SourceAlpha"/>
      <feGaussianBlur stdDeviation="10" result="blur"/>
      <feFlood flood-color="#fffbfc" flood-opacity="0.4"/>
      <feComposite operator="in" in2="blur"/>
      <feComposite in="SourceGraphic"/>
    </filter>
    <filter id="Polygone_31" x="0" y="207.961" width="70.581" height="70.581" filterUnits="userSpaceOnUse">
      <feOffset input="SourceAlpha"/>
      <feGaussianBlur stdDeviation="10" result="blur-2"/>
      <feFlood flood-color="#fffbfc" flood-opacity="0.4"/>
      <feComposite operator="in" in2="blur-2"/>
      <feComposite in="SourceGraphic"/>
    </filter>
    <filter id="Polygone_32" x="73.558" y="292.658" width="81.905" height="81.905" filterUnits="userSpaceOnUse">
      <feOffset input="SourceAlpha"/>
      <feGaussianBlur stdDeviation="10" result="blur-3"/>
      <feFlood flood-color="#fffbfc" flood-opacity="0.4"/>
      <feComposite operator="in" in2="blur-3"/>
      <feComposite in="SourceGraphic"/>
    </filter>
    <filter id="Polygone_33" x="119.179" y="338.278" width="70.581" height="70.581" filterUnits="userSpaceOnUse">
      <feOffset input="SourceAlpha"/>
      <feGaussianBlur stdDeviation="10" result="blur-4"/>
      <feFlood flood-color="#fffbfc" flood-opacity="0.4"/>
      <feComposite operator="in" in2="blur-4"/>
      <feComposite in="SourceGraphic"/>
    </filter>
    <filter id="Polygone_34" x="280.682" y="298.459" width="70.581" height="70.581" filterUnits="userSpaceOnUse">
      <feOffset input="SourceAlpha"/>
      <feGaussianBlur stdDeviation="10" result="blur-5"/>
      <feFlood flood-color="#fffbfc" flood-opacity="0.4"/>
      <feComposite operator="in" in2="blur-5"/>
      <feComposite in="SourceGraphic"/>
    </filter>
    <filter id="Polygone_35" x="270.669" y="318.341" width="69.309" height="69.309" filterUnits="userSpaceOnUse">
      <feOffset input="SourceAlpha"/>
      <feGaussianBlur stdDeviation="10" result="blur-6"/>
      <feFlood flood-color="#fffbfc" flood-opacity="0.4"/>
      <feComposite operator="in" in2="blur-6"/>
      <feComposite in="SourceGraphic"/>
    </filter>
    <filter id="Polygone_36" x="89.534" y="365.91" width="74.962" height="74.962" filterUnits="userSpaceOnUse">
      <feOffset input="SourceAlpha"/>
      <feGaussianBlur stdDeviation="10" result="blur-7"/>
      <feFlood flood-color="#fffbfc" flood-opacity="0.4"/>
      <feComposite operator="in" in2="blur-7"/>
      <feComposite in="SourceGraphic"/>
    </filter>
    <filter id="Polygone_37" x="399.038" y="155.282" width="74.962" height="74.962" filterUnits="userSpaceOnUse">
      <feOffset input="SourceAlpha"/>
      <feGaussianBlur stdDeviation="10" result="blur-8"/>
      <feFlood flood-color="#fffbfc" flood-opacity="0.4"/>
      <feComposite operator="in" in2="blur-8"/>
      <feComposite in="SourceGraphic"/>
    </filter>
    <filter id="Polygone_38" x="268.95" y="112.885" width="83.848" height="83.848" filterUnits="userSpaceOnUse">
      <feOffset input="SourceAlpha"/>
      <feGaussianBlur stdDeviation="10" result="blur-9"/>
      <feFlood flood-color="#fffbfc" flood-opacity="0.4"/>
      <feComposite operator="in" in2="blur-9"/>
      <feComposite in="SourceGraphic"/>
    </filter>
    <filter id="Polygone_39" x="252.243" y="155.131" width="74.962" height="74.962" filterUnits="userSpaceOnUse">
      <feOffset input="SourceAlpha"/>
      <feGaussianBlur stdDeviation="10" result="blur-10"/>
      <feFlood flood-color="#fffbfc" flood-opacity="0.4"/>
      <feComposite operator="in" in2="blur-10"/>
      <feComposite in="SourceGraphic"/>
    </filter>
    <filter id="Polygone_40" x="134.267" y="285.162" width="74.962" height="74.962" filterUnits="userSpaceOnUse">
      <feOffset input="SourceAlpha"/>
      <feGaussianBlur stdDeviation="10" result="blur-11"/>
      <feFlood flood-color="#fffbfc" flood-opacity="0.4"/>
      <feComposite operator="in" in2="blur-11"/>
      <feComposite in="SourceGraphic"/>
    </filter>
    <filter id="Polygone_41" x="130.189" y="265.551" width="71.699" height="71.699" filterUnits="userSpaceOnUse">
      <feOffset input="SourceAlpha"/>
      <feGaussianBlur stdDeviation="10" result="blur-12"/>
      <feFlood flood-color="#fffbfc" flood-opacity="0.4"/>
      <feComposite operator="in" in2="blur-12"/>
      <feComposite in="SourceGraphic"/>
    </filter>
    <filter id="Polygone_42" x="65.64" y="0" width="74.232" height="74.232" filterUnits="userSpaceOnUse">
      <feOffset input="SourceAlpha"/>
      <feGaussianBlur stdDeviation="10" result="blur-13"/>
      <feFlood flood-color="#fffbfc" flood-opacity="0.4"/>
      <feComposite operator="in" in2="blur-13"/>
      <feComposite in="SourceGraphic"/>
    </filter>
    <filter id="Polygone_43" x="365.557" y="224.069" width="74.232" height="74.232" filterUnits="userSpaceOnUse">
      <feOffset input="SourceAlpha"/>
      <feGaussianBlur stdDeviation="10" result="blur-14"/>
      <feFlood flood-color="#fffbfc" flood-opacity="0.4"/>
      <feComposite operator="in" in2="blur-14"/>
      <feComposite in="SourceGraphic"/>
    </filter>
    <filter id="Polygone_44" x="332.948" y="104.548" width="80.322" height="80.322" filterUnits="userSpaceOnUse">
      <feOffset input="SourceAlpha"/>
      <feGaussianBlur stdDeviation="10" result="blur-15"/>
      <feFlood flood-color="#fffbfc" flood-opacity="0.4"/>
      <feComposite operator="in" in2="blur-15"/>
      <feComposite in="SourceGraphic"/>
    </filter>
    <filter id="Polygone_45" x="318.53" y="53.85" width="74.232" height="74.232" filterUnits="userSpaceOnUse">
      <feOffset input="SourceAlpha"/>
      <feGaussianBlur stdDeviation="10" result="blur-16"/>
      <feFlood flood-color="#fffbfc" flood-opacity="0.4"/>
      <feComposite operator="in" in2="blur-16"/>
      <feComposite in="SourceGraphic"/>
    </filter>
    <filter id="Polygone_46" x="156.552" y="16.008" width="74.232" height="74.232" filterUnits="userSpaceOnUse">
      <feOffset input="SourceAlpha"/>
      <feGaussianBlur stdDeviation="10" result="blur-17"/>
      <feFlood flood-color="#fffbfc" flood-opacity="0.4"/>
      <feComposite operator="in" in2="blur-17"/>
      <feComposite in="SourceGraphic"/>
    </filter>
    <filter id="Polygone_47" x="176.097" y="5.011" width="71.597" height="71.597" filterUnits="userSpaceOnUse">
      <feOffset input="SourceAlpha"/>
      <feGaussianBlur stdDeviation="10" result="blur-18"/>
      <feFlood flood-color="#fffbfc" flood-opacity="0.4"/>
      <feComposite operator="in" in2="blur-18"/>
      <feComposite in="SourceGraphic"/>
    </filter>
    <filter id="Polygone_48" x="115.46" y="170.299" width="71.699" height="71.699" filterUnits="userSpaceOnUse">
      <feOffset input="SourceAlpha"/>
      <feGaussianBlur stdDeviation="10" result="blur-19"/>
      <feFlood flood-color="#fffbfc" flood-opacity="0.4"/>
      <feComposite operator="in" in2="blur-19"/>
      <feComposite in="SourceGraphic"/>
    </filter>
    <filter id="Polygone_49" x="202.038" y="286.605" width="79.28" height="79.28" filterUnits="userSpaceOnUse">
      <feOffset input="SourceAlpha"/>
      <feGaussianBlur stdDeviation="10" result="blur-20"/>
      <feFlood flood-color="#fffbfc" flood-opacity="0.4"/>
      <feComposite operator="in" in2="blur-20"/>
      <feComposite in="SourceGraphic"/>
    </filter>
    <filter id="Polygone_50" x="247.592" y="268.751" width="69.309" height="69.309" filterUnits="userSpaceOnUse">
      <feOffset input="SourceAlpha"/>
      <feGaussianBlur stdDeviation="10" result="blur-21"/>
      <feFlood flood-color="#fffbfc" flood-opacity="0.4"/>
      <feComposite operator="in" in2="blur-21"/>
      <feComposite in="SourceGraphic"/>
    </filter>
    <filter id="Polygone_51" x="204.616" y="300.775" width="69.921" height="69.921" filterUnits="userSpaceOnUse">
      <feOffset input="SourceAlpha"/>
      <feGaussianBlur stdDeviation="10" result="blur-22"/>
      <feFlood flood-color="#fffbfc" flood-opacity="0.4"/>
      <feComposite operator="in" in2="blur-22"/>
      <feComposite in="SourceGraphic"/>
    </filter>
    <filter id="Polygone_52" x="162.177" y="250.223" width="69.921" height="69.921" filterUnits="userSpaceOnUse">
      <feOffset input="SourceAlpha"/>
      <feGaussianBlur stdDeviation="10" result="blur-23"/>
      <feFlood flood-color="#fffbfc" flood-opacity="0.4"/>
      <feComposite operator="in" in2="blur-23"/>
      <feComposite in="SourceGraphic"/>
    </filter>
    <filter id="Polygone_53" x="147.8" y="249.857" width="67.388" height="67.388" filterUnits="userSpaceOnUse">
      <feOffset input="SourceAlpha"/>
      <feGaussianBlur stdDeviation="10" result="blur-24"/>
      <feFlood flood-color="#fffbfc" flood-opacity="0.4"/>
      <feComposite operator="in" in2="blur-24"/>
      <feComposite in="SourceGraphic"/>
    </filter>
    <filter id="Polygone_54" x="288.651" y="290.176" width="69.921" height="69.921" filterUnits="userSpaceOnUse">
      <feOffset input="SourceAlpha"/>
      <feGaussianBlur stdDeviation="10" result="blur-25"/>
      <feFlood flood-color="#fffbfc" flood-opacity="0.4"/>
      <feComposite operator="in" in2="blur-25"/>
      <feComposite in="SourceGraphic"/>
    </filter>
    <filter id="Polygone_55" x="201.038" y="107.075" width="68.159" height="68.159" filterUnits="userSpaceOnUse">
      <feOffset input="SourceAlpha"/>
      <feGaussianBlur stdDeviation="10" result="blur-26"/>
      <feFlood flood-color="#fffbfc" flood-opacity="0.4"/>
      <feComposite operator="in" in2="blur-26"/>
      <feComposite in="SourceGraphic"/>
    </filter>
    <filter id="Polygone_56" x="173.991" y="220.814" width="67.388" height="67.388" filterUnits="userSpaceOnUse">
      <feOffset input="SourceAlpha"/>
      <feGaussianBlur stdDeviation="10" result="blur-27"/>
      <feFlood flood-color="#fffbfc" flood-opacity="0.4"/>
      <feComposite operator="in" in2="blur-27"/>
      <feComposite in="SourceGraphic"/>
    </filter>
    <filter id="Polygone_57" x="202.031" y="24.563" width="70.455" height="70.455" filterUnits="userSpaceOnUse">
      <feOffset input="SourceAlpha"/>
      <feGaussianBlur stdDeviation="10" result="blur-28"/>
      <feFlood flood-color="#fffbfc" flood-opacity="0.4"/>
      <feComposite operator="in" in2="blur-28"/>
      <feComposite in="SourceGraphic"/>
    </filter>
    <filter id="Polygone_58" x="256.867" y="58.81" width="70.455" height="70.455" filterUnits="userSpaceOnUse">
      <feOffset input="SourceAlpha"/>
      <feGaussianBlur stdDeviation="10" result="blur-29"/>
      <feFlood flood-color="#fffbfc" flood-opacity="0.4"/>
      <feComposite operator="in" in2="blur-29"/>
      <feComposite in="SourceGraphic"/>
    </filter>
    <filter id="Polygone_59" x="273.099" y="56.762" width="68.122" height="68.122" filterUnits="userSpaceOnUse">
      <feOffset input="SourceAlpha"/>
      <feGaussianBlur stdDeviation="10" result="blur-30"/>
      <feFlood flood-color="#fffbfc" flood-opacity="0.4"/>
      <feComposite operator="in" in2="blur-30"/>
      <feComposite in="SourceGraphic"/>
    </filter>
    <filter id="Polygone_60" x="128.169" y="61.086" width="68.028" height="68.029" filterUnits="userSpaceOnUse">
      <feOffset input="SourceAlpha"/>
      <feGaussianBlur stdDeviation="10" result="blur-31"/>
      <feFlood flood-color="#fffbfc" flood-opacity="0.4"/>
      <feComposite operator="in" in2="blur-31"/>
      <feComposite in="SourceGraphic"/>
    </filter>
    <filter id="Polygone_61" x="266.838" y="206.235" width="66.939" height="66.939" filterUnits="userSpaceOnUse">
      <feOffset input="SourceAlpha"/>
      <feGaussianBlur stdDeviation="10" result="blur-32"/>
      <feFlood flood-color="#fffbfc" flood-opacity="0.4"/>
      <feComposite operator="in" in2="blur-32"/>
      <feComposite in="SourceGraphic"/>
    </filter>
    <filter id="Polygone_62" x="257.491" y="91.746" width="68.122" height="68.122" filterUnits="userSpaceOnUse">
      <feOffset input="SourceAlpha"/>
      <feGaussianBlur stdDeviation="10" result="blur-33"/>
      <feFlood flood-color="#fffbfc" flood-opacity="0.4"/>
      <feComposite operator="in" in2="blur-33"/>
      <feComposite in="SourceGraphic"/>
    </filter>
    <filter id="Polygone_63" x="217.447" y="181.727" width="74.887" height="74.887" filterUnits="userSpaceOnUse">
      <feOffset input="SourceAlpha"/>
      <feGaussianBlur stdDeviation="10" result="blur-34"/>
      <feFlood flood-color="#fffbfc" flood-opacity="0.4"/>
      <feComposite operator="in" in2="blur-34"/>
      <feComposite in="SourceGraphic"/>
    </filter>
    <filter id="Polygone_64" x="93.71" y="192.097" width="74.887" height="74.887" filterUnits="userSpaceOnUse">
      <feOffset input="SourceAlpha"/>
      <feGaussianBlur stdDeviation="10" result="blur-35"/>
      <feFlood flood-color="#fffbfc" flood-opacity="0.4"/>
      <feComposite operator="in" in2="blur-35"/>
      <feComposite in="SourceGraphic"/>
    </filter>
    <filter id="Polygone_65" x="200.649" y="141.553" width="72.389" height="72.389" filterUnits="userSpaceOnUse">
      <feOffset input="SourceAlpha"/>
      <feGaussianBlur stdDeviation="10" result="blur-36"/>
      <feFlood flood-color="#fffbfc" flood-opacity="0.4"/>
      <feComposite operator="in" in2="blur-36"/>
      <feComposite in="SourceGraphic"/>
    </filter>
    <filter id="Polygone_66" x="198.776" y="163.141" width="69.127" height="69.127" filterUnits="userSpaceOnUse">
      <feOffset input="SourceAlpha"/>
      <feGaussianBlur stdDeviation="10" result="blur-37"/>
      <feFlood flood-color="#fffbfc" flood-opacity="0.4"/>
      <feComposite operator="in" in2="blur-37"/>
      <feComposite in="SourceGraphic"/>
    </filter>
    <filter id="Polygone_67" x="163.807" y="126.87" width="69.127" height="69.127" filterUnits="userSpaceOnUse">
      <feOffset input="SourceAlpha"/>
      <feGaussianBlur stdDeviation="10" result="blur-38"/>
      <feFlood flood-color="#fffbfc" flood-opacity="0.4"/>
      <feComposite operator="in" in2="blur-38"/>
      <feComposite in="SourceGraphic"/>
    </filter>
  </defs>
  <g id="Groupe_105" data-name="Groupe 105" transform="translate(30 -169.91)">
    <g id="Groupe_104" data-name="Groupe 104" transform="translate(213.795 223.323)">
      <g transform="matrix(1, 0, 0, 1, -243.79, -53.41)" filter="url(#Polygone_30)">
        <path id="Polygone_30-2" data-name="Polygone 30" d="M4.157,3.4a1.2,1.2,0,0,1,2.267,0h0a1.2,1.2,0,0,0,.756.756h0a1.2,1.2,0,0,1,0,2.267h0a1.2,1.2,0,0,0-.756.756h0a1.2,1.2,0,0,1-2.267,0h0A1.2,1.2,0,0,0,3.4,6.424h0a1.2,1.2,0,0,1,0-2.267h0A1.2,1.2,0,0,0,4.157,3.4Z" transform="translate(398.95 301.45)" fill="#fffbfc"/>
      </g>
      <g transform="matrix(1, 0, 0, 1, -243.79, -53.41)" filter="url(#Polygone_31)">
        <path id="Polygone_31-2" data-name="Polygone 31" d="M4.157,3.4a1.2,1.2,0,0,1,2.267,0h0a1.2,1.2,0,0,0,.756.756h0a1.2,1.2,0,0,1,0,2.267h0a1.2,1.2,0,0,0-.756.756h0a1.2,1.2,0,0,1-2.267,0h0A1.2,1.2,0,0,0,3.4,6.424h0a1.2,1.2,0,0,1,0-2.267h0A1.2,1.2,0,0,0,4.157,3.4Z" transform="translate(30 237.96)" fill="#fffbfc"/>
      </g>
      <g transform="matrix(1, 0, 0, 1, -243.79, -53.41)" filter="url(#Polygone_32)">
        <path id="Polygone_32-2" data-name="Polygone 32" d="M6.892,5.639a1.981,1.981,0,0,1,3.759,0h0A1.981,1.981,0,0,0,11.9,6.892h0a1.981,1.981,0,0,1,0,3.759h0A1.981,1.981,0,0,0,10.651,11.9h0a1.981,1.981,0,0,1-3.759,0h0a1.981,1.981,0,0,0-1.253-1.253h0a1.981,1.981,0,0,1,0-3.759h0A1.981,1.981,0,0,0,6.892,5.639Z" transform="translate(103.56 327.79) rotate(-17)" fill="#fffbfc"/>
      </g>
      <g transform="matrix(1, 0, 0, 1, -243.79, -53.41)" filter="url(#Polygone_33)">
        <path id="Polygone_33-2" data-name="Polygone 33" d="M4.157,3.4a1.2,1.2,0,0,1,2.267,0h0a1.2,1.2,0,0,0,.756.756h0a1.2,1.2,0,0,1,0,2.267h0a1.2,1.2,0,0,0-.756.756h0a1.2,1.2,0,0,1-2.267,0h0A1.2,1.2,0,0,0,3.4,6.424h0a1.2,1.2,0,0,1,0-2.267h0A1.2,1.2,0,0,0,4.157,3.4Z" transform="translate(149.18 368.28)" fill="#fffbfc"/>
      </g>
      <g transform="matrix(1, 0, 0, 1, -243.79, -53.41)" filter="url(#Polygone_34)">
        <path id="Polygone_34-2" data-name="Polygone 34" d="M4.157,3.4a1.2,1.2,0,0,1,2.267,0h0a1.2,1.2,0,0,0,.756.756h0a1.2,1.2,0,0,1,0,2.267h0a1.2,1.2,0,0,0-.756.756h0a1.2,1.2,0,0,1-2.267,0h0A1.2,1.2,0,0,0,3.4,6.424h0a1.2,1.2,0,0,1,0-2.267h0A1.2,1.2,0,0,0,4.157,3.4Z" transform="translate(310.68 328.46)" fill="#fffbfc"/>
      </g>
      <g transform="matrix(1, 0, 0, 1, -243.79, -53.41)" filter="url(#Polygone_35)">
        <path id="Polygone_35-2" data-name="Polygone 35" d="M3.282,2.685a.943.943,0,0,1,1.79,0h0a.943.943,0,0,0,.6.6h0a.943.943,0,0,1,0,1.79h0a.943.943,0,0,0-.6.6h0a.943.943,0,0,1-1.79,0h0a.943.943,0,0,0-.6-.6h0a.943.943,0,0,1,0-1.79h0a.943.943,0,0,0,.6-.6Z" transform="translate(301.69 348.34) rotate(7)" fill="#fffbfc"/>
      </g>
      <g transform="matrix(1, 0, 0, 1, -243.79, -53.41)" filter="url(#Polygone_36)">
        <path id="Polygone_36-2" data-name="Polygone 36" d="M4.157,3.4a1.2,1.2,0,0,1,2.267,0h0a1.2,1.2,0,0,0,.756.756h0a1.2,1.2,0,0,1,0,2.267h0a1.2,1.2,0,0,0-.756.756h0a1.2,1.2,0,0,1-2.267,0h0A1.2,1.2,0,0,0,3.4,6.424h0a1.2,1.2,0,0,1,0-2.267h0A1.2,1.2,0,0,0,4.157,3.4Z" transform="matrix(-0.72, 0.69, -0.69, -0.72, 134.5, 403.52)" fill="#fffbfc"/>
      </g>
      <g transform="matrix(1, 0, 0, 1, -243.79, -53.41)" filter="url(#Polygone_37)">
        <path id="Polygone_37-2" data-name="Polygone 37" d="M4.157,3.4a1.2,1.2,0,0,1,2.267,0h0a1.2,1.2,0,0,0,.756.756h0a1.2,1.2,0,0,1,0,2.267h0a1.2,1.2,0,0,0-.756.756h0a1.2,1.2,0,0,1-2.267,0h0A1.2,1.2,0,0,0,3.4,6.424h0a1.2,1.2,0,0,1,0-2.267h0A1.2,1.2,0,0,0,4.157,3.4Z" transform="matrix(-0.72, 0.69, -0.69, -0.72, 444, 192.89)" fill="#fffbfc"/>
      </g>
      <g transform="matrix(1, 0, 0, 1, -243.79, -53.41)" filter="url(#Polygone_38)">
        <path id="Polygone_38-2" data-name="Polygone 38" d="M6.892,5.639a1.981,1.981,0,0,1,3.759,0h0A1.981,1.981,0,0,0,11.9,6.892h0a1.981,1.981,0,0,1,0,3.759h0A1.981,1.981,0,0,0,10.651,11.9h0a1.981,1.981,0,0,1-3.759,0h0a1.981,1.981,0,0,0-1.253-1.253h0a1.981,1.981,0,0,1,0-3.759h0A1.981,1.981,0,0,0,6.892,5.639Z" transform="translate(322.8 151.39) rotate(119)" fill="#fffbfc"/>
      </g>
      <g transform="matrix(1, 0, 0, 1, -243.79, -53.41)" filter="url(#Polygone_39)">
        <path id="Polygone_39-2" data-name="Polygone 39" d="M4.157,3.4a1.2,1.2,0,0,1,2.267,0h0a1.2,1.2,0,0,0,.756.756h0a1.2,1.2,0,0,1,0,2.267h0a1.2,1.2,0,0,0-.756.756h0a1.2,1.2,0,0,1-2.267,0h0A1.2,1.2,0,0,0,3.4,6.424h0a1.2,1.2,0,0,1,0-2.267h0A1.2,1.2,0,0,0,4.157,3.4Z" transform="matrix(-0.72, 0.69, -0.69, -0.72, 297.2, 192.74)" fill="#fffbfc"/>
      </g>
      <g transform="matrix(1, 0, 0, 1, -243.79, -53.41)" filter="url(#Polygone_40)">
        <path id="Polygone_40-2" data-name="Polygone 40" d="M4.157,3.4a1.2,1.2,0,0,1,2.267,0h0a1.2,1.2,0,0,0,.756.756h0a1.2,1.2,0,0,1,0,2.267h0a1.2,1.2,0,0,0-.756.756h0a1.2,1.2,0,0,1-2.267,0h0A1.2,1.2,0,0,0,3.4,6.424h0a1.2,1.2,0,0,1,0-2.267h0A1.2,1.2,0,0,0,4.157,3.4Z" transform="matrix(-0.72, 0.69, -0.69, -0.72, 179.23, 322.77)" fill="#fffbfc"/>
      </g>
      <g transform="matrix(1, 0, 0, 1, -243.79, -53.41)" filter="url(#Polygone_41)">
        <path id="Polygone_41-2" data-name="Polygone 41" d="M3.282,2.685a.943.943,0,0,1,1.79,0h0a.943.943,0,0,0,.6.6h0a.943.943,0,0,1,0,1.79h0a.943.943,0,0,0-.6.6h0a.943.943,0,0,1-1.79,0h0a.943.943,0,0,0-.6-.6h0a.943.943,0,0,1,0-1.79h0a.943.943,0,0,0,.6-.6Z" transform="translate(171.89 302.22) rotate(143)" fill="#fffbfc"/>
      </g>
      <g transform="matrix(1, 0, 0, 1, -243.79, -53.41)" filter="url(#Polygone_42)">
        <path id="Polygone_42-2" data-name="Polygone 42" d="M4.157,3.4a1.2,1.2,0,0,1,2.267,0h0a1.2,1.2,0,0,0,.756.756h0a1.2,1.2,0,0,1,0,2.267h0a1.2,1.2,0,0,0-.756.756h0a1.2,1.2,0,0,1-2.267,0h0A1.2,1.2,0,0,0,3.4,6.424h0a1.2,1.2,0,0,1,0-2.267h0A1.2,1.2,0,0,0,4.157,3.4Z" transform="matrix(-0.89, -0.45, 0.45, -0.89, 105.07, 44.23)" fill="#fffbfc"/>
      </g>
      <g transform="matrix(1, 0, 0, 1, -243.79, -53.41)" filter="url(#Polygone_43)">
        <path id="Polygone_43-2" data-name="Polygone 43" d="M4.157,3.4a1.2,1.2,0,0,1,2.267,0h0a1.2,1.2,0,0,0,.756.756h0a1.2,1.2,0,0,1,0,2.267h0a1.2,1.2,0,0,0-.756.756h0a1.2,1.2,0,0,1-2.267,0h0A1.2,1.2,0,0,0,3.4,6.424h0a1.2,1.2,0,0,1,0-2.267h0A1.2,1.2,0,0,0,4.157,3.4Z" transform="matrix(-0.89, -0.45, 0.45, -0.89, 404.99, 268.3)" fill="#fffbfc"/>
      </g>
      <g transform="matrix(1, 0, 0, 1, -243.79, -53.41)" filter="url(#Polygone_44)">
        <path id="Polygone_44-2" data-name="Polygone 44" d="M6.892,5.639a1.981,1.981,0,0,1,3.759,0h0A1.981,1.981,0,0,0,11.9,6.892h0a1.981,1.981,0,0,1,0,3.759h0A1.981,1.981,0,0,0,10.651,11.9h0a1.981,1.981,0,0,1-3.759,0h0a1.981,1.981,0,0,0-1.253-1.253h0a1.981,1.981,0,0,1,0-3.759h0A1.981,1.981,0,0,0,6.892,5.639Z" transform="translate(380.22 154.87) rotate(-170)" fill="#fffbfc"/>
      </g>
      <g transform="matrix(1, 0, 0, 1, -243.79, -53.41)" filter="url(#Polygone_45)">
        <path id="Polygone_45-2" data-name="Polygone 45" d="M4.157,3.4a1.2,1.2,0,0,1,2.267,0h0a1.2,1.2,0,0,0,.756.756h0a1.2,1.2,0,0,1,0,2.267h0a1.2,1.2,0,0,0-.756.756h0a1.2,1.2,0,0,1-2.267,0h0A1.2,1.2,0,0,0,3.4,6.424h0a1.2,1.2,0,0,1,0-2.267h0A1.2,1.2,0,0,0,4.157,3.4Z" transform="matrix(-0.89, -0.45, 0.45, -0.89, 357.96, 98.08)" fill="#fffbfc"/>
      </g>
      <g transform="matrix(1, 0, 0, 1, -243.79, -53.41)" filter="url(#Polygone_46)">
        <path id="Polygone_46-2" data-name="Polygone 46" d="M4.157,3.4a1.2,1.2,0,0,1,2.267,0h0a1.2,1.2,0,0,0,.756.756h0a1.2,1.2,0,0,1,0,2.267h0a1.2,1.2,0,0,0-.756.756h0a1.2,1.2,0,0,1-2.267,0h0A1.2,1.2,0,0,0,3.4,6.424h0a1.2,1.2,0,0,1,0-2.267h0A1.2,1.2,0,0,0,4.157,3.4Z" transform="matrix(-0.89, -0.45, 0.45, -0.89, 195.98, 60.24)" fill="#fffbfc"/>
      </g>
      <g transform="matrix(1, 0, 0, 1, -243.79, -53.41)" filter="url(#Polygone_47)">
        <path id="Polygone_47-2" data-name="Polygone 47" d="M3.282,2.685a.943.943,0,0,1,1.79,0h0a.943.943,0,0,0,.6.6h0a.943.943,0,0,1,0,1.79h0a.943.943,0,0,0-.6.6h0a.943.943,0,0,1-1.79,0h0a.943.943,0,0,0-.6-.6h0a.943.943,0,0,1,0-1.79h0a.943.943,0,0,0,.6-.6Z" transform="matrix(-0.83, -0.56, 0.56, -0.83, 213.02, 46.61)" fill="#fffbfc"/>
      </g>
      <g transform="matrix(1, 0, 0, 1, -243.79, -53.41)" filter="url(#Polygone_48)">
        <path id="Polygone_48-2" data-name="Polygone 48" d="M3.282,2.685a.943.943,0,0,1,1.79,0h0a.943.943,0,0,0,.6.6h0a.943.943,0,0,1,0,1.79h0a.943.943,0,0,0-.6.6h0a.943.943,0,0,1-1.79,0h0a.943.943,0,0,0-.6-.6h0a.943.943,0,0,1,0-1.79h0a.943.943,0,0,0,.6-.6Z" transform="translate(157.16 206.97) rotate(143)" fill="#fffbfc"/>
      </g>
      <g transform="matrix(1, 0, 0, 1, -243.79, -53.41)" filter="url(#Polygone_49)">
        <path id="Polygone_49-2" data-name="Polygone 49" d="M6.892,5.639a1.981,1.981,0,0,1,3.759,0h0A1.981,1.981,0,0,0,11.9,6.892h0a1.981,1.981,0,0,1,0,3.759h0A1.981,1.981,0,0,0,10.651,11.9h0a1.981,1.981,0,0,1-3.759,0h0a1.981,1.981,0,0,0-1.253-1.253h0a1.981,1.981,0,0,1,0-3.759h0A1.981,1.981,0,0,0,6.892,5.639Z" transform="matrix(0.99, 0.1, -0.1, 0.99, 233.87, 316.6)" fill="#fffbfc"/>
      </g>
      <g transform="matrix(1, 0, 0, 1, -243.79, -53.41)" filter="url(#Polygone_50)">
        <path id="Polygone_50-2" data-name="Polygone 50" d="M3.282,2.685a.943.943,0,0,1,1.79,0h0a.943.943,0,0,0,.6.6h0a.943.943,0,0,1,0,1.79h0a.943.943,0,0,0-.6.6h0a.943.943,0,0,1-1.79,0h0a.943.943,0,0,0-.6-.6h0a.943.943,0,0,1,0-1.79h0a.943.943,0,0,0,.6-.6Z" transform="translate(278.61 298.75) rotate(7)" fill="#fffbfc"/>
      </g>
      <g transform="matrix(1, 0, 0, 1, -243.79, -53.41)" filter="url(#Polygone_51)">
        <path id="Polygone_51-2" data-name="Polygone 51" d="M2.972,2.432a.854.854,0,0,1,1.621,0h0a.854.854,0,0,0,.54.54h0a.854.854,0,0,1,0,1.621h0a.854.854,0,0,0-.54.54h0a.854.854,0,0,1-1.621,0h0a.854.854,0,0,0-.54-.54h0a.854.854,0,0,1,0-1.621h0a.854.854,0,0,0,.54-.54Z" transform="translate(241.58 330.78) rotate(67)" fill="#fffbfc"/>
      </g>
      <g transform="matrix(1, 0, 0, 1, -243.79, -53.41)" filter="url(#Polygone_52)">
        <path id="Polygone_52-2" data-name="Polygone 52" d="M2.972,2.432a.854.854,0,0,1,1.621,0h0a.854.854,0,0,0,.54.54h0a.854.854,0,0,1,0,1.621h0a.854.854,0,0,0-.54.54h0a.854.854,0,0,1-1.621,0h0a.854.854,0,0,0-.54-.54h0a.854.854,0,0,1,0-1.621h0a.854.854,0,0,0,.54-.54Z" transform="translate(199.14 280.22) rotate(67)" fill="#fffbfc"/>
      </g>
      <g transform="matrix(1, 0, 0, 1, -243.79, -53.41)" filter="url(#Polygone_53)">
        <path id="Polygone_53-2" data-name="Polygone 53" d="M2.347,1.92a.675.675,0,0,1,1.28,0h0a.675.675,0,0,0,.427.427h0a.675.675,0,0,1,0,1.28h0a.675.675,0,0,0-.427.427h0a.675.675,0,0,1-1.28,0h0a.675.675,0,0,0-.427-.427h0a.675.675,0,0,1,0-1.28h0a.675.675,0,0,0,.427-.427Z" transform="translate(183.54 279.86) rotate(74)" fill="#fffbfc"/>
      </g>
      <g transform="matrix(1, 0, 0, 1, -243.79, -53.41)" filter="url(#Polygone_54)">
        <path id="Polygone_54-2" data-name="Polygone 54" d="M2.972,2.432a.854.854,0,0,1,1.621,0h0a.854.854,0,0,0,.54.54h0a.854.854,0,0,1,0,1.621h0a.854.854,0,0,0-.54.54h0a.854.854,0,0,1-1.621,0h0a.854.854,0,0,0-.54-.54h0a.854.854,0,0,1,0-1.621h0a.854.854,0,0,0,.54-.54Z" transform="matrix(-0.92, -0.39, 0.39, -0.92, 325.62, 330.1)" fill="#fffbfc"/>
      </g>
      <g transform="matrix(1, 0, 0, 1, -243.79, -53.41)" filter="url(#Polygone_55)">
        <path id="Polygone_55-2" data-name="Polygone 55" d="M2.347,1.92a.675.675,0,0,1,1.28,0h0a.675.675,0,0,0,.427.427h0a.675.675,0,0,1,0,1.28h0a.675.675,0,0,0-.427.427h0a.675.675,0,0,1-1.28,0h0a.675.675,0,0,0-.427-.427h0a.675.675,0,0,1,0-1.28h0a.675.675,0,0,0,.427-.427Z" transform="matrix(-0.87, -0.5, 0.5, -0.87, 236.21, 145.23)" fill="#fffbfc"/>
      </g>
      <g transform="matrix(1, 0, 0, 1, -243.79, -53.41)" filter="url(#Polygone_56)">
        <path id="Polygone_56-2" data-name="Polygone 56" d="M2.347,1.92a.675.675,0,0,1,1.28,0h0a.675.675,0,0,0,.427.427h0a.675.675,0,0,1,0,1.28h0a.675.675,0,0,0-.427.427h0a.675.675,0,0,1-1.28,0h0a.675.675,0,0,0-.427-.427h0a.675.675,0,0,1,0-1.28h0a.675.675,0,0,0,.427-.427Z" transform="translate(209.73 250.81) rotate(74)" fill="#fffbfc"/>
      </g>
      <g transform="matrix(1, 0, 0, 1, -243.79, -53.41)" filter="url(#Polygone_57)">
        <path id="Polygone_57-2" data-name="Polygone 57" d="M2.911,2.382a.837.837,0,0,1,1.588,0h0a.837.837,0,0,0,.529.529h0a.837.837,0,0,1,0,1.588h0a.837.837,0,0,0-.529.529h0a.837.837,0,0,1-1.588,0h0A.837.837,0,0,0,2.382,4.5h0a.837.837,0,0,1,0-1.588h0a.837.837,0,0,0,.529-.529Z" transform="translate(236.89 65.02) rotate(-131)" fill="#fffbfc"/>
      </g>
      <g transform="matrix(1, 0, 0, 1, -243.79, -53.41)" filter="url(#Polygone_58)">
        <path id="Polygone_58-2" data-name="Polygone 58" d="M2.911,2.382a.837.837,0,0,1,1.588,0h0a.837.837,0,0,0,.529.529h0a.837.837,0,0,1,0,1.588h0a.837.837,0,0,0-.529.529h0a.837.837,0,0,1-1.588,0h0A.837.837,0,0,0,2.382,4.5h0a.837.837,0,0,1,0-1.588h0a.837.837,0,0,0,.529-.529Z" transform="translate(291.73 99.26) rotate(-131)" fill="#fffbfc"/>
      </g>
      <g transform="matrix(1, 0, 0, 1, -243.79, -53.41)" filter="url(#Polygone_59)">
        <path id="Polygone_59-2" data-name="Polygone 59" d="M2.3,1.881a.661.661,0,0,1,1.254,0h0A.661.661,0,0,0,3.97,2.3h0a.661.661,0,0,1,0,1.254h0a.661.661,0,0,0-.418.418h0a.661.661,0,0,1-1.254,0h0a.661.661,0,0,0-.418-.418h0a.661.661,0,0,1,0-1.254h0A.661.661,0,0,0,2.3,1.881Z" transform="translate(306.37 94.88) rotate(-124)" fill="#fffbfc"/>
      </g>
      <g transform="matrix(1, 0, 0, 1, -243.79, -53.41)" filter="url(#Polygone_60)">
        <path id="Polygone_60-2" data-name="Polygone 60" d="M2.911,2.382a.837.837,0,0,1,1.588,0h0a.837.837,0,0,0,.529.529h0a.837.837,0,0,1,0,1.588h0a.837.837,0,0,0-.529.529h0a.837.837,0,0,1-1.588,0h0A.837.837,0,0,0,2.382,4.5h0a.837.837,0,0,1,0-1.588h0a.837.837,0,0,0,.529-.529Z" transform="translate(158.81 91.09) rotate(5)" fill="#fffbfc"/>
      </g>
      <g transform="matrix(1, 0, 0, 1, -243.79, -53.41)" filter="url(#Polygone_61)">
        <path id="Polygone_61-2" data-name="Polygone 61" d="M2.3,1.881a.661.661,0,0,1,1.254,0h0A.661.661,0,0,0,3.97,2.3h0a.661.661,0,0,1,0,1.254h0a.661.661,0,0,0-.418.418h0a.661.661,0,0,1-1.254,0h0a.661.661,0,0,0-.418-.418h0a.661.661,0,0,1,0-1.254h0A.661.661,0,0,0,2.3,1.881Z" transform="matrix(0.98, 0.21, -0.21, 0.98, 298.05, 236.23)" fill="#fffbfc"/>
      </g>
      <g transform="matrix(1, 0, 0, 1, -243.79, -53.41)" filter="url(#Polygone_62)">
        <path id="Polygone_62-2" data-name="Polygone 62" d="M2.3,1.881a.661.661,0,0,1,1.254,0h0A.661.661,0,0,0,3.97,2.3h0a.661.661,0,0,1,0,1.254h0a.661.661,0,0,0-.418.418h0a.661.661,0,0,1-1.254,0h0a.661.661,0,0,0-.418-.418h0a.661.661,0,0,1,0-1.254h0A.661.661,0,0,0,2.3,1.881Z" transform="translate(290.76 129.87) rotate(-124)" fill="#fffbfc"/>
      </g>
      <g transform="matrix(1, 0, 0, 1, -243.79, -53.41)" filter="url(#Polygone_63)">
        <path id="Polygone_63-2" data-name="Polygone 63" d="M4.228,3.459a1.215,1.215,0,0,1,2.306,0h0a1.215,1.215,0,0,0,.769.769h0a1.215,1.215,0,0,1,0,2.306h0a1.215,1.215,0,0,0-.769.769h0a1.215,1.215,0,0,1-2.306,0h0a1.215,1.215,0,0,0-.769-.769h0a1.215,1.215,0,0,1,0-2.306h0a1.215,1.215,0,0,0,.769-.769Z" transform="translate(256.47 211.73) rotate(57)" fill="#fffbfc"/>
      </g>
      <g transform="matrix(1, 0, 0, 1, -243.79, -53.41)" filter="url(#Polygone_64)">
        <path id="Polygone_64-2" data-name="Polygone 64" d="M4.228,3.459a1.215,1.215,0,0,1,2.306,0h0a1.215,1.215,0,0,0,.769.769h0a1.215,1.215,0,0,1,0,2.306h0a1.215,1.215,0,0,0-.769.769h0a1.215,1.215,0,0,1-2.306,0h0a1.215,1.215,0,0,0-.769-.769h0a1.215,1.215,0,0,1,0-2.306h0a1.215,1.215,0,0,0,.769-.769Z" transform="translate(132.74 222.1) rotate(57)" fill="#fffbfc"/>
      </g>
      <g transform="matrix(1, 0, 0, 1, -243.79, -53.41)" filter="url(#Polygone_65)">
        <path id="Polygone_65-2" data-name="Polygone 65" d="M3.829,3.133a1.1,1.1,0,0,1,2.089,0h0a1.1,1.1,0,0,0,.7.7h0a1.1,1.1,0,0,1,0,2.089h0a1.1,1.1,0,0,0-.7.7h0a1.1,1.1,0,0,1-2.089,0h0a1.1,1.1,0,0,0-.7-.7h0a1.1,1.1,0,0,1,0-2.089h0a1.1,1.1,0,0,0,.7-.7Z" transform="matrix(0.95, -0.33, 0.33, 0.95, 230.65, 174.73)" fill="#fffbfc"/>
      </g>
      <g transform="matrix(1, 0, 0, 1, -243.79, -53.41)" filter="url(#Polygone_66)">
        <path id="Polygone_66-2" data-name="Polygone 66" d="M3.023,2.473a.869.869,0,0,1,1.649,0h0a.869.869,0,0,0,.55.55h0a.869.869,0,0,1,0,1.649h0a.869.869,0,0,0-.55.55h0a.869.869,0,0,1-1.649,0h0a.869.869,0,0,0-.55-.55h0a.869.869,0,0,1,0-1.649h0A.869.869,0,0,0,3.023,2.473Z" transform="translate(228.78 194.74) rotate(-12)" fill="#fffbfc"/>
      </g>
      <g transform="matrix(1, 0, 0, 1, -243.79, -53.41)" filter="url(#Polygone_67)">
        <path id="Polygone_67-2" data-name="Polygone 67" d="M3.023,2.473a.869.869,0,0,1,1.649,0h0a.869.869,0,0,0,.55.55h0a.869.869,0,0,1,0,1.649h0a.869.869,0,0,0-.55.55h0a.869.869,0,0,1-1.649,0h0a.869.869,0,0,0-.55-.55h0a.869.869,0,0,1,0-1.649h0A.869.869,0,0,0,3.023,2.473Z" transform="translate(193.81 158.47) rotate(-12)" fill="#fffbfc"/>
      </g>
    </g>
  </g>
</svg>
