<svg xmlns="http://www.w3.org/2000/svg" width="414" height="76.444" viewBox="0 0 414 76.444">
  <g id="Groupe_106" data-name="Groupe 106" transform="translate(261.801 -281)">
    <rect id="Rectangle_83" data-name="Rectangle 83" width="414" height="2" transform="translate(-261.801 316.876)" fill="#9bd8f8"/>
    <g id="sound" transform="translate(31.937 281)">
      <path id="Tracé_490" data-name="Tracé 490" d="M1.737,191.515A1.737,1.737,0,0,1,0,189.777V172.4a1.737,1.737,0,1,1,3.475,0v17.374A1.738,1.738,0,0,1,1.737,191.515Z" transform="translate(0 -142.868)" fill="#9bd8f8"/>
      <path id="Tracé_491" data-name="Tracé 491" d="M65.737,133.979A1.737,1.737,0,0,1,64,132.242V87.07a1.737,1.737,0,0,1,3.475,0v45.172A1.738,1.738,0,0,1,65.737,133.979Z" transform="translate(-53.576 -71.434)" fill="#67c0ef"/>
      <path id="Tracé_492" data-name="Tracé 492" d="M129.737,76.444A1.737,1.737,0,0,1,128,74.707V1.737a1.737,1.737,0,0,1,3.475,0V74.707A1.737,1.737,0,0,1,129.737,76.444Z" transform="translate(-107.152)" fill="#67c0ef"/>
      <path id="Tracé_493" data-name="Tracé 493" d="M193.737,90.828A1.737,1.737,0,0,1,192,89.09V23.07a1.737,1.737,0,1,1,3.475,0V89.09A1.737,1.737,0,0,1,193.737,90.828Z" transform="translate(-160.727 -17.858)" fill="#67c0ef"/>
      <path id="Tracé_494" data-name="Tracé 494" d="M257.737,148.363A1.737,1.737,0,0,1,256,146.626V108.4a1.737,1.737,0,1,1,3.475,0v38.222A1.738,1.738,0,0,1,257.737,148.363Z" transform="translate(-214.303 -89.292)" fill="#9bd8f8"/>
      <path id="Tracé_495" data-name="Tracé 495" d="M321.737,90.828A1.737,1.737,0,0,1,320,89.09V23.07a1.737,1.737,0,0,1,3.475,0V89.09A1.738,1.738,0,0,1,321.737,90.828Z" transform="translate(-267.879 -17.858)" fill="#67b6df"/>
      <path id="Tracé_496" data-name="Tracé 496" d="M385.737,148.363A1.737,1.737,0,0,1,384,146.626V108.4a1.737,1.737,0,1,1,3.475,0v38.222A1.738,1.738,0,0,1,385.737,148.363Z" transform="translate(-321.455 -89.292)" fill="#7ac5ec"/>
      <path id="Tracé_497" data-name="Tracé 497" d="M449.737,191.515A1.737,1.737,0,0,1,448,189.777V172.4a1.737,1.737,0,1,1,3.475,0v17.374A1.738,1.738,0,0,1,449.737,191.515Z" transform="translate(-375.031 -142.868)" fill="#9bd8f8"/>
    </g>
  </g>
</svg>
