<svg xmlns="http://www.w3.org/2000/svg" width="111.624" height="114.368" viewBox="0 0 111.624 114.368">
  <g id="footstep" transform="translate(22.719 85.464) rotate(11)" opacity="0.5">
    <g id="Groupe_111" data-name="Groupe 111" transform="matrix(0.995, 0.105, -0.105, 0.995, 3.059, -5.135)">
      <path id="Tracé_612" data-name="Tracé 612" d="M4.161,17.441A4.154,4.154,0,0,1,1.4,12.418c.1-.5.244-.987.384-1.473a3.877,3.877,0,0,0-.71-3.779C.954,6.984.844,6.814.751,6.653a4.935,4.935,0,0,1-.5-4.118A3.708,3.708,0,0,1,2.773.218a5.653,5.653,0,0,1,4.806.845,6.346,6.346,0,0,1,2.588,6.929C9.713,9.9,9.191,11.94,8.476,14.6a3.809,3.809,0,0,1-2.613,2.8,3.421,3.421,0,0,1-1.7.046Z" transform="translate(1.147 6.131)" fill="#cfd8dc"/>
      <g id="Groupe_108" data-name="Groupe 108" transform="translate(0 0)">
        <path id="Tracé_614" data-name="Tracé 614" d="M1.022,4.185c-.223,0-.631-.094-.846-.719A5.346,5.346,0,0,1,.192.685C.413.067.826-.019,1.024,0a.891.891,0,0,1,.833.7,5.366,5.366,0,0,1,.007,2.776A.886.886,0,0,1,1.022,4.185Z" transform="translate(3.921 0.462)" fill="#cfd8dc"/>
        <path id="Tracé_615" data-name="Tracé 615" d="M1.63,5.112a1.371,1.371,0,0,1-1.1-.618A3.74,3.74,0,0,1,.58.567,1.322,1.322,0,0,1,1.629,0h0a1.339,1.339,0,0,1,1.06.584A3.754,3.754,0,0,1,2.71,4.508a1.35,1.35,0,0,1-1.08.6Z" fill="#cfd8dc"/>
        <path id="Tracé_616" data-name="Tracé 616" d="M.829,3.435c-.3-.027-.671-.215-.781-.951A4.374,4.374,0,0,1,.128.777h0C.333.033.821-.008,1.015,0c.313.022.708.221.812,1.042A4.415,4.415,0,0,1,1.7,2.775a.851.851,0,0,1-.867.66Z" transform="translate(6.626 1.86)" fill="#cfd8dc"/>
        <path id="Tracé_617" data-name="Tracé 617" d="M.772,3.245C.466,3.2.087,2.981.017,2.171A3.767,3.767,0,0,1,.158.71.847.847,0,0,1,1.067,0c.466.055.729.44.783,1.145a3.8,3.8,0,0,1-.178,1.475h0A.835.835,0,0,1,.772,3.245Z" transform="translate(9.238 3.253)" fill="#cfd8dc"/>
        <path id="Tracé_618" data-name="Tracé 618" d="M.772,3.245C.466,3.2.087,2.98.017,2.17A3.767,3.767,0,0,1,.158.709.849.849,0,0,1,1.067,0c.466.055.729.44.783,1.145a3.8,3.8,0,0,1-.178,1.475h0a.835.835,0,0,1-.9.62Z" transform="translate(11.086 5.81)" fill="#cfd8dc"/>
      </g>
    </g>
    <g id="footstep-2" data-name="footstep" transform="matrix(1, 0.017, -0.017, 1, -17.547, 7.452)">
      <path id="Tracé_612-2" data-name="Tracé 612" d="M6.2,16.917a4.014,4.014,0,0,0,2.763-4.872c-.1-.483-.244-.957-.384-1.429a3.673,3.673,0,0,1,.71-3.666c.118-.176.228-.341.321-.5a4.662,4.662,0,0,0,.5-3.994A3.667,3.667,0,0,0,7.593.212a5.8,5.8,0,0,0-4.806.82A6.067,6.067,0,0,0,.2,7.752c.455,1.853.977,3.829,1.692,6.409A3.744,3.744,0,0,0,4.5,16.872a3.524,3.524,0,0,0,1.7.045Z" transform="translate(0.753 6.131)" fill="#cfd8dc"/>
      <g id="Groupe_108-2" data-name="Groupe 108" transform="translate(0 0)">
        <path id="Tracé_614-2" data-name="Tracé 614" d="M1.021,4.185c.223,0,.631-.094.846-.719A5.346,5.346,0,0,0,1.851.685C1.629.067,1.217-.019,1.019,0A.891.891,0,0,0,.186.7,5.366,5.366,0,0,0,.179,3.474a.886.886,0,0,0,.841.711Z" transform="translate(6.717 0.462)" fill="#cfd8dc"/>
        <path id="Tracé_615-2" data-name="Tracé 615" d="M1.625,5.112a1.372,1.372,0,0,0,1.1-.618A3.74,3.74,0,0,0,2.675.567,1.322,1.322,0,0,0,1.627,0h0A1.339,1.339,0,0,0,.562.584,3.754,3.754,0,0,0,.545,4.508a1.35,1.35,0,0,0,1.08.6Z" transform="translate(9.277 0)" fill="#cfd8dc"/>
        <path id="Tracé_616-2" data-name="Tracé 616" d="M1.03,3.435c.3-.027.671-.215.781-.951A4.374,4.374,0,0,0,1.731.777h0C1.525.033,1.037-.008.844,0,.531.023.136.222.032,1.043A4.414,4.414,0,0,0,.163,2.775a.851.851,0,0,0,.867.66Z" transform="translate(4.295 1.86)" fill="#cfd8dc"/>
        <path id="Tracé_617-2" data-name="Tracé 617" d="M1.087,3.245c.306-.044.685-.265.756-1.074A3.767,3.767,0,0,0,1.7.71.847.847,0,0,0,.792,0C.327.059.064.444.01,1.15A3.8,3.8,0,0,0,.187,2.625h0a.835.835,0,0,0,.9.62Z" transform="translate(1.883 3.253)" fill="#cfd8dc"/>
        <path id="Tracé_618-2" data-name="Tracé 618" d="M1.087,3.245c.306-.044.685-.265.756-1.074A3.767,3.767,0,0,0,1.7.709.849.849,0,0,0,.792,0C.327.059.064.444.01,1.149A3.8,3.8,0,0,0,.187,2.624h0a.835.835,0,0,0,.9.62Z" transform="translate(0 5.81)" fill="#cfd8dc"/>
      </g>
    </g>
    <g id="footstep-3" data-name="footstep" transform="translate(-5.297 -33.005) rotate(23)">
      <path id="Tracé_612-3" data-name="Tracé 612" d="M6.2,16.917a4.014,4.014,0,0,0,2.763-4.872c-.1-.483-.244-.957-.384-1.429a3.673,3.673,0,0,1,.71-3.666c.118-.176.228-.341.321-.5a4.662,4.662,0,0,0,.5-3.994A3.667,3.667,0,0,0,7.593.212a5.8,5.8,0,0,0-4.806.82A6.067,6.067,0,0,0,.2,7.752c.455,1.853.977,3.829,1.692,6.409A3.744,3.744,0,0,0,4.5,16.872a3.524,3.524,0,0,0,1.7.045Z" transform="translate(0.753 6.131)" fill="#cfd8dc"/>
      <g id="Groupe_108-3" data-name="Groupe 108" transform="translate(0 0)">
        <path id="Tracé_614-3" data-name="Tracé 614" d="M1.021,4.185c.223,0,.631-.094.846-.719A5.346,5.346,0,0,0,1.851.685C1.629.067,1.217-.019,1.019,0A.891.891,0,0,0,.186.7,5.366,5.366,0,0,0,.179,3.474a.886.886,0,0,0,.841.711Z" transform="translate(6.717 0.462)" fill="#cfd8dc"/>
        <path id="Tracé_615-3" data-name="Tracé 615" d="M1.625,5.112a1.372,1.372,0,0,0,1.1-.618A3.74,3.74,0,0,0,2.675.567,1.322,1.322,0,0,0,1.627,0h0A1.339,1.339,0,0,0,.562.584,3.754,3.754,0,0,0,.545,4.508a1.35,1.35,0,0,0,1.08.6Z" transform="translate(9.277 0)" fill="#cfd8dc"/>
        <path id="Tracé_616-3" data-name="Tracé 616" d="M1.03,3.435c.3-.027.671-.215.781-.951A4.374,4.374,0,0,0,1.731.777h0C1.525.033,1.037-.008.844,0,.531.023.136.222.032,1.043A4.414,4.414,0,0,0,.163,2.775a.851.851,0,0,0,.867.66Z" transform="translate(4.295 1.86)" fill="#cfd8dc"/>
        <path id="Tracé_617-3" data-name="Tracé 617" d="M1.087,3.245c.306-.044.685-.265.756-1.074A3.767,3.767,0,0,0,1.7.71.847.847,0,0,0,.792,0C.327.059.064.444.01,1.15A3.8,3.8,0,0,0,.187,2.625h0a.835.835,0,0,0,.9.62Z" transform="translate(1.883 3.253)" fill="#cfd8dc"/>
        <path id="Tracé_618-3" data-name="Tracé 618" d="M1.087,3.245c.306-.044.685-.265.756-1.074A3.767,3.767,0,0,0,1.7.709.849.849,0,0,0,.792,0C.327.059.064.444.01,1.149A3.8,3.8,0,0,0,.187,2.624h0a.835.835,0,0,0,.9.62Z" transform="translate(0 5.81)" fill="#cfd8dc"/>
      </g>
    </g>
    <g id="Groupe_112" data-name="Groupe 112" transform="translate(18.547 -37.751) rotate(25)">
      <path id="Tracé_612-4" data-name="Tracé 612" d="M4.161,17.441A4.154,4.154,0,0,1,1.4,12.418c.1-.5.244-.987.384-1.473a3.877,3.877,0,0,0-.71-3.779C.954,6.984.844,6.814.751,6.653a4.935,4.935,0,0,1-.5-4.118A3.708,3.708,0,0,1,2.773.218a5.653,5.653,0,0,1,4.806.845,6.346,6.346,0,0,1,2.588,6.929C9.713,9.9,9.191,11.94,8.476,14.6a3.809,3.809,0,0,1-2.613,2.8,3.421,3.421,0,0,1-1.7.046Z" transform="translate(1.147 6.131)" fill="#cfd8dc"/>
      <g id="Groupe_108-4" data-name="Groupe 108" transform="translate(0 0)">
        <path id="Tracé_614-4" data-name="Tracé 614" d="M1.022,4.185c-.223,0-.631-.094-.846-.719A5.346,5.346,0,0,1,.192.685C.413.067.826-.019,1.024,0a.891.891,0,0,1,.833.7,5.366,5.366,0,0,1,.007,2.776A.886.886,0,0,1,1.022,4.185Z" transform="translate(3.921 0.462)" fill="#cfd8dc"/>
        <path id="Tracé_615-4" data-name="Tracé 615" d="M1.63,5.112a1.371,1.371,0,0,1-1.1-.618A3.74,3.74,0,0,1,.58.567,1.322,1.322,0,0,1,1.629,0h0a1.339,1.339,0,0,1,1.06.584A3.754,3.754,0,0,1,2.71,4.508a1.35,1.35,0,0,1-1.08.6Z" fill="#cfd8dc"/>
        <path id="Tracé_616-4" data-name="Tracé 616" d="M.829,3.435c-.3-.027-.671-.215-.781-.951A4.374,4.374,0,0,1,.128.777h0C.333.033.821-.008,1.015,0c.313.022.708.221.812,1.042A4.415,4.415,0,0,1,1.7,2.775a.851.851,0,0,1-.867.66Z" transform="translate(6.626 1.86)" fill="#cfd8dc"/>
        <path id="Tracé_617-4" data-name="Tracé 617" d="M.772,3.245C.466,3.2.087,2.981.017,2.171A3.767,3.767,0,0,1,.158.71.847.847,0,0,1,1.067,0c.466.055.729.44.783,1.145a3.8,3.8,0,0,1-.178,1.475h0A.835.835,0,0,1,.772,3.245Z" transform="translate(9.238 3.253)" fill="#cfd8dc"/>
        <path id="Tracé_618-4" data-name="Tracé 618" d="M.772,3.245C.466,3.2.087,2.98.017,2.17A3.767,3.767,0,0,1,.158.709.849.849,0,0,1,1.067,0c.466.055.729.44.783,1.145a3.8,3.8,0,0,1-.178,1.475h0a.835.835,0,0,1-.9.62Z" transform="translate(11.086 5.81)" fill="#cfd8dc"/>
      </g>
    </g>
    <g id="footstep-4" data-name="footstep" transform="translate(15.793 -70.266) rotate(39)">
      <path id="Tracé_612-5" data-name="Tracé 612" d="M6.2,16.917a4.014,4.014,0,0,0,2.763-4.872c-.1-.483-.244-.957-.384-1.429a3.673,3.673,0,0,1,.71-3.666c.118-.176.228-.341.321-.5a4.662,4.662,0,0,0,.5-3.994A3.667,3.667,0,0,0,7.593.212a5.8,5.8,0,0,0-4.806.82A6.067,6.067,0,0,0,.2,7.752c.455,1.853.977,3.829,1.692,6.409A3.744,3.744,0,0,0,4.5,16.872a3.524,3.524,0,0,0,1.7.045Z" transform="translate(0.753 6.131)" fill="#cfd8dc"/>
      <g id="Groupe_108-5" data-name="Groupe 108" transform="translate(0 0)">
        <path id="Tracé_614-5" data-name="Tracé 614" d="M1.021,4.185c.223,0,.631-.094.846-.719A5.346,5.346,0,0,0,1.851.685C1.629.067,1.217-.019,1.019,0A.891.891,0,0,0,.186.7,5.366,5.366,0,0,0,.179,3.474a.886.886,0,0,0,.841.711Z" transform="translate(6.717 0.462)" fill="#cfd8dc"/>
        <path id="Tracé_615-5" data-name="Tracé 615" d="M1.625,5.112a1.372,1.372,0,0,0,1.1-.618A3.74,3.74,0,0,0,2.675.567,1.322,1.322,0,0,0,1.627,0h0A1.339,1.339,0,0,0,.562.584,3.754,3.754,0,0,0,.545,4.508a1.35,1.35,0,0,0,1.08.6Z" transform="translate(9.277 0)" fill="#cfd8dc"/>
        <path id="Tracé_616-5" data-name="Tracé 616" d="M1.03,3.435c.3-.027.671-.215.781-.951A4.374,4.374,0,0,0,1.731.777h0C1.525.033,1.037-.008.844,0,.531.023.136.222.032,1.043A4.414,4.414,0,0,0,.163,2.775a.851.851,0,0,0,.867.66Z" transform="translate(4.295 1.86)" fill="#cfd8dc"/>
        <path id="Tracé_617-5" data-name="Tracé 617" d="M1.087,3.245c.306-.044.685-.265.756-1.074A3.767,3.767,0,0,0,1.7.71.847.847,0,0,0,.792,0C.327.059.064.444.01,1.15A3.8,3.8,0,0,0,.187,2.625h0a.835.835,0,0,0,.9.62Z" transform="translate(1.883 3.253)" fill="#cfd8dc"/>
        <path id="Tracé_618-5" data-name="Tracé 618" d="M1.087,3.245c.306-.044.685-.265.756-1.074A3.767,3.767,0,0,0,1.7.709.849.849,0,0,0,.792,0C.327.059.064.444.01,1.149A3.8,3.8,0,0,0,.187,2.624h0a.835.835,0,0,0,.9.62Z" transform="translate(0 5.81)" fill="#cfd8dc"/>
      </g>
    </g>
    <g id="Groupe_121" data-name="Groupe 121" transform="translate(41.554 -68.861) rotate(44)">
      <path id="Tracé_612-6" data-name="Tracé 612" d="M4.161,17.441A4.154,4.154,0,0,1,1.4,12.418c.1-.5.244-.987.384-1.473a3.877,3.877,0,0,0-.71-3.779C.954,6.984.844,6.814.751,6.653a4.935,4.935,0,0,1-.5-4.118A3.708,3.708,0,0,1,2.773.218a5.653,5.653,0,0,1,4.806.845,6.346,6.346,0,0,1,2.588,6.929C9.713,9.9,9.191,11.94,8.476,14.6a3.809,3.809,0,0,1-2.613,2.8,3.421,3.421,0,0,1-1.7.046Z" transform="translate(1.147 6.131)" fill="#cfd8dc"/>
      <g id="Groupe_108-6" data-name="Groupe 108" transform="translate(0 0)">
        <path id="Tracé_614-6" data-name="Tracé 614" d="M1.022,4.185c-.223,0-.631-.094-.846-.719A5.346,5.346,0,0,1,.192.685C.413.067.826-.019,1.024,0a.891.891,0,0,1,.833.7,5.366,5.366,0,0,1,.007,2.776A.886.886,0,0,1,1.022,4.185Z" transform="translate(3.921 0.462)" fill="#cfd8dc"/>
        <path id="Tracé_615-6" data-name="Tracé 615" d="M1.63,5.112a1.371,1.371,0,0,1-1.1-.618A3.74,3.74,0,0,1,.58.567,1.322,1.322,0,0,1,1.629,0h0a1.339,1.339,0,0,1,1.06.584A3.754,3.754,0,0,1,2.71,4.508a1.35,1.35,0,0,1-1.08.6Z" fill="#cfd8dc"/>
        <path id="Tracé_616-6" data-name="Tracé 616" d="M.829,3.435c-.3-.027-.671-.215-.781-.951A4.374,4.374,0,0,1,.128.777h0C.333.033.821-.008,1.015,0c.313.022.708.221.812,1.042A4.415,4.415,0,0,1,1.7,2.775a.851.851,0,0,1-.867.66Z" transform="translate(6.626 1.86)" fill="#cfd8dc"/>
        <path id="Tracé_617-6" data-name="Tracé 617" d="M.772,3.245C.466,3.2.087,2.981.017,2.171A3.767,3.767,0,0,1,.158.71.847.847,0,0,1,1.067,0c.466.055.729.44.783,1.145a3.8,3.8,0,0,1-.178,1.475h0A.835.835,0,0,1,.772,3.245Z" transform="translate(9.238 3.253)" fill="#cfd8dc"/>
        <path id="Tracé_618-6" data-name="Tracé 618" d="M.772,3.245C.466,3.2.087,2.98.017,2.17A3.767,3.767,0,0,1,.158.709.849.849,0,0,1,1.067,0c.466.055.729.44.783,1.145a3.8,3.8,0,0,1-.178,1.475h0a.835.835,0,0,1-.9.62Z" transform="translate(11.086 5.81)" fill="#cfd8dc"/>
      </g>
    </g>
    <g id="footstep-5" data-name="footstep" transform="matrix(0.485, 0.875, -0.875, 0.485, 48.609, -98.341)">
      <path id="Tracé_612-7" data-name="Tracé 612" d="M6.2,16.917a4.014,4.014,0,0,0,2.763-4.872c-.1-.483-.244-.957-.384-1.429a3.673,3.673,0,0,1,.71-3.666c.118-.176.228-.341.321-.5a4.662,4.662,0,0,0,.5-3.994A3.667,3.667,0,0,0,7.593.212a5.8,5.8,0,0,0-4.806.82A6.067,6.067,0,0,0,.2,7.752c.455,1.853.977,3.829,1.692,6.409A3.744,3.744,0,0,0,4.5,16.872a3.524,3.524,0,0,0,1.7.045Z" transform="translate(0.753 6.131)" fill="#cfd8dc"/>
      <g id="Groupe_108-7" data-name="Groupe 108" transform="translate(0 0)">
        <path id="Tracé_614-7" data-name="Tracé 614" d="M1.021,4.185c.223,0,.631-.094.846-.719A5.346,5.346,0,0,0,1.851.685C1.629.067,1.217-.019,1.019,0A.891.891,0,0,0,.186.7,5.366,5.366,0,0,0,.179,3.474a.886.886,0,0,0,.841.711Z" transform="translate(6.717 0.462)" fill="#cfd8dc"/>
        <path id="Tracé_615-7" data-name="Tracé 615" d="M1.625,5.112a1.372,1.372,0,0,0,1.1-.618A3.74,3.74,0,0,0,2.675.567,1.322,1.322,0,0,0,1.627,0h0A1.339,1.339,0,0,0,.562.584,3.754,3.754,0,0,0,.545,4.508a1.35,1.35,0,0,0,1.08.6Z" transform="translate(9.277 0)" fill="#cfd8dc"/>
        <path id="Tracé_616-7" data-name="Tracé 616" d="M1.03,3.435c.3-.027.671-.215.781-.951A4.374,4.374,0,0,0,1.731.777h0C1.525.033,1.037-.008.844,0,.531.023.136.222.032,1.043A4.414,4.414,0,0,0,.163,2.775a.851.851,0,0,0,.867.66Z" transform="translate(4.295 1.86)" fill="#cfd8dc"/>
        <path id="Tracé_617-7" data-name="Tracé 617" d="M1.087,3.245c.306-.044.685-.265.756-1.074A3.767,3.767,0,0,0,1.7.71.847.847,0,0,0,.792,0C.327.059.064.444.01,1.15A3.8,3.8,0,0,0,.187,2.625h0a.835.835,0,0,0,.9.62Z" transform="translate(1.883 3.253)" fill="#cfd8dc"/>
        <path id="Tracé_618-7" data-name="Tracé 618" d="M1.087,3.245c.306-.044.685-.265.756-1.074A3.767,3.767,0,0,0,1.7.709.849.849,0,0,0,.792,0C.327.059.064.444.01,1.149A3.8,3.8,0,0,0,.187,2.624h0a.835.835,0,0,0,.9.62Z" transform="translate(0 5.81)" fill="#cfd8dc"/>
      </g>
    </g>
    <g id="Groupe_122" data-name="Groupe 122" transform="translate(72.283 -87.783) rotate(63)">
      <path id="Tracé_612-8" data-name="Tracé 612" d="M4.161,17.441A4.154,4.154,0,0,1,1.4,12.418c.1-.5.244-.987.384-1.473a3.877,3.877,0,0,0-.71-3.779C.954,6.984.844,6.814.751,6.653a4.935,4.935,0,0,1-.5-4.118A3.708,3.708,0,0,1,2.773.218a5.653,5.653,0,0,1,4.806.845,6.346,6.346,0,0,1,2.588,6.929C9.713,9.9,9.191,11.94,8.476,14.6a3.809,3.809,0,0,1-2.613,2.8,3.421,3.421,0,0,1-1.7.046Z" transform="translate(1.147 6.131)" fill="#cfd8dc"/>
      <g id="Groupe_108-8" data-name="Groupe 108" transform="translate(0 0)">
        <path id="Tracé_614-8" data-name="Tracé 614" d="M1.022,4.185c-.223,0-.631-.094-.846-.719A5.346,5.346,0,0,1,.192.685C.413.067.826-.019,1.024,0a.891.891,0,0,1,.833.7,5.366,5.366,0,0,1,.007,2.776A.886.886,0,0,1,1.022,4.185Z" transform="translate(3.921 0.462)" fill="#cfd8dc"/>
        <path id="Tracé_615-8" data-name="Tracé 615" d="M1.63,5.112a1.371,1.371,0,0,1-1.1-.618A3.74,3.74,0,0,1,.58.567,1.322,1.322,0,0,1,1.629,0h0a1.339,1.339,0,0,1,1.06.584A3.754,3.754,0,0,1,2.71,4.508a1.35,1.35,0,0,1-1.08.6Z" fill="#cfd8dc"/>
        <path id="Tracé_616-8" data-name="Tracé 616" d="M.829,3.435c-.3-.027-.671-.215-.781-.951A4.374,4.374,0,0,1,.128.777h0C.333.033.821-.008,1.015,0c.313.022.708.221.812,1.042A4.415,4.415,0,0,1,1.7,2.775a.851.851,0,0,1-.867.66Z" transform="translate(6.626 1.86)" fill="#cfd8dc"/>
        <path id="Tracé_617-8" data-name="Tracé 617" d="M.772,3.245C.466,3.2.087,2.981.017,2.171A3.767,3.767,0,0,1,.158.71.847.847,0,0,1,1.067,0c.466.055.729.44.783,1.145a3.8,3.8,0,0,1-.178,1.475h0A.835.835,0,0,1,.772,3.245Z" transform="translate(9.238 3.253)" fill="#cfd8dc"/>
        <path id="Tracé_618-8" data-name="Tracé 618" d="M.772,3.245C.466,3.2.087,2.98.017,2.17A3.767,3.767,0,0,1,.158.709.849.849,0,0,1,1.067,0c.466.055.729.44.783,1.145a3.8,3.8,0,0,1-.178,1.475h0a.835.835,0,0,1-.9.62Z" transform="translate(11.086 5.81)" fill="#cfd8dc"/>
      </g>
    </g>
  </g>
</svg>
