<svg xmlns="http://www.w3.org/2000/svg" xmlns:xlink="http://www.w3.org/1999/xlink" width="90" height="90" viewBox="0 0 90 90">
  <defs>
    <linearGradient id="linear-gradient" x1="0.698" y1="0.044" x2="0.5" y2="1" gradientUnits="objectBoundingBox">
      <stop offset="0" stop-color="#fffefa"/>
      <stop offset="1" stop-color="#faefd0"/>
    </linearGradient>
    <filter id="Ellipse_32" x="0" y="0" width="90" height="90" filterUnits="userSpaceOnUse">
      <feOffset input="SourceAlpha"/>
      <feGaussianBlur stdDeviation="10" result="blur"/>
      <feFlood flood-color="#fdf7e6" flood-opacity="0.6"/>
      <feComposite operator="in" in2="blur"/>
      <feComposite in="SourceGraphic"/>
    </filter>
  </defs>
  <g id="Groupe_80" data-name="Groupe 80" transform="translate(29.744 30)">
    <path id="Tracé_260" data-name="Tracé 260" d="M.333-13.135a1.353,1.353,0,0,1,.2.169c.216.209.33.27.33.468a1.251,1.251,0,0,1-.212.573.506.506,0,0,1-.36.138C.128-11.819,0-12.155,0-12.449S.037-13.118.333-13.135Z" transform="translate(3.406 35.024)" fill="#b9403e"/>
    <g transform="matrix(1, 0, 0, 1, -29.74, -30)" filter="url(#Ellipse_32)">
      <circle id="Ellipse_32-2" data-name="Ellipse 32" cx="15" cy="15" r="15" transform="translate(30 30)" fill="url(#linear-gradient)"/>
    </g>
    <path id="Tracé_262" data-name="Tracé 262" d="M.333,0a1.353,1.353,0,0,1,.2.169c.216.209.33.27.33.468a1.251,1.251,0,0,1-.212.573.506.506,0,0,1-.36.138C.128,1.316,0,.98,0,.686S.037.017.333,0Z" transform="translate(8.862 22.612) rotate(71)" fill="#b9403e"/>
    <path id="Tracé_263" data-name="Tracé 263" d="M.172,0a.7.7,0,0,1,.1.087c.111.108.17.139.17.241A.644.644,0,0,1,.334.622.26.26,0,0,1,.148.693C.066.677,0,.5,0,.353S.019.009.172,0Z" transform="matrix(0.921, -0.391, 0.391, 0.921, 7.299, 28.327)" fill="#b9403e"/>
    <path id="Tracé_264" data-name="Tracé 264" d="M.333,0a1.353,1.353,0,0,1,.2.169c.216.209.33.27.33.468a1.251,1.251,0,0,1-.212.573.506.506,0,0,1-.36.138C.128,1.316,0,.98,0,.686S.037.017.333,0Z" transform="matrix(0.53, -0.848, 0.848, 0.53, 1.752, 27.166)" fill="#b9403e"/>
    <path id="Tracé_265" data-name="Tracé 265" d="M.333,0a1.353,1.353,0,0,1,.2.169c.216.209.33.27.33.468a1.251,1.251,0,0,1-.212.573.506.506,0,0,1-.36.138C.128,1.316,0,.98,0,.686S.037.017.333,0Z" transform="matrix(0.766, 0.643, -0.643, 0.766, 11.982, 17.648)" fill="#b9403e"/>
    <path id="Tracé_266" data-name="Tracé 266" d="M.227,0A.922.922,0,0,1,.362.115C.509.257.587.3.587.434a.853.853,0,0,1-.145.39A.345.345,0,0,1,.2.919C.087.9,0,.668,0,.468S.025.012.227,0Z" transform="matrix(0.998, -0.07, 0.07, 0.998, 9.859, 27.172)" fill="#b9403e"/>
    <path id="Tracé_267" data-name="Tracé 267" d="M.208,0A.843.843,0,0,1,.331.1C.465.235.536.273.536.4A.779.779,0,0,1,.4.753.315.315,0,0,1,.18.839C.08.82,0,.61,0,.427S.023.011.208,0Z" transform="matrix(-0.616, -0.788, 0.788, -0.616, 5.055, 26.938)" fill="#b9403e"/>
    <path id="Tracé_268" data-name="Tracé 268" d="M.333-13.135a1.353,1.353,0,0,1,.2.169c.216.209.33.27.33.468a1.251,1.251,0,0,1-.212.573.506.506,0,0,1-.36.138C.128-11.819,0-12.155,0-12.449S.037-13.118.333-13.135Z" transform="translate(1.785 33.064)" fill="#b9403e"/>
    <path id="Tracé_269" data-name="Tracé 269" d="M.266,0A1.081,1.081,0,0,1,.425.135C.6.3.688.35.688.509a1,1,0,0,1-.17.457.4.4,0,0,1-.288.111C.1,1.052,0,.783,0,.548S.03.014.266,0Z" transform="translate(7.04 20.905) rotate(71)" fill="#b9403e"/>
  </g>
</svg>
