<svg xmlns="http://www.w3.org/2000/svg" xmlns:xlink="http://www.w3.org/1999/xlink" width="458.023" height="390.368" viewBox="0 0 458.023 390.368">
  <defs>
    <linearGradient id="linear-gradient" x1="0.5" x2="0.5" y2="1" gradientUnits="objectBoundingBox">
      <stop offset="0" stop-color="#151b20"/>
      <stop offset="0.598" stop-color="#151b20"/>
      <stop offset="1"/>
    </linearGradient>
    <linearGradient id="linear-gradient-2" x1="0.5" x2="0.5" y2="1" gradientUnits="objectBoundingBox">
      <stop offset="0" stop-color="#151b20"/>
      <stop offset="0.582" stop-color="#151b20"/>
      <stop offset="1"/>
    </linearGradient>
    <linearGradient id="linear-gradient-3" x1="0.5" x2="0.5" y2="1" gradientUnits="objectBoundingBox">
      <stop offset="0" stop-color="#151b20"/>
      <stop offset="0.561" stop-color="#151b20"/>
      <stop offset="0.761" stop-color="#2c343b"/>
      <stop offset="1" stop-color="#7a7d80"/>
    </linearGradient>
    <linearGradient id="linear-gradient-4" x1="0.5" x2="0.5" y2="1" gradientUnits="objectBoundingBox">
      <stop offset="0" stop-color="#0d1011"/>
      <stop offset="0.151" stop-color="#151b20"/>
      <stop offset="0.72" stop-color="#151b20"/>
      <stop offset="1"/>
    </linearGradient>
    <filter id="Tracé_817" x="57.689" y="0" width="284.053" height="334.869" filterUnits="userSpaceOnUse">
      <feOffset input="SourceAlpha"/>
      <feGaussianBlur stdDeviation="3" result="blur"/>
      <feFlood flood-opacity="0.502"/>
      <feComposite operator="in" in2="blur"/>
      <feComposite in="SourceGraphic"/>
    </filter>
    <filter id="Tracé_829" x="80.391" y="58.675" width="20.078" height="15.788" filterUnits="userSpaceOnUse">
      <feOffset dx="0.5" dy="0.5" input="SourceAlpha"/>
      <feGaussianBlur stdDeviation="1" result="blur-2"/>
      <feFlood flood-color="#fefbf2" flood-opacity="0.2"/>
      <feComposite operator="in" in2="blur-2"/>
      <feComposite in="SourceGraphic"/>
    </filter>
    <filter id="Tracé_830" x="109.625" y="59.597" width="20.643" height="15.018" filterUnits="userSpaceOnUse">
      <feOffset dx="0.5" dy="0.5" input="SourceAlpha"/>
      <feGaussianBlur stdDeviation="1" result="blur-3"/>
      <feFlood flood-color="#fefbf2" flood-opacity="0.2"/>
      <feComposite operator="in" in2="blur-3"/>
      <feComposite in="SourceGraphic"/>
    </filter>
  </defs>
  <g id="Groupe_568" data-name="Groupe 568" transform="translate(-285.965 -453.132)">
    <path id="Tracé_818" data-name="Tracé 818" d="M18177.152,15602.848s1.016,10.991,3.412,14.824,9.107,13.9,12.939,17.011,12.459,11.261,17.49,13.417,11.02,4.552,12.7,5.989,11.98,9.584,13.178,12.459,6.229,5.751,3.594,12.459-16.055,27.792-17.73,28.99-7.187-.719-9.344,0-9.105,4.792-8.865,9.1a5.691,5.691,0,0,0,4.074,5.271s7.428,1.438,9.584,1.2,7.188-1.2,7.188-1.2,4.551,1.2,5.27,0,9.824-12.219,9.824-12.219l12.219-17.251,2.943-9.681a65.132,65.132,0,0,0-2.467-8.429c-1.389-3.794-3.623-8.3-5.756-10.71a32.7,32.7,0,0,0-6.717-6.759c-3.633-2.794-7.916-4.86-9.045-5.669a125.778,125.778,0,0,1-11.723-11.823s-13.922-15.982-15.2-18.251-9.062-21.111-9.062-21.111a7.678,7.678,0,0,0-3.365-1.393,5.2,5.2,0,0,0-4.293,1.635c-1.135,1.417.18,1.188-2.088,1.614A85.1,85.1,0,0,1,18177.152,15602.848Z" transform="translate(-17659.359 -14954.188)" fill="url(#linear-gradient)"/>
    <path id="Tracé_819" data-name="Tracé 819" d="M18088.084,15729.4a72.105,72.105,0,0,0,7.766-1.4c1.561-.566,2.223-2.271,2.93-3.972a23.379,23.379,0,0,0,2.188-6.911c.283-2.836,1.418-8.79,1.135-13.043s.283-6.38.709-9.641a66.64,66.64,0,0,0,0-13.043c-.426-2.552-.561-11.89-.561-11.89l-2.859,8.641s-3.586,5.456-4.719,7.109" transform="translate(-17659.359 -14954.188)" fill="url(#linear-gradient-2)"/>
    <path id="Tracé_820" data-name="Tracé 820" d="M18277.189,15546.069a86.285,86.285,0,0,1,9.049,10.965,63.485,63.485,0,0,1,8.141,16.32c3.594,11.74,5.512,17.729,5.99,30.907s-.957,17.969,0,25.636,2.875,27.313,2.875,34.98-1.2,27.552-4.312,35.459-3.594,14.375-10.3,16.292a93.031,93.031,0,0,1-18.209,3.115c-4.072.239-8.385,0-8.385,0l2.875-4.553s7.426-20.364,8.145-23,2.637-23,2.637-23l-10.781-16.292s-9.584-11.5-9.824-19.407-.131-10.148,3.225-14.461,6.871-7.526,9.746-13.517,7.965-28.267,8.205-30.184,1.785-20.424,1.8-22.341A59.74,59.74,0,0,0,18277.189,15546.069Z" transform="translate(-17659.359 -14954.188)" fill="url(#linear-gradient-3)"/>
    <g transform="matrix(1, 0, 0, 1, 285.96, 453.13)" filter="url(#Tracé_817)">
      <path id="Tracé_817-2" data-name="Tracé 817" d="M18116.422,15607.168s51.059-3.685,61.586-4.211,9.475-.526,10.527-2.632h0c3.158-2.632,6.844,0,6.844,0s4.734,15.79,11.053,23.687,17.9,21.056,22.109,25.267,13.156,6.315,19.475,15.791a46.048,46.048,0,0,1,7.371,17.9l-7.371,28.951h-8.947l-5.264,4.737v5.79l5.264,4.211,11.045-.746,8.223-.992,6.521-10.35s7.8-20.981,8.223-23.25,1.559-5.929,1.7-8.352.992-12.489.709-14.19-13.609-19.5-13.609-19.5-5.242-7.874-6.494-16.739,3.939-15.1,6.494-17.73,8.307-11.74,10.223-18.209a196.772,196.772,0,0,0,5.031-26.354c.719-6.708,1.678-19.167,0-24.678s-13.9-16.772-18.209-20.126-35.949-11.746-44.812-12.944-29.086-4.312-36.105-4.792-41.281-3.114-49.187-3.594-21.324-1.2-22.762-2.156-2.4,1.438-4.312,0,.24.479,1.678-7.187-.242-12.458-3.355-19.646a36.577,36.577,0,0,0-9.187-12.173,41.838,41.838,0,0,0,3.133-6.45c.738-2.4,1.844-15.48,1.291-20.642s-2.764-14.929-3.5-16.4,0-1.843-3.686-2.4-12.35,6.45-12.35,6.45-7,5.9-8.109,7.741-5.713,11.61-5.713,11.61-1.1-3.134-5.9-4.055-12.164.922-12.164.922-1.107-6.081-2.766-8.478-18.244-14.191-18.244-14.191-2.211-1.658-5.529,0-3.686,13.823-4.055,16.034a34.46,34.46,0,0,0,1.289,11.795,75.408,75.408,0,0,0,4.24,8.662s.738,4.24,0,4.977a19.159,19.159,0,0,0-6.451,11.979c-.922,7.371,0,18.062,2.211,22.484s3.162,14.942,8.295,20.859-2.953,12.147,0,21.491,13.855,30.211,16.658,33.638,10.277,25.229,13.7,29.9,14.422,17.753,14.422,17.753,2.219,14.4,3.51,17.906,9.029,30.777,9.215,32.437-1.289,13.823-1.658,17.141-5.414,33.415-5.414,33.415-4.82.71-6.947,2.694-3.687,4.963-3.545,7.372-.141,3.4,1.277,4.536,5.385,1.134,6.662.992,12.332-.993,14.318-1.56,1.289-.272,2.564-1.123,1.986-11.637,2.27-12.912,3.684-14.45,3.826-23.807a24.639,24.639,0,0,1,5.955-15.452l5.951-20.319s4.24-18.8,4.977-21.01,2.4-9.215,2.58-10.5.92-13.822.92-13.822Z" transform="translate(-17945.32 -15407.32)" fill="url(#linear-gradient-4)"/>
    </g>
    <g transform="matrix(1, 0, 0, 1, 285.96, 453.13)" filter="url(#Tracé_829)">
      <path id="Tracé_829-2" data-name="Tracé 829" d="M18041.621,15477.357s-.766-4.311-2.012-5.652-4.408-2.012-4.982-2.012-4.6-.479-4.6-.479l2.2,1.629s0,3.257.861,4.119,3.547,1.245,4.6,1.054S18041.621,15477.357,18041.621,15477.357Z" transform="translate(-17945.32 -15407.32)" fill="none" stroke="#fefbf2" stroke-width="1"/>
    </g>
    <g transform="matrix(1, 0, 0, 1, 285.96, 453.13)" filter="url(#Tracé_830)">
      <path id="Tracé_830-2" data-name="Tracé 830" d="M18058.674,15477.357s2.971-4.981,4.119-5.939a7.07,7.07,0,0,1,4.6-1.437,24.746,24.746,0,0,1,4.119,1.438c.479.191-1.342.958-1.342.958a3.163,3.163,0,0,1-1.148,2.777c-1.342.862-2.393,1.629-4.5,1.438a14.871,14.871,0,0,1-2.971-.479Z" transform="translate(-17945.32 -15407.32)" fill="none" stroke="#fefbf2" stroke-width="1"/>
    </g>
  </g>
  <path id="Tracé_885" data-name="Tracé 885" d="M17972.9,17208l14.848-17.344,20.2-12.863,27.652-6.611,24.646-13.826,19.836-10.82,42.68-7.213,21.041-6.613h35.465l24.646,13.826,17.434-7.213,9.617-6.613h27.051l6.012,4.207h19.838l35.465-4.207,28.855,6.613,9.617,13.225,18.033,22.24,21.641,6.613,31.861,16.832V17208Z" transform="translate(-17971.816 -16818.132)" fill="#18212c" stroke="#18212c" stroke-width="1"/>
</svg>
