<svg xmlns="http://www.w3.org/2000/svg" width="292.248" height="318.037" viewBox="0 0 292.248 318.037">
  <g id="Groupe_552" data-name="Groupe 552" transform="translate(-17963.27 -15832.723)">
    <path id="Tracé_817" data-name="Tracé 817" d="M18116.422,15607.168s51.059-3.685,61.586-4.211,9.475-.526,10.527-2.632h0c3.158-2.632,6.844,0,6.844,0s4.734,15.79,11.053,23.687,17.9,21.056,22.109,25.267,13.156,6.315,19.475,15.791a46.048,46.048,0,0,1,7.371,17.9l-7.371,28.951h-8.947l-5.264,4.737v5.79l5.264,4.211,11.045-.746,8.223-.992,6.521-10.35s7.8-20.981,8.223-23.25,1.559-5.929,1.7-8.352.992-12.489.709-14.19-13.609-19.5-13.609-19.5-5.242-7.874-6.494-16.739,3.939-15.1,6.494-17.73,8.307-11.74,10.223-18.209a196.772,196.772,0,0,0,5.031-26.354c.719-6.708,1.678-19.167,0-24.678s-13.9-16.772-18.209-20.126-35.949-11.746-44.812-12.944-29.086-4.312-36.105-4.792-41.281-3.114-49.187-3.594-21.324-1.2-22.762-2.156-2.4,1.438-4.312,0,.24.479,1.678-7.187-.242-12.458-3.355-19.646a36.577,36.577,0,0,0-9.187-12.173,41.838,41.838,0,0,0,3.133-6.45c.738-2.4,1.844-15.48,1.291-20.642s-2.764-14.929-3.5-16.4,0-1.843-3.686-2.4-12.35,6.45-12.35,6.45-7,5.9-8.109,7.741-5.713,11.61-5.713,11.61-1.1-3.134-5.9-4.055-12.164.922-12.164.922-1.107-6.081-2.766-8.478-18.244-14.191-18.244-14.191-2.211-1.658-5.529,0-3.686,13.823-4.055,16.034a34.46,34.46,0,0,0,1.289,11.795,75.408,75.408,0,0,0,4.24,8.662s.738,4.24,0,4.977a19.159,19.159,0,0,0-6.451,11.979c-.922,7.371,0,18.062,2.211,22.484s3.162,14.942,8.295,20.859-2.953,12.147,0,21.491,13.855,30.211,16.658,33.638,10.277,25.229,13.7,29.9,14.422,17.753,14.422,17.753,2.219,14.4,3.51,17.906,9.029,30.777,9.215,32.437-1.289,13.823-1.658,17.141-5.414,33.415-5.414,33.415-4.82.71-6.947,2.694-3.687,4.963-3.545,7.372-.141,3.4,1.277,4.536,5.385,1.134,6.662.992,12.332-.993,14.318-1.56,1.289-.272,2.564-1.123,1.986-11.637,2.27-12.912,3.684-14.45,3.826-23.807a24.639,24.639,0,0,1,5.955-15.452l5.951-20.319s4.24-18.8,4.977-21.01,2.4-9.215,2.58-10.5.92-13.822.92-13.822Z" transform="translate(-48.227 417)" fill="#d4c4b2" stroke="#707070" stroke-width="1"/>
    <path id="Tracé_818" data-name="Tracé 818" d="M18177.211,15603.3s.957,10.543,3.354,14.376,9.107,13.9,12.939,17.011,12.459,11.261,17.49,13.417,11.02,4.552,12.7,5.989,11.98,9.584,13.178,12.459,6.229,5.751,3.594,12.459-16.055,27.792-17.73,28.99-7.187-.719-9.344,0-9.105,4.792-8.865,9.1a5.691,5.691,0,0,0,4.074,5.271s7.428,1.438,9.584,1.2,7.188-1.2,7.188-1.2,4.551,1.2,5.27,0,9.824-12.219,9.824-12.219l12.219-17.251,2.943-9.681s-3.826-14.177-8.223-19.139-11.2-10.633-15.6-12.192-12.051-11.909-12.051-11.909-14.035-16.02-15.311-18.288-9.215-20.981-9.215-20.981a6.265,6.265,0,0,0-3.119-1.418c-1.418,0-2.977,0-4.111,1.418s.283,1.417-1.984,1.843S18177.211,15603.3,18177.211,15603.3Z" transform="translate(-48.227 417)" fill="#d4c4b2" stroke="#707070" stroke-width="1"/>
    <path id="Tracé_819" data-name="Tracé 819" d="M18088.492,15729.308a63.749,63.749,0,0,0,7.357-1.309c1.561-.566,2.223-2.271,2.93-3.972a23.379,23.379,0,0,0,2.188-6.911c.283-2.836,1.418-8.79,1.135-13.043s.283-6.38.709-9.641a66.64,66.64,0,0,0,0-13.043c-.426-2.552,0-11.767,0-11.767l-3.119,8.932s-3.535,5.268-4.527,6.614" transform="translate(-48.227 417)" fill="#d4c4b2" stroke="#707070" stroke-width="1"/>
    <path id="Tracé_820" data-name="Tracé 820" d="M18278.066,15546.281s12.719,15.333,16.313,27.073,5.512,17.729,5.99,30.907-.957,17.969,0,25.636,2.875,27.313,2.875,34.98-1.2,27.552-4.312,35.459-3.594,14.375-10.3,16.292a93.031,93.031,0,0,1-18.209,3.115c-4.072.239-8.385,0-8.385,0l2.875-4.553s7.426-20.364,8.145-23,2.637-23,2.637-23l-10.781-16.292s-9.584-11.5-9.824-19.407,0-9.823,3.354-14.136,7.189-7.905,10.064-13.9,8.145-28.032,8.385-29.949,1.158-20.6,1.178-22.521S18278.066,15546.281,18278.066,15546.281Z" transform="translate(-48.227 417)" fill="#d4c4b2" stroke="#707070" stroke-width="1"/>
  </g>
</svg>
