<svg xmlns="http://www.w3.org/2000/svg" xmlns:xlink="http://www.w3.org/1999/xlink" width="684" height="684" viewBox="0 0 684 684">
  <defs>
    <linearGradient id="linear-gradient" x1="0.698" y1="0.044" x2="0.5" y2="1" gradientUnits="objectBoundingBox">
      <stop offset="0" stop-color="#fffefa"/>
      <stop offset="1" stop-color="#faefd0"/>
    </linearGradient>
    <filter id="Ellipse_39" x="0" y="0" width="684" height="684" filterUnits="userSpaceOnUse">
      <feOffset input="SourceAlpha"/>
      <feGaussianBlur stdDeviation="10" result="blur"/>
      <feFlood flood-color="#fdf7e6" flood-opacity="0.6"/>
      <feComposite operator="in" in2="blur"/>
      <feComposite in="SourceGraphic"/>
    </filter>
  </defs>
  <g transform="matrix(1, 0, 0, 1, 0, 0)" filter="url(#Ellipse_39)">
    <circle id="Ellipse_39-2" data-name="Ellipse 39" cx="312" cy="312" r="312" transform="translate(30 30)" fill="url(#linear-gradient)"/>
  </g>
  <g id="Groupe_399" data-name="Groupe 399" transform="translate(88.376 429.02)">
    <path id="Tracé_262" data-name="Tracé 262" d="M5.484,0c1.029.617.771.6,3.258,2.773,3.544,3.439,5.42,4.433,5.42,7.7,0,2.824-1.92,7.127-3.492,9.417-1.07,1.56-4.825,2.49-5.925,2.275C2.1,21.649,0,16.119,0,11.283S.614.286,5.484,0Z" transform="translate(116.93 81.652) rotate(71)" fill="#b9403e"/>
    <path id="Tracé_263" data-name="Tracé 263" d="M2.822,0A11.451,11.451,0,0,1,4.5,1.427C6.322,3.2,7.287,3.708,7.287,5.39a10.59,10.59,0,0,1-1.8,4.845,4.283,4.283,0,0,1-3.049,1.171C1.081,11.139,0,8.294,0,5.806S.316.147,2.822,0Z" transform="matrix(0.921, -0.391, 0.391, 0.921, 91.219, 175.642)" fill="#b9403e"/>
    <path id="Tracé_265" data-name="Tracé 265" d="M5.484,0c1.029.617.771.6,3.258,2.773,3.544,3.439,5.42,4.433,5.42,7.7,0,2.824-1.92,7.127-3.492,9.417-1.07,1.56-4.825,2.49-5.925,2.275C2.1,21.649,0,16.119,0,11.283S.614.286,5.484,0Z" transform="matrix(0.766, 0.643, -0.643, 0.766, 168.243, 0)" fill="#b9403e"/>
    <path id="Tracé_266" data-name="Tracé 266" d="M3.738,0a15.168,15.168,0,0,1,2.22,1.89C8.374,4.234,9.652,4.911,9.652,7.139a14.028,14.028,0,0,1-2.38,6.418c-.729,1.063-3.289,1.7-4.038,1.55C1.432,14.755,0,10.986,0,7.691S.419.2,3.738,0Z" transform="matrix(0.998, -0.07, 0.07, 0.998, 133.329, 156.653)" fill="#b9403e"/>
    <path id="Tracé_267" data-name="Tracé 267" d="M3.415,0A13.858,13.858,0,0,1,5.444,1.727c2.207,2.141,3.375,2.761,3.375,4.8a12.816,12.816,0,0,1-2.174,5.864c-.666.971-3,1.551-3.69,1.417C1.308,13.481,0,10.038,0,7.026S.383.178,3.415,0Z" transform="matrix(-0.616, -0.788, 0.788, -0.616, 54.319, 152.798)" fill="#b9403e"/>
    <path id="Tracé_269" data-name="Tracé 269" d="M4.382,0a17.78,17.78,0,0,1,2.6,2.216c2.832,2.747,4.33,3.542,4.33,6.154,0,2.256-1.534,5.694-2.79,7.524-.855,1.246-3.855,1.99-4.734,1.818C1.679,17.3,0,12.879,0,9.015S.491.229,4.382,0Z" transform="translate(86.966 53.567) rotate(71)" fill="#b9403e"/>
    <path id="Tracé_260" data-name="Tracé 260" d="M5.484-13.135c1.029.617.771.6,3.258,2.773,3.544,3.439,5.42,4.433,5.42,7.7,0,2.824-1.92,7.127-3.492,9.417C9.6,8.316,5.845,9.246,4.745,9.031,2.1,8.513,0,2.983,0-1.852S.614-12.849,5.484-13.135Z" transform="translate(27.199 82.883)" fill="#b9403e"/>
    <path id="Tracé_264" data-name="Tracé 264" d="M5.484,0c1.029.617.771.6,3.258,2.773,3.544,3.439,5.42,4.433,5.42,7.7,0,2.824-1.92,7.127-3.492,9.417-1.07,1.56-4.825,2.49-5.925,2.275C2.1,21.649,0,16.119,0,11.283S.614.286,5.484,0Z" transform="matrix(0.53, -0.848, 0.848, 0.53, 0, 156.543)" fill="#b9403e"/>
    <path id="Tracé_268" data-name="Tracé 268" d="M5.484-13.135c1.029.617.771.6,3.258,2.773,3.544,3.439,5.42,4.433,5.42,7.7,0,2.824-1.92,7.127-3.492,9.417C9.6,8.316,5.845,9.246,4.745,9.031,2.1,8.513,0,2.983,0-1.852S.614-12.849,5.484-13.135Z" transform="translate(0.527 50.654)" fill="#b9403e"/>
  </g>
</svg>
