<svg xmlns="http://www.w3.org/2000/svg" width="24.232" height="20.952" viewBox="0 0 24.232 20.952">
  <g id="footstep" transform="translate(14.918 -3.678) rotate(42)">
    <path id="Tracé_612" data-name="Tracé 612" d="M6.2,16.917a4.014,4.014,0,0,0,2.763-4.872c-.1-.483-.244-.957-.384-1.429a3.673,3.673,0,0,1,.71-3.666c.118-.176.228-.341.321-.5a4.662,4.662,0,0,0,.5-3.994A3.667,3.667,0,0,0,7.593.212a5.8,5.8,0,0,0-4.806.82A6.067,6.067,0,0,0,.2,7.752c.455,1.853.977,3.829,1.692,6.409A3.744,3.744,0,0,0,4.5,16.872a3.524,3.524,0,0,0,1.7.045Z" transform="translate(0.753 6.131)" fill="#cfd8dc"/>
    <g id="Groupe_108" data-name="Groupe 108" transform="translate(0 0)">
      <path id="Tracé_614" data-name="Tracé 614" d="M1.021,4.185c.223,0,.631-.094.846-.719A5.346,5.346,0,0,0,1.851.685C1.629.067,1.217-.019,1.019,0A.891.891,0,0,0,.186.7,5.366,5.366,0,0,0,.179,3.474a.886.886,0,0,0,.841.711Z" transform="translate(6.717 0.462)" fill="#cfd8dc"/>
      <path id="Tracé_615" data-name="Tracé 615" d="M1.625,5.112a1.372,1.372,0,0,0,1.1-.618A3.74,3.74,0,0,0,2.675.567,1.322,1.322,0,0,0,1.627,0h0A1.339,1.339,0,0,0,.562.584,3.754,3.754,0,0,0,.545,4.508a1.35,1.35,0,0,0,1.08.6Z" transform="translate(9.277 0)" fill="#cfd8dc"/>
      <path id="Tracé_616" data-name="Tracé 616" d="M1.03,3.435c.3-.027.671-.215.781-.951A4.374,4.374,0,0,0,1.731.777h0C1.525.033,1.037-.008.844,0,.531.023.136.222.032,1.043A4.414,4.414,0,0,0,.163,2.775a.851.851,0,0,0,.867.66Z" transform="translate(4.295 1.86)" fill="#cfd8dc"/>
      <path id="Tracé_617" data-name="Tracé 617" d="M1.087,3.245c.306-.044.685-.265.756-1.074A3.767,3.767,0,0,0,1.7.71.847.847,0,0,0,.792,0C.327.059.064.444.01,1.15A3.8,3.8,0,0,0,.187,2.625h0a.835.835,0,0,0,.9.62Z" transform="translate(1.883 3.253)" fill="#cfd8dc"/>
      <path id="Tracé_618" data-name="Tracé 618" d="M1.087,3.245c.306-.044.685-.265.756-1.074A3.767,3.767,0,0,0,1.7.709.849.849,0,0,0,.792,0C.327.059.064.444.01,1.149A3.8,3.8,0,0,0,.187,2.624h0a.835.835,0,0,0,.9.62Z" transform="translate(0 5.81)" fill="#cfd8dc"/>
    </g>
  </g>
</svg>
